<?xml version="1.0"?>
<!-- Generated by SVGo and Plotinum VG -->
<svg width="10in" height="10in"
	xmlns="http://www.w3.org/2000/svg"
	xmlns:xlink="http://www.w3.org/1999/xlink">
<g transform="scale(1, -1) translate(0, -900)">
<path d="M0,0L900,0L900,900L0,900Z" style="fill:#FFFFFF" />
<text x="386.88" y="-885.56" transform="scale(1, -1)"
	style="font-family:Times;font-weight:normal;font-style:normal;font-size:12pt">Simulated Annealing</text>
<text x="467.71" y="-4.8267" transform="scale(1, -1)"
	style="font-family:Times;font-weight:normal;font-style:normal;font-size:12pt">X</text>
<text x="147.04" y="-19.502" transform="scale(1, -1)"
	style="font-family:Times;font-weight:normal;font-style:normal;font-size:10pt">-8</text>
<text x="469.62" y="-19.502" transform="scale(1, -1)"
	style="font-family:Times;font-weight:normal;font-style:normal;font-size:10pt">0</text>
<text x="790.13" y="-19.502" transform="scale(1, -1)"
	style="font-family:Times;font-weight:normal;font-style:normal;font-size:10pt">8</text>
<path d="M152.25,31.538L152.25,41.538" style="fill:none;stroke:#000000;stroke-width:0.625" />
<path d="M472.75,31.538L472.75,41.538" style="fill:none;stroke:#000000;stroke-width:0.625" />
<path d="M793.25,31.538L793.25,41.538" style="fill:none;stroke:#000000;stroke-width:0.625" />
<path d="M312.5,36.538L312.5,41.538" style="fill:none;stroke:#000000;stroke-width:0.625" />
<path d="M633,36.538L633,41.538" style="fill:none;stroke:#000000;stroke-width:0.625" />
<path d="M73.483,41.538L872.77,41.538" style="fill:none;stroke:#000000;stroke-width:0.625" />
<g transform="rotate(90)">
<text x="461.24" y="14.443" transform="scale(1, -1)"
	style="font-family:Times;font-weight:normal;font-style:normal;font-size:12pt">Y</text>
</g>
<text x="19.27" y="-160.97" transform="scale(1, -1)"
	style="font-family:Times;font-weight:normal;font-style:normal;font-size:10pt">-8</text>
<text x="23.433" y="-460.46" transform="scale(1, -1)"
	style="font-family:Times;font-weight:normal;font-style:normal;font-size:10pt">0</text>
<text x="23.433" y="-759.95" transform="scale(1, -1)"
	style="font-family:Times;font-weight:normal;font-style:normal;font-size:10pt">8</text>
<path d="M32.808,166.87L42.808,166.87" style="fill:none;stroke:#000000;stroke-width:0.625" />
<path d="M32.808,466.36L42.808,466.36" style="fill:none;stroke:#000000;stroke-width:0.625" />
<path d="M32.808,765.85L42.808,765.85" style="fill:none;stroke:#000000;stroke-width:0.625" />
<path d="M37.808,316.62L42.808,316.62" style="fill:none;stroke:#000000;stroke-width:0.625" />
<path d="M37.808,616.1L42.808,616.1" style="fill:none;stroke:#000000;stroke-width:0.625" />
<path d="M42.808,93.205L42.808,840.11" style="fill:none;stroke:#000000;stroke-width:0.625" />
<path d="M600.87,638.6A0,0 0 1 1 600.87,638.6A0,0 0 1 1 600.87,638.6Z" style="fill:#FDDC00" />
<path d="M352.29,759.57A0.0048234,0.0048234 0 1 1 352.28,759.57A0.0048234,0.0048234 0 1 1 352.29,759.57Z" style="fill:#821C00" />
<path d="M353.61,173.06L353.61,173.06A0.0087295,0.0087295 0 1 1 353.6,173.06A0.0087295,0.0087295 0 1 1 353.61,173.06Z" style="fill:#83E400" />
<path d="M469.72,386.78L469.72,386.78A0.11293,0.11293 0 1 1 469.5,386.78A0.11293,0.11293 0 1 1 469.72,386.78Z" style="fill:#BD5601" />
<path d="M601.67,460.99L601.67,460.99A0.15584,0.15584 0 1 1 601.36,460.99A0.15584,0.15584 0 1 1 601.67,460.99Z" style="fill:#FE7E01" />
<path d="M726.55,438.61L726.55,438.61A0.21497,0.21497 0 1 1 726.12,438.61A0.21497,0.21497 0 1 1 726.55,438.61Z" style="fill:#3C7201" />
<path d="M483.41,655.15L483.41,655.15A0.3599,0.3599 0 1 1 482.69,655.15A0.3599,0.3599 0 1 1 483.41,655.15Z" style="fill:#C3E403" />
<path d="M354.38,275.1A0.39291,0.39291 0 1 1 353.6,275.1A0.39291,0.39291 0 1 1 354.38,275.1Z" style="fill:#831A03" />
<path d="M116.28,523.2A0.40594,0.40594 0 1 1 115.47,523.2A0.40594,0.40594 0 1 1 116.28,523.2Z" style="fill:#0C9E03" />
<path d="M104.05,170.61L104.05,170.61A0.40818,0.40818 0 1 1 103.23,170.61A0.40818,0.40818 0 1 1 104.05,170.61Z" style="fill:#06E203" />
<path d="M396.63,519.51A0.43569,0.43569 0 1 1 395.75,519.51A0.43569,0.43569 0 1 1 396.63,519.51Z" style="fill:#989C03" />
<path d="M223.67,743.05L223.67,743.05A0.46905,0.46905 0 1 1 222.73,743.05A0.46905,0.46905 0 1 1 223.67,743.05Z" style="fill:#421303" />
<path d="M493.9,633.08A0.46996,0.46996 0 1 1 492.96,633.08A0.46996,0.46996 0 1 1 493.9,633.08Z" style="fill:#C8D903" />
<path d="M337.66,438.39A0.47324,0.47324 0 1 1 336.71,438.39A0.47324,0.47324 0 1 1 337.66,438.39Z" style="fill:#7B7203" />
<path d="M715.17,419.85L715.17,419.85A0.4979,0.4979 0 1 1 714.17,419.85A0.4979,0.4979 0 1 1 715.17,419.85Z" style="fill:#366804" />
<path d="M724.36,97.912A0.59525,0.59525 0 1 1 723.17,97.912A0.59525,0.59525 0 1 1 724.36,97.912Z" style="fill:#3BBC04" />
<path d="M468.6,156.48L468.6,156.48A0.61852,0.61852 0 1 1 467.36,156.48A0.61852,0.61852 0 1 1 468.6,156.48Z" style="fill:#BCDB05" />
<path d="M605.22,771.72A0.66102,0.66102 0 1 1 603.9,771.72A0.66102,0.66102 0 1 1 605.22,771.72Z" style="fill:#FF2305" />
<path d="M94.298,461.33A0.74202,0.74202 0 1 1 92.814,461.33A0.74202,0.74202 0 1 1 94.298,461.33Z" style="fill:#017E05" />
<path d="M332.78,178.08L332.78,178.08A0.75079,0.75079 0 1 1 331.28,178.08A0.75079,0.75079 0 1 1 332.78,178.08Z" style="fill:#78E606" />
<path d="M735.21,631.57A0.81727,0.81727 0 1 1 733.57,631.57A0.81727,0.81727 0 1 1 735.21,631.57Z" style="fill:#40D806" />
<path d="M520.1,515.93L520.1,515.93A0.87142,0.87142 0 1 1 518.35,515.93A0.87142,0.87142 0 1 1 520.1,515.93Z" style="fill:#D59A06" />
<path d="M89.828,177.16L89.828,177.16A0.93003,0.93003 0 1 1 87.968,177.16A0.93003,0.93003 0 1 1 89.828,177.16Z" style="fill:#FFE607" />
<path d="M277.29,415.45L277.29,415.45A0.96064,0.96064 0 1 1 275.37,415.45A0.96064,0.96064 0 1 1 277.29,415.45Z" style="fill:#5C6507" />
<path d="M217.36,336.56A1.0479,1.0479 0 1 1 215.26,336.56A1.0479,1.0479 0 1 1 217.36,336.56Z" style="fill:#3E3B08" />
<path d="M847.43,385L847.43,385A1.1117,1.1117 0 1 1 845.2,385A1.1117,1.1117 0 1 1 847.43,385Z" style="fill:#785508" />
<path d="M213.91,494.1L213.91,494.1A1.121,1.121 0 1 1 211.67,494.1A1.121,1.121 0 1 1 213.91,494.1Z" style="fill:#3D8E08" />
<path d="M491.39,592.79A1.1326,1.1326 0 1 1 489.13,592.79A1.1326,1.1326 0 1 1 491.39,592.79Z" style="fill:#C6C308" />
<path d="M708.98,425.89L708.98,425.89A1.1844,1.1844 0 1 1 706.61,425.89A1.1844,1.1844 0 1 1 708.98,425.89Z" style="fill:#336B09" />
<path d="M719.85,773.29A1.1851,1.1851 0 1 1 717.48,773.29A1.1851,1.1851 0 1 1 719.85,773.29Z" style="fill:#382309" />
<path d="M859.07,419.36A1.186,1.186 0 1 1 856.7,419.36A1.186,1.186 0 1 1 859.07,419.36Z" style="fill:#7E6709" />
<path d="M722.41,695.16L722.41,695.16A1.1912,1.1912 0 1 1 720.03,695.16A1.1912,1.1912 0 1 1 722.41,695.16Z" style="fill:#3AFA09" />
<path d="M582.07,476.2A1.2029,1.2029 0 1 1 579.66,476.2A1.2029,1.2029 0 1 1 582.07,476.2Z" style="fill:#F38509" />
<path d="M844.93,392.4L844.93,392.4A1.2332,1.2332 0 1 1 842.47,392.4A1.2332,1.2332 0 1 1 844.93,392.4Z" style="fill:#775909" />
<path d="M580.5,480.96A1.2618,1.2618 0 1 1 577.97,480.96A1.2618,1.2618 0 1 1 580.5,480.96Z" style="fill:#F38709" />
<path d="M684.89,636.03A1.3014,1.3014 0 1 1 682.28,636.03A1.3014,1.3014 0 1 1 684.89,636.03Z" style="fill:#27DA0A" />
<path d="M236.02,305.7L236.02,305.7A1.3177,1.3177 0 1 1 233.39,305.7A1.3177,1.3177 0 1 1 236.02,305.7Z" style="fill:#482B0A" />
<path d="M505.96,621.4L505.96,621.4A1.3815,1.3815 0 1 1 503.2,621.4A1.3815,1.3815 0 1 1 505.96,621.4Z" style="fill:#CDD20A" />
<path d="M593.02,695.38L593.02,695.38A1.3949,1.3949 0 1 1 590.23,695.38A1.3949,1.3949 0 1 1 593.02,695.38Z" style="fill:#F9FA0A" />
<path d="M684.52,419.49A1.4039,1.4039 0 1 1 681.72,419.49A1.4039,1.4039 0 1 1 684.52,419.49Z" style="fill:#27670B" />
<path d="M504.18,619.14L504.18,619.14A1.4106,1.4106 0 1 1 501.36,619.14A1.4106,1.4106 0 1 1 504.18,619.14Z" style="fill:#CCD10B" />
<path d="M304.03,424.85A1.5137,1.5137 0 1 1 301,424.85A1.5137,1.5137 0 1 1 304.03,424.85Z" style="fill:#6A6A0B" />
<path d="M861.21,281.55A1.5258,1.5258 0 1 1 858.16,281.55A1.5258,1.5258 0 1 1 861.21,281.55Z" style="fill:#7F1E0B" />
<path d="M564.17,307.58L564.17,307.58A1.5337,1.5337 0 1 1 561.1,307.58A1.5337,1.5337 0 1 1 564.17,307.58Z" style="fill:#EA2C0C" />
<path d="M448.51,565.52A1.5394,1.5394 0 1 1 445.43,565.52A1.5394,1.5394 0 1 1 448.51,565.52Z" style="fill:#B2B40C" />
<path d="M220.54,807.5L220.54,807.5A1.5637,1.5637 0 1 1 217.41,807.5A1.5637,1.5637 0 1 1 220.54,807.5Z" style="fill:#40360C" />
<path d="M609.36,195.35A1.5638,1.5638 0 1 1 606.24,195.35A1.5638,1.5638 0 1 1 609.36,195.35Z" style="fill:#01F00C" />
<path d="M100.19,463.84L100.19,463.84A1.5759,1.5759 0 1 1 97.042,463.84A1.5759,1.5759 0 1 1 100.19,463.84Z" style="fill:#047F0C" />
<path d="M681.43,282.55L681.43,282.55A1.6007,1.6007 0 1 1 678.23,282.55A1.6007,1.6007 0 1 1 681.43,282.55Z" style="fill:#251E0C" />
<path d="M580,605.74A1.6228,1.6228 0 1 1 576.76,605.74A1.6228,1.6228 0 1 1 580,605.74Z" style="fill:#F2CA0C" />
<path d="M842.59,539.58A1.629,1.629 0 1 1 839.33,539.58A1.629,1.629 0 1 1 842.59,539.58Z" style="fill:#75A70C" />
<path d="M829.65,414.68A1.6365,1.6365 0 1 1 826.38,414.68A1.6365,1.6365 0 1 1 829.65,414.68Z" style="fill:#6F650C" />
<path d="M591.88,205.31A1.6777,1.6777 0 1 1 588.53,205.31A1.6777,1.6777 0 1 1 591.88,205.31Z" style="fill:#F8F50D" />
<path d="M375.81,569.1L375.81,569.1A1.7609,1.7609 0 1 1 372.29,569.1A1.7609,1.7609 0 1 1 375.81,569.1Z" style="fill:#8DB60D" />
<path d="M90.027,276.66A1.7783,1.7783 0 1 1 86.47,276.66A1.7783,1.7783 0 1 1 90.027,276.66Z" style="fill:#FF1B0D" />
<path d="M507.4,662.01A1.8217,1.8217 0 1 1 503.75,662.01A1.8217,1.8217 0 1 1 507.4,662.01Z" style="fill:#CEE80E" />
<path d="M506.91,354.65L506.91,354.65A1.8552,1.8552 0 1 1 503.2,354.65A1.8552,1.8552 0 1 1 506.91,354.65Z" style="fill:#CE450E" />
<path d="M91.017,548.32A1.8607,1.8607 0 1 1 87.295,548.32A1.8607,1.8607 0 1 1 91.017,548.32Z" style="fill:#FFAB0E" />
<path d="M649.5,504.7A1.9183,1.9183 0 1 1 645.67,504.7A1.9183,1.9183 0 1 1 649.5,504.7Z" style="fill:#15940E" />
<path d="M168.93,647.24L168.93,647.24A1.9409,1.9409 0 1 1 165.04,647.24A1.9409,1.9409 0 1 1 168.93,647.24Z" style="fill:#26E00F" />
<path d="M646.53,545.21A2.0061,2.0061 0 1 1 642.51,545.21A2.0061,2.0061 0 1 1 646.53,545.21Z" style="fill:#13AA0F" />
<path d="M565.94,660.77A2.0207,2.0207 0 1 1 561.9,660.77A2.0207,2.0207 0 1 1 565.94,660.77Z" style="fill:#EBE70F" />
<path d="M94.693,692.02A2.0945,2.0945 0 1 1 90.504,692.02A2.0945,2.0945 0 1 1 94.693,692.02Z" style="fill:#01F810" />
<path d="M712.76,470.23A2.1021,2.1021 0 1 1 708.56,470.23A2.1021,2.1021 0 1 1 712.76,470.23Z" style="fill:#348210" />
<path d="M743.14,275.16L743.14,275.16A2.1281,2.1281 0 1 1 738.89,275.16A2.1281,2.1281 0 1 1 743.14,275.16Z" style="fill:#431A10" />
<path d="M509.97,333.87A2.1343,2.1343 0 1 1 505.7,333.87A2.1343,2.1343 0 1 1 509.97,333.87Z" style="fill:#CF3A10" />
<path d="M309.27,550.1A2.1849,2.1849 0 1 1 304.9,550.1A2.1849,2.1849 0 1 1 309.27,550.1Z" style="fill:#6CAC11" />
<path d="M517.43,611.8L517.43,611.8A2.1874,2.1874 0 1 1 513.06,611.8A2.1874,2.1874 0 1 1 517.43,611.8Z" style="fill:#D3CD11" />
<path d="M225.81,840.11L225.81,840.11A2.1882,2.1882 0 1 1 221.43,840.11A2.1882,2.1882 0 1 1 225.81,840.11Z" style="fill:#424711" />
<path d="M92.8,463.53A2.2655,2.2655 0 1 1 88.269,463.53A2.2655,2.2655 0 1 1 92.8,463.53Z" style="fill:#007F11" />
<path d="M723.33,131.7A2.2764,2.2764 0 1 1 718.77,131.7A2.2764,2.2764 0 1 1 723.33,131.7Z" style="fill:#39CE11" />
<path d="M514.3,601.31A2.3065,2.3065 0 1 1 509.69,601.31A2.3065,2.3065 0 1 1 514.3,601.31Z" style="fill:#D1C811" />
<path d="M534.29,368.32L534.29,368.32A2.3145,2.3145 0 1 1 529.67,368.32A2.3145,2.3145 0 1 1 534.29,368.32Z" style="fill:#DB4C12" />
<path d="M364.39,682.6A2.3452,2.3452 0 1 1 359.7,682.6A2.3452,2.3452 0 1 1 364.39,682.6Z" style="fill:#87F312" />
<path d="M137.08,295.33L137.08,295.33A2.396,2.396 0 1 1 132.29,295.33A2.396,2.396 0 1 1 137.08,295.33Z" style="fill:#162512" />
<path d="M525.98,661.57A2.3988,2.3988 0 1 1 521.19,661.57A2.3988,2.3988 0 1 1 525.98,661.57Z" style="fill:#D7E812" />
<path d="M864.75,422.14L864.75,422.14A2.4002,2.4002 0 1 1 859.95,422.14A2.4002,2.4002 0 1 1 864.75,422.14Z" style="fill:#806912" />
<path d="M626.9,610.8L626.9,610.8A2.4015,2.4015 0 1 1 622.1,610.8A2.4015,2.4015 0 1 1 626.9,610.8Z" style="fill:#09CD12" />
<path d="M106.35,624.43L106.35,624.43A2.4263,2.4263 0 1 1 101.5,624.43A2.4263,2.4263 0 1 1 106.35,624.43Z" style="fill:#06D412" />
<path d="M574.57,668.46L574.57,668.46A2.4392,2.4392 0 1 1 569.7,668.46A2.4392,2.4392 0 1 1 574.57,668.46Z" style="fill:#EFEB12" />
<path d="M105.19,379.95A2.4694,2.4694 0 1 1 100.25,379.95A2.4694,2.4694 0 1 1 105.19,379.95Z" style="fill:#065213" />
<path d="M763.32,650.64L763.32,650.64A2.492,2.492 0 1 1 758.33,650.64A2.492,2.492 0 1 1 763.32,650.64Z" style="fill:#4DE213" />
<path d="M671.21,429.4A2.5131,2.5131 0 1 1 666.19,429.4A2.5131,2.5131 0 1 1 671.21,429.4Z" style="fill:#1F6D13" />
<path d="M161.79,517.15L161.79,517.15A2.5189,2.5189 0 1 1 156.75,517.15A2.5189,2.5189 0 1 1 161.79,517.15Z" style="fill:#229B13" />
<path d="M291.73,278.07A2.5544,2.5544 0 1 1 286.62,278.07A2.5544,2.5544 0 1 1 291.73,278.07Z" style="fill:#631C13" />
<path d="M499.84,488.18L499.84,488.18A2.5655,2.5655 0 1 1 494.71,488.18A2.5655,2.5655 0 1 1 499.84,488.18Z" style="fill:#CA8B13" />
<path d="M415.48,357.45L415.48,357.45A2.6032,2.6032 0 1 1 410.27,357.45A2.6032,2.6032 0 1 1 415.48,357.45Z" style="fill:#A14614" />
<path d="M397.76,662.57L397.76,662.57A2.6425,2.6425 0 1 1 392.48,662.57A2.6425,2.6425 0 1 1 397.76,662.57Z" style="fill:#98E814" />
<path d="M317.21,564.01A2.6584,2.6584 0 1 1 311.89,564.01A2.6584,2.6584 0 1 1 317.21,564.01Z" style="fill:#70B414" />
<path d="M589.03,222.89A2.6625,2.6625 0 1 1 583.7,222.89A2.6625,2.6625 0 1 1 589.03,222.89Z" style="fill:#F6FE14" />
<path d="M344.59,814.09A2.6662,2.6662 0 1 1 339.25,814.09A2.6662,2.6662 0 1 1 344.59,814.09Z" style="fill:#7D3914" />
<path d="M622.37,671.25L622.37,671.25A2.6718,2.6718 0 1 1 617.02,671.25A2.6718,2.6718 0 1 1 622.37,671.25Z" style="fill:#07ED14" />
<path d="M405.3,575.35L405.3,575.35A2.6766,2.6766 0 1 1 399.95,575.35A2.6766,2.6766 0 1 1 405.3,575.35Z" style="fill:#9BBA14" />
<path d="M515.63,162.91A2.6806,2.6806 0 1 1 510.26,162.91A2.6806,2.6806 0 1 1 515.63,162.91Z" style="fill:#D2DE14" />
<path d="M627.1,348.06A2.7296,2.7296 0 1 1 621.64,348.06A2.7296,2.7296 0 1 1 627.1,348.06Z" style="fill:#094115" />
<path d="M828.37,418.72L828.37,418.72A2.7362,2.7362 0 1 1 822.89,418.72A2.7362,2.7362 0 1 1 828.37,418.72Z" style="fill:#6E6715" />
<path d="M647.37,553.01A2.7624,2.7624 0 1 1 641.84,553.01A2.7624,2.7624 0 1 1 647.37,553.01Z" style="fill:#13AE15" />
<path d="M328.77,744.12L328.77,744.12A2.7667,2.7667 0 1 1 323.24,744.12A2.7667,2.7667 0 1 1 328.77,744.12Z" style="fill:#751415" />
<path d="M398.73,663.34L398.73,663.34A2.7679,2.7679 0 1 1 393.19,663.34A2.7679,2.7679 0 1 1 398.73,663.34Z" style="fill:#98E915" />
<path d="M262.07,498.92L262.07,498.92A2.7834,2.7834 0 1 1 256.5,498.92A2.7834,2.7834 0 1 1 262.07,498.92Z" style="fill:#549115" />
<path d="M864.65,425.91L864.65,425.91A2.8312,2.8312 0 1 1 858.99,425.91A2.8312,2.8312 0 1 1 864.65,425.91Z" style="fill:#806B15" />
<path d="M534.49,348.29A2.8559,2.8559 0 1 1 528.78,348.29A2.8559,2.8559 0 1 1 534.49,348.29Z" style="fill:#DB4116" />
<path d="M547.35,663.78L547.35,663.78A2.9009,2.9009 0 1 1 541.54,663.78A2.9009,2.9009 0 1 1 547.35,663.78Z" style="fill:#E1E916" />
<path d="M395.03,338.12L395.03,338.12A2.9155,2.9155 0 1 1 389.2,338.12A2.9155,2.9155 0 1 1 395.03,338.12Z" style="fill:#963C16" />
<path d="M663.95,548.98A2.9422,2.9422 0 1 1 658.06,548.98A2.9422,2.9422 0 1 1 663.95,548.98Z" style="fill:#1BAC16" />
<path d="M287.57,305.89A2.9661,2.9661 0 1 1 281.63,305.89A2.9661,2.9661 0 1 1 287.57,305.89Z" style="fill:#612B17" />
<path d="M746.62,621.1L746.62,621.1A2.9783,2.9783 0 1 1 740.66,621.1A2.9783,2.9783 0 1 1 746.62,621.1Z" style="fill:#45D217" />
<path d="M691.8,495.23A2.9954,2.9954 0 1 1 685.81,495.23A2.9954,2.9954 0 1 1 691.8,495.23Z" style="fill:#298F17" />
<path d="M401.34,334.12L401.34,334.12A2.9978,2.9978 0 1 1 395.34,334.12A2.9978,2.9978 0 1 1 401.34,334.12Z" style="fill:#993A17" />
<path d="M239.28,188.57L239.28,188.57A3.0259,3.0259 0 1 1 233.23,188.57A3.0259,3.0259 0 1 1 239.28,188.57Z" style="fill:#48EC17" />
<path d="M304.16,556.19A3.0366,3.0366 0 1 1 298.09,556.19A3.0366,3.0366 0 1 1 304.16,556.19Z" style="fill:#69AF17" />
<path d="M372.75,191.96A3.0367,3.0367 0 1 1 366.67,191.96A3.0367,3.0367 0 1 1 372.75,191.96Z" style="fill:#8BEE17" />
<path d="M309.17,560.62A3.084,3.084 0 1 1 303,560.62A3.084,3.084 0 1 1 309.17,560.62Z" style="fill:#6BB217" />
<path d="M276.59,497.06A3.1132,3.1132 0 1 1 270.36,497.06A3.1132,3.1132 0 1 1 276.59,497.06Z" style="fill:#5B9018" />
<path d="M615.18,718.25A3.1408,3.1408 0 1 1 608.9,718.25A3.1408,3.1408 0 1 1 615.18,718.25Z" style="fill:#030618" />
<path d="M227.93,838.87L227.93,838.87A3.1796,3.1796 0 1 1 221.57,838.87A3.1796,3.1796 0 1 1 227.93,838.87Z" style="fill:#434718" />
<path d="M301.35,556A3.1798,3.1798 0 1 1 294.99,556A3.1798,3.1798 0 1 1 301.35,556Z" style="fill:#67AF18" />
<path d="M449.26,775.48A3.2183,3.2183 0 1 1 442.82,775.48A3.2183,3.2183 0 1 1 449.26,775.48Z" style="fill:#B12518" />
<path d="M201.26,658.6L201.26,658.6A3.2349,3.2349 0 1 1 194.79,658.6A3.2349,3.2349 0 1 1 201.26,658.6Z" style="fill:#35E619" />
<path d="M507.14,448.42L507.14,448.42A3.2651,3.2651 0 1 1 500.61,448.42A3.2651,3.2651 0 1 1 507.14,448.42Z" style="fill:#CD7719" />
<path d="M508.73,255.74A3.3428,3.3428 0 1 1 502.04,255.74A3.3428,3.3428 0 1 1 508.73,255.74Z" style="fill:#CE1019" />
<path d="M198.27,275.55A3.3465,3.3465 0 1 1 191.57,275.55A3.3465,3.3465 0 1 1 198.27,275.55Z" style="fill:#341B19" />
<path d="M242.86,354.71L242.86,354.71A3.3497,3.3497 0 1 1 236.16,354.71A3.3497,3.3497 0 1 1 242.86,354.71Z" style="fill:#4A4519" />
<path d="M401.76,450.58A3.3548,3.3548 0 1 1 395.06,450.58A3.3548,3.3548 0 1 1 401.76,450.58Z" style="fill:#997819" />
<path d="M310.46,566.23A3.395,3.395 0 1 1 303.67,566.23A3.395,3.395 0 1 1 310.46,566.23Z" style="fill:#6CB51A" />
<path d="M552.19,478.79L552.19,478.79A3.4043,3.4043 0 1 1 545.38,478.79A3.4043,3.4043 0 1 1 552.19,478.79Z" style="fill:#E3861A" />
<path d="M251.25,470.4L251.25,470.4A3.4953,3.4953 0 1 1 244.26,470.4A3.4953,3.4953 0 1 1 251.25,470.4Z" style="fill:#4E821B" />
<path d="M815.46,282.43L815.46,282.43A3.4969,3.4969 0 1 1 808.46,282.43A3.4969,3.4969 0 1 1 815.46,282.43Z" style="fill:#671E1B" />
<path d="M313.77,608.51A3.4982,3.4982 0 1 1 306.77,608.51A3.4982,3.4982 0 1 1 313.77,608.51Z" style="fill:#6DCB1B" />
<path d="M847.38,738.7A3.5941,3.5941 0 1 1 840.2,738.7A3.5941,3.5941 0 1 1 847.38,738.7Z" style="fill:#77111B" />
<path d="M723.78,816.79L723.78,816.79A3.614,3.614 0 1 1 716.55,816.79A3.614,3.614 0 1 1 723.78,816.79Z" style="fill:#393B1B" />
<path d="M448.28,195.94A3.6464,3.6464 0 1 1 440.99,195.94A3.6464,3.6464 0 1 1 448.28,195.94Z" style="fill:#B0F01C" />
<path d="M849.52,696.35A3.6557,3.6557 0 1 1 842.21,696.35A3.6557,3.6557 0 1 1 849.52,696.35Z" style="fill:#78FA1C" />
<path d="M497.62,213.53L497.62,213.53A3.6932,3.6932 0 1 1 490.23,213.53A3.6932,3.6932 0 1 1 497.62,213.53Z" style="fill:#C8F91C" />
<path d="M486.99,132.07L486.99,132.07A3.7283,3.7283 0 1 1 479.53,132.07A3.7283,3.7283 0 1 1 486.99,132.07Z" style="fill:#C3CE1C" />
<path d="M112.87,273.83A3.7506,3.7506 0 1 1 105.37,273.83A3.7506,3.7506 0 1 1 112.87,273.83Z" style="fill:#091A1D" />
<path d="M717.97,721.43L717.97,721.43A3.7643,3.7643 0 1 1 710.44,721.43A3.7643,3.7643 0 1 1 717.97,721.43Z" style="fill:#36081D" />
<path d="M439.9,254.5A3.7934,3.7934 0 1 1 432.31,254.5A3.7934,3.7934 0 1 1 439.9,254.5Z" style="fill:#AC0F1D" />
<path d="M845.56,324.01L845.56,324.01A3.8034,3.8034 0 1 1 837.96,324.01A3.8034,3.8034 0 1 1 845.56,324.01Z" style="fill:#76341D" />
<path d="M665.98,483.51A3.8684,3.8684 0 1 1 658.24,483.51A3.8684,3.8684 0 1 1 665.98,483.51Z" style="fill:#1C891D" />
<path d="M543.49,454.81L543.49,454.81A3.8841,3.8841 0 1 1 535.72,454.81A3.8841,3.8841 0 1 1 543.49,454.81Z" style="fill:#DF7A1E" />
<path d="M509.75,460.15L509.75,460.15A3.8992,3.8992 0 1 1 501.95,460.15A3.8992,3.8992 0 1 1 509.75,460.15Z" style="fill:#CE7D1E" />
<path d="M214.3,244.07A3.9195,3.9195 0 1 1 206.46,244.07A3.9195,3.9195 0 1 1 214.3,244.07Z" style="fill:#3C0A1E" />
<path d="M122.66,753.64L122.66,753.64A3.9234,3.9234 0 1 1 114.81,753.64A3.9234,3.9234 0 1 1 122.66,753.64Z" style="fill:#0E191E" />
<path d="M96.815,826.2A3.9565,3.9565 0 1 1 88.902,826.2A3.9565,3.9565 0 1 1 96.815,826.2Z" style="fill:#01401E" />
<path d="M106.86,354.25A3.9661,3.9661 0 1 1 98.933,354.25A3.9661,3.9661 0 1 1 106.86,354.25Z" style="fill:#06451E" />
<path d="M764.31,544.67L764.31,544.67A3.9922,3.9922 0 1 1 756.32,544.67A3.9922,3.9922 0 1 1 764.31,544.67Z" style="fill:#4DA91E" />
<path d="M543.03,457.6A4.0049,4.0049 0 1 1 535.02,457.6A4.0049,4.0049 0 1 1 543.03,457.6Z" style="fill:#DF7C1E" />
<path d="M332.27,727.34A4.0085,4.0085 0 1 1 324.26,727.34A4.0085,4.0085 0 1 1 332.27,727.34Z" style="fill:#760B1E" />
<path d="M717.48,783.16A4.0146,4.0146 0 1 1 709.45,783.16A4.0146,4.0146 0 1 1 717.48,783.16Z" style="fill:#36291F" />
<path d="M106.5,674.57L106.5,674.57A4.0213,4.0213 0 1 1 98.459,674.57A4.0213,4.0213 0 1 1 106.5,674.57Z" style="fill:#06EF1F" />
<path d="M91.251,566.85L91.251,566.85A4.0646,4.0646 0 1 1 83.122,566.85A4.0646,4.0646 0 1 1 91.251,566.85Z" style="fill:#FEB51F" />
<path d="M751.28,373.79A4.0773,4.0773 0 1 1 743.13,373.79A4.0773,4.0773 0 1 1 751.28,373.79Z" style="fill:#474F1F" />
<path d="M466.79,807.51A4.0995,4.0995 0 1 1 458.59,807.51A4.0995,4.0995 0 1 1 466.79,807.51Z" style="fill:#B9361F" />
<path d="M676.66,619.87L676.66,619.87A4.1083,4.1083 0 1 1 668.45,619.87A4.1083,4.1083 0 1 1 676.66,619.87Z" style="fill:#21D21F" />
<path d="M756.81,381.37A4.1155,4.1155 0 1 1 748.58,381.37A4.1155,4.1155 0 1 1 756.81,381.37Z" style="fill:#49531F" />
<path d="M297.73,182.66L297.73,182.66A4.1435,4.1435 0 1 1 289.45,182.66A4.1435,4.1435 0 1 1 297.73,182.66Z" style="fill:#65E920" />
<path d="M690.75,769.85A4.2511,4.2511 0 1 1 682.25,769.85A4.2511,4.2511 0 1 1 690.75,769.85Z" style="fill:#282220" />
<path d="M626.78,683.54L626.78,683.54A4.2659,4.2659 0 1 1 618.25,683.54A4.2659,4.2659 0 1 1 626.78,683.54Z" style="fill:#08F420" />
<path d="M250.57,333.28L250.57,333.28A4.3054,4.3054 0 1 1 241.96,333.28A4.3054,4.3054 0 1 1 250.57,333.28Z" style="fill:#4D3921" />
<path d="M199.15,377.42L199.15,377.42A4.3076,4.3076 0 1 1 190.53,377.42A4.3076,4.3076 0 1 1 199.15,377.42Z" style="fill:#345121" />
<path d="M815.57,421.42L815.57,421.42A4.3174,4.3174 0 1 1 806.93,421.42A4.3174,4.3174 0 1 1 815.57,421.42Z" style="fill:#666821" />
<path d="M309.95,336.62L309.95,336.62A4.3523,4.3523 0 1 1 301.24,336.62A4.3523,4.3523 0 1 1 309.95,336.62Z" style="fill:#6B3B21" />
<path d="M818.74,422.06A4.3587,4.3587 0 1 1 810.03,422.06A4.3587,4.3587 0 1 1 818.74,422.06Z" style="fill:#686921" />
<path d="M203.7,367.95A4.3941,4.3941 0 1 1 194.91,367.95A4.3941,4.3941 0 1 1 203.7,367.95Z" style="fill:#364C21" />
<path d="M580.56,722.2A4.4159,4.4159 0 1 1 571.73,722.2A4.4159,4.4159 0 1 1 580.56,722.2Z" style="fill:#F10822" />
<path d="M591.73,133.62L591.73,133.62A4.4716,4.4716 0 1 1 582.78,133.62A4.4716,4.4716 0 1 1 591.73,133.62Z" style="fill:#F7CF22" />
<path d="M182.49,166.03A4.4927,4.4927 0 1 1 173.5,166.03A4.4927,4.4927 0 1 1 182.49,166.03Z" style="fill:#2BE022" />
<path d="M256.58,266.44A4.5021,4.5021 0 1 1 247.58,266.44A4.5021,4.5021 0 1 1 256.58,266.44Z" style="fill:#501622" />
<path d="M152.52,538.41A4.5322,4.5322 0 1 1 143.46,538.41A4.5322,4.5322 0 1 1 152.52,538.41Z" style="fill:#1CA623" />
<path d="M302.04,607.7A4.5577,4.5577 0 1 1 292.93,607.7A4.5577,4.5577 0 1 1 302.04,607.7Z" style="fill:#67CB23" />
<path d="M274.7,270.25A4.5729,4.5729 0 1 1 265.56,270.25A4.5729,4.5729 0 1 1 274.7,270.25Z" style="fill:#591823" />
<path d="M206.05,331.13L206.05,331.13A4.5834,4.5834 0 1 1 196.88,331.13A4.5834,4.5834 0 1 1 206.05,331.13Z" style="fill:#373823" />
<path d="M164.66,510.01L164.66,510.01A4.6235,4.6235 0 1 1 155.41,510.01A4.6235,4.6235 0 1 1 164.66,510.01Z" style="fill:#229723" />
<path d="M702.38,341.35L702.38,341.35A4.6255,4.6255 0 1 1 693.13,341.35A4.6255,4.6255 0 1 1 702.38,341.35Z" style="fill:#2E3E23" />
<path d="M390.13,157.3L390.13,157.3A4.6334,4.6334 0 1 1 380.86,157.3A4.6334,4.6334 0 1 1 390.13,157.3Z" style="fill:#93DB23" />
<path d="M124.71,277.35A4.6349,4.6349 0 1 1 115.44,277.35A4.6349,4.6349 0 1 1 124.71,277.35Z" style="fill:#0E1C23" />
<path d="M702.19,590.75A4.6522,4.6522 0 1 1 692.89,590.75A4.6522,4.6522 0 1 1 702.19,590.75Z" style="fill:#2EC223" />
<path d="M173.96,754.2L173.96,754.2A4.6774,4.6774 0 1 1 164.61,754.2A4.6774,4.6774 0 1 1 173.96,754.2Z" style="fill:#271924" />
<path d="M449.64,707.02A4.7286,4.7286 0 1 1 440.18,707.02A4.7286,4.7286 0 1 1 449.64,707.02Z" style="fill:#B10024" />
<path d="M653.81,605.89A4.7405,4.7405 0 1 1 644.33,605.89A4.7405,4.7405 0 1 1 653.81,605.89Z" style="fill:#16CA24" />
<path d="M194.4,438.57L194.4,438.57A4.7572,4.7572 0 1 1 184.89,438.57A4.7572,4.7572 0 1 1 194.4,438.57Z" style="fill:#317224" />
<path d="M201,455.98L201,455.98A4.8005,4.8005 0 1 1 191.4,455.98A4.8005,4.8005 0 1 1 201,455.98Z" style="fill:#347B25" />
<path d="M826.33,629.45A4.8539,4.8539 0 1 1 816.62,629.45A4.8539,4.8539 0 1 1 826.33,629.45Z" style="fill:#6CD725" />
<path d="M109.65,593.53A4.9258,4.9258 0 1 1 99.8,593.53A4.9258,4.9258 0 1 1 109.65,593.53Z" style="fill:#07C326" />
<path d="M269.11,364.81A4.9457,4.9457 0 1 1 259.21,364.81A4.9457,4.9457 0 1 1 269.11,364.81Z" style="fill:#564A26" />
<path d="M687.69,322.2A4.9501,4.9501 0 1 1 677.79,322.2A4.9501,4.9501 0 1 1 687.69,322.2Z" style="fill:#263326" />
<path d="M103.11,832.28A4.9539,4.9539 0 1 1 93.204,832.28A4.9539,4.9539 0 1 1 103.11,832.28Z" style="fill:#034326" />
<path d="M869.16,660.79A5.0393,5.0393 0 1 1 859.08,660.79A5.0393,5.0393 0 1 1 869.16,660.79Z" style="fill:#81E726" />
<path d="M194.83,620.66A5.0438,5.0438 0 1 1 184.74,620.66A5.0438,5.0438 0 1 1 194.83,620.66Z" style="fill:#31D226" />
<path d="M86.05,550.66L86.05,550.66A5.0797,5.0797 0 1 1 75.891,550.66A5.0797,5.0797 0 1 1 86.05,550.66Z" style="fill:#FBAD27" />
<path d="M182.12,165.32L182.12,165.32A5.1124,5.1124 0 1 1 171.89,165.32A5.1124,5.1124 0 1 1 182.12,165.32Z" style="fill:#2BE027" />
<path d="M212.66,151.12L212.66,151.12A5.1127,5.1127 0 1 1 202.44,151.12A5.1127,5.1127 0 1 1 212.66,151.12Z" style="fill:#3AD827" />
<path d="M430.41,156.55L430.41,156.55A5.1782,5.1782 0 1 1 420.05,156.55A5.1782,5.1782 0 1 1 430.41,156.55Z" style="fill:#A7DB27" />
<path d="M325.28,244.47A5.2284,5.2284 0 1 1 314.83,244.47A5.2284,5.2284 0 1 1 325.28,244.47Z" style="fill:#720A28" />
<path d="M753.98,608.36L753.98,608.36A5.2716,5.2716 0 1 1 743.44,608.36A5.2716,5.2716 0 1 1 753.98,608.36Z" style="fill:#47CB28" />
<path d="M693.41,600.93L693.41,600.93A5.2934,5.2934 0 1 1 682.82,600.93A5.2934,5.2934 0 1 1 693.41,600.93Z" style="fill:#29C728" />
<path d="M427.91,249.23L427.91,249.23A5.3011,5.3011 0 1 1 417.31,249.23A5.3011,5.3011 0 1 1 427.91,249.23Z" style="fill:#A50C28" />
<path d="M735.56,103.67A5.3338,5.3338 0 1 1 724.89,103.67A5.3338,5.3338 0 1 1 735.56,103.67Z" style="fill:#3EBF29" />
<path d="M762.05,555.27L762.05,555.27A5.3457,5.3457 0 1 1 751.36,555.27A5.3457,5.3457 0 1 1 762.05,555.27Z" style="fill:#4BAF29" />
<path d="M594.44,96.724L594.44,96.724A5.3582,5.3582 0 1 1 583.73,96.724A5.3582,5.3582 0 1 1 594.44,96.724Z" style="fill:#F8BB29" />
<path d="M437.9,200.46L437.9,200.46A5.3891,5.3891 0 1 1 427.12,200.46A5.3891,5.3891 0 1 1 437.9,200.46Z" style="fill:#AAF229" />
<path d="M515.54,729.4A5.3901,5.3901 0 1 1 504.76,729.4A5.3901,5.3901 0 1 1 515.54,729.4Z" style="fill:#D00C29" />
<path d="M871.01,272.61A5.4067,5.4067 0 1 1 860.2,272.61A5.4067,5.4067 0 1 1 871.01,272.61Z" style="fill:#821929" />
<path d="M545.34,775.5L545.34,775.5A5.4506,5.4506 0 1 1 534.44,775.5A5.4506,5.4506 0 1 1 545.34,775.5Z" style="fill:#DF252A" />
<path d="M519.18,691.37A5.4604,5.4604 0 1 1 508.26,691.37A5.4604,5.4604 0 1 1 519.18,691.37Z" style="fill:#D2F82A" />
<path d="M865.69,740.34A5.583,5.583 0 1 1 854.53,740.34A5.583,5.583 0 1 1 865.69,740.34Z" style="fill:#7F122B" />
<path d="M872.94,547.99L872.94,547.99A5.5882,5.5882 0 1 1 861.77,547.99A5.5882,5.5882 0 1 1 872.94,547.99Z" style="fill:#82AB2B" />
<path d="M286.26,666.72A5.5893,5.5893 0 1 1 275.08,666.72A5.5893,5.5893 0 1 1 286.26,666.72Z" style="fill:#5FEB2B" />
<path d="M197.88,562.23L197.88,562.23A5.6357,5.6357 0 1 1 186.6,562.23A5.6357,5.6357 0 1 1 197.88,562.23Z" style="fill:#32B32B" />
<path d="M671.1,329.85A5.6764,5.6764 0 1 1 659.75,329.85A5.6764,5.6764 0 1 1 671.1,329.85Z" style="fill:#1E382B" />
<path d="M549.17,194.95A5.7176,5.7176 0 1 1 537.73,194.95A5.7176,5.7176 0 1 1 549.17,194.95Z" style="fill:#E1EF2C" />
<path d="M523.45,778.24A5.7338,5.7338 0 1 1 511.99,778.24A5.7338,5.7338 0 1 1 523.45,778.24Z" style="fill:#D4262C" />
<path d="M628.63,709.21L628.63,709.21A5.7713,5.7713 0 1 1 617.09,709.21A5.7713,5.7713 0 1 1 628.63,709.21Z" style="fill:#08012C" />
<path d="M865.13,256.35A5.802,5.802 0 1 1 853.53,256.35A5.802,5.802 0 1 1 865.13,256.35Z" style="fill:#7E102C" />
<path d="M754.43,354.21L754.43,354.21A5.8362,5.8362 0 1 1 742.75,354.21A5.8362,5.8362 0 1 1 754.43,354.21Z" style="fill:#47452C" />
<path d="M714.39,713.94L714.39,713.94A5.857,5.857 0 1 1 702.67,713.94A5.857,5.857 0 1 1 714.39,713.94Z" style="fill:#33042D" />
<path d="M684.53,350.35A5.8626,5.8626 0 1 1 672.8,350.35A5.8626,5.8626 0 1 1 684.53,350.35Z" style="fill:#24432D" />
<path d="M108.01,707.01A5.8885,5.8885 0 1 1 96.234,707.01A5.8885,5.8885 0 1 1 108.01,707.01Z" style="fill:#05002D" />
<path d="M782.75,430A5.937,5.937 0 1 1 770.87,430A5.937,5.937 0 1 1 782.75,430Z" style="fill:#556D2D" />
<path d="M871.89,495.15A5.9696,5.9696 0 1 1 859.95,495.15A5.9696,5.9696 0 1 1 871.89,495.15Z" style="fill:#828F2E" />
<path d="M287.08,343.32A5.9761,5.9761 0 1 1 275.13,343.32A5.9761,5.9761 0 1 1 287.08,343.32Z" style="fill:#5F3F2E" />
<path d="M254.34,739.22A6.0086,6.0086 0 1 1 242.32,739.22A6.0086,6.0086 0 1 1 254.34,739.22Z" style="fill:#4E112E" />
<path d="M772.85,623.54A6.0285,6.0285 0 1 1 760.79,623.54A6.0285,6.0285 0 1 1 772.85,623.54Z" style="fill:#50D32E" />
<path d="M197.46,368.5A6.0301,6.0301 0 1 1 185.4,368.5A6.0301,6.0301 0 1 1 197.46,368.5Z" style="fill:#324C2E" />
<path d="M572.25,224.52A6.0534,6.0534 0 1 1 560.14,224.52A6.0534,6.0534 0 1 1 572.25,224.52Z" style="fill:#ECFF2E" />
<path d="M93.709,726.97L93.709,726.97A6.0673,6.0673 0 1 1 81.574,726.97A6.0673,6.0673 0 1 1 93.709,726.97Z" style="fill:#FE0B2E" />
<path d="M672.23,186.84L672.23,186.84A6.0709,6.0709 0 1 1 660.09,186.84A6.0709,6.0709 0 1 1 672.23,186.84Z" style="fill:#1EEB2E" />
<path d="M806.93,389.69A6.0808,6.0808 0 1 1 794.77,389.69A6.0808,6.0808 0 1 1 806.93,389.69Z" style="fill:#61582E" />
<path d="M386.36,213.22L386.36,213.22A6.0952,6.0952 0 1 1 374.17,213.22A6.0952,6.0952 0 1 1 386.36,213.22Z" style="fill:#90F92E" />
<path d="M91.961,255.74A6.1085,6.1085 0 1 1 79.744,255.74A6.1085,6.1085 0 1 1 91.961,255.74Z" style="fill:#FD102F" />
<path d="M201.01,603.22L201.01,603.22A6.1212,6.1212 0 1 1 188.76,603.22A6.1212,6.1212 0 1 1 201.01,603.22Z" style="fill:#34C92F" />
<path d="M312.88,254.12A6.1489,6.1489 0 1 1 300.58,254.12A6.1489,6.1489 0 1 1 312.88,254.12Z" style="fill:#6C0F2F" />
<path d="M245.21,210.49A6.1714,6.1714 0 1 1 232.87,210.49A6.1714,6.1714 0 1 1 245.21,210.49Z" style="fill:#4AF82F" />
<path d="M715.56,786.66L715.56,786.66A6.2202,6.2202 0 1 1 703.12,786.66A6.2202,6.2202 0 1 1 715.56,786.66Z" style="fill:#342B2F" />
<path d="M194.51,480.43L194.51,480.43A6.2276,6.2276 0 1 1 182.06,480.43A6.2276,6.2276 0 1 1 194.51,480.43Z" style="fill:#30872F" />
<path d="M187.6,163.11A6.2327,6.2327 0 1 1 175.13,163.11A6.2327,6.2327 0 1 1 187.6,163.11Z" style="fill:#2DDE30" />
<path d="M129.14,308.1A6.233,6.233 0 1 1 116.68,308.1A6.233,6.233 0 1 1 129.14,308.1Z" style="fill:#102C30" />
<path d="M666.13,262.6L666.13,262.6A6.243,6.243 0 1 1 653.64,262.6A6.243,6.243 0 1 1 666.13,262.6Z" style="fill:#1B1430" />
<path d="M554.59,199.4A6.2848,6.2848 0 1 1 542.02,199.4A6.2848,6.2848 0 1 1 554.59,199.4Z" style="fill:#E3F230" />
<path d="M708.17,779.6A6.3171,6.3171 0 1 1 695.53,779.6A6.3171,6.3171 0 1 1 708.17,779.6Z" style="fill:#302730" />
<path d="M840.63,456.5L840.63,456.5A6.3752,6.3752 0 1 1 827.88,456.5A6.3752,6.3752 0 1 1 840.63,456.5Z" style="fill:#727B31" />
<path d="M534.96,691.09A6.4221,6.4221 0 1 1 522.11,691.09A6.4221,6.4221 0 1 1 534.96,691.09Z" style="fill:#D9F831" />
<path d="M110.52,688.03L110.52,688.03A6.4279,6.4279 0 1 1 97.668,688.03A6.4279,6.4279 0 1 1 110.52,688.03Z" style="fill:#06F631" />
<path d="M787.44,501.95L787.44,501.95A6.4622,6.4622 0 1 1 774.52,501.95A6.4622,6.4622 0 1 1 787.44,501.95Z" style="fill:#579331" />
<path d="M707.92,246.28A6.483,6.483 0 1 1 694.95,246.28A6.483,6.483 0 1 1 707.92,246.28Z" style="fill:#300B31" />
<path d="M498.56,799.2L498.56,799.2A6.4881,6.4881 0 1 1 485.58,799.2A6.4881,6.4881 0 1 1 498.56,799.2Z" style="fill:#C73131" />
<path d="M394.58,234.47L394.58,234.47A6.5387,6.5387 0 1 1 381.5,234.47A6.5387,6.5387 0 1 1 394.58,234.47Z" style="fill:#940532" />
<path d="M246.38,213.49L246.38,213.49A6.5621,6.5621 0 1 1 233.26,213.49A6.5621,6.5621 0 1 1 246.38,213.49Z" style="fill:#4AF932" />
<path d="M299.61,673.54L299.61,673.54A6.5813,6.5813 0 1 1 286.45,673.54A6.5813,6.5813 0 1 1 299.61,673.54Z" style="fill:#65EE32" />
<path d="M747.02,722.4L747.02,722.4A6.5974,6.5974 0 1 1 733.83,722.4A6.5974,6.5974 0 1 1 747.02,722.4Z" style="fill:#430832" />
<path d="M723.51,827.24A6.6103,6.6103 0 1 1 710.29,827.24A6.6103,6.6103 0 1 1 723.51,827.24Z" style="fill:#374032" />
<path d="M429.04,153.02L429.04,153.02A6.6318,6.6318 0 1 1 415.78,153.02A6.6318,6.6318 0 1 1 429.04,153.02Z" style="fill:#A5D933" />
<path d="M830.24,497.03A6.6353,6.6353 0 1 1 816.96,497.03A6.6353,6.6353 0 1 1 830.24,497.03Z" style="fill:#6D9033" />
<path d="M134.69,500.53A6.7071,6.7071 0 1 1 121.28,500.53A6.7071,6.7071 0 1 1 134.69,500.53Z" style="fill:#129233" />
<path d="M191.67,481.51L191.67,481.51A6.8142,6.8142 0 1 1 178.04,481.51A6.8142,6.8142 0 1 1 191.67,481.51Z" style="fill:#2F8834" />
<path d="M173.14,499.47A6.879,6.879 0 1 1 159.38,499.47A6.879,6.879 0 1 1 173.14,499.47Z" style="fill:#259134" />
<path d="M641.91,688.08A6.9158,6.9158 0 1 1 628.08,688.08A6.9158,6.9158 0 1 1 641.91,688.08Z" style="fill:#0EF635" />
<path d="M251.84,202.58A6.923,6.923 0 1 1 238,202.58A6.923,6.923 0 1 1 251.84,202.58Z" style="fill:#4DF435" />
<path d="M758.93,345.23A6.9568,6.9568 0 1 1 745.02,345.23A6.9568,6.9568 0 1 1 758.93,345.23Z" style="fill:#494035" />
<path d="M784.01,383.12A6.9668,6.9668 0 1 1 770.07,383.12A6.9668,6.9668 0 1 1 784.01,383.12Z" style="fill:#555435" />
<path d="M197.87,572.82L197.87,572.82A6.9869,6.9869 0 1 1 183.9,572.82A6.9869,6.9869 0 1 1 197.87,572.82Z" style="fill:#32B835" />
<path d="M847.14,246.9L847.14,246.9A7.0371,7.0371 0 1 1 833.07,246.9A7.0371,7.0371 0 1 1 847.14,246.9Z" style="fill:#750B36" />
<path d="M556.19,206.41L556.19,206.41A7.0477,7.0477 0 1 1 542.09,206.41A7.0477,7.0477 0 1 1 556.19,206.41Z" style="fill:#E4F636" />
<path d="M132.96,769.62A7.0544,7.0544 0 1 1 118.86,769.62A7.0544,7.0544 0 1 1 132.96,769.62Z" style="fill:#112236" />
<path d="M819.36,431.83A7.0772,7.0772 0 1 1 805.2,431.83A7.0772,7.0772 0 1 1 819.36,431.83Z" style="fill:#676E36" />
<path d="M432.58,150.94L432.58,150.94A7.1748,7.1748 0 1 1 418.23,150.94A7.1748,7.1748 0 1 1 432.58,150.94Z" style="fill:#A7D837" />
<path d="M430.4,718.34L430.4,718.34A7.1854,7.1854 0 1 1 416.03,718.34A7.1854,7.1854 0 1 1 430.4,718.34Z" style="fill:#A60637" />
<path d="M537.95,725.97A7.1898,7.1898 0 1 1 523.57,725.97A7.1898,7.1898 0 1 1 537.95,725.97Z" style="fill:#DA0A37" />
<path d="M548.84,206.04A7.2393,7.2393 0 1 1 534.36,206.04A7.2393,7.2393 0 1 1 548.84,206.04Z" style="fill:#E0F537" />
<path d="M183.18,554.66A7.2653,7.2653 0 1 1 168.65,554.66A7.2653,7.2653 0 1 1 183.18,554.66Z" style="fill:#2AAF37" />
<path d="M249.51,718.45L249.51,718.45A7.2803,7.2803 0 1 1 234.95,718.45A7.2803,7.2803 0 1 1 249.51,718.45Z" style="fill:#4B0638" />
<path d="M848.6,698.98A7.281,7.281 0 1 1 834.04,698.98A7.281,7.281 0 1 1 848.6,698.98Z" style="fill:#75FC38" />
<path d="M462.24,123.81L462.24,123.81A7.3051,7.3051 0 1 1 447.63,123.81A7.3051,7.3051 0 1 1 462.24,123.81Z" style="fill:#B6C938" />
<path d="M412.08,698.67L412.08,698.67A7.325,7.325 0 1 1 397.43,698.67A7.325,7.325 0 1 1 412.08,698.67Z" style="fill:#9DFC38" />
<path d="M283.83,741.62A7.5111,7.5111 0 1 1 268.81,741.62A7.5111,7.5111 0 1 1 283.83,741.62Z" style="fill:#5C1339" />
<path d="M643.08,240.13L643.08,240.13A7.5147,7.5147 0 1 1 628.05,240.13A7.5147,7.5147 0 1 1 643.08,240.13Z" style="fill:#0F0839" />
<path d="M141.39,769.1A7.52,7.52 0 1 1 126.35,769.1A7.52,7.52 0 1 1 141.39,769.1Z" style="fill:#152139" />
<path d="M763.09,355.15L763.09,355.15A7.5471,7.5471 0 1 1 747.99,355.15A7.5471,7.5471 0 1 1 763.09,355.15Z" style="fill:#4B453A" />
<path d="M750.26,696.66L750.26,696.66A7.5871,7.5871 0 1 1 735.08,696.66A7.5871,7.5871 0 1 1 750.26,696.66Z" style="fill:#44FB3A" />
<path d="M252.31,235.98L252.31,235.98A7.612,7.612 0 1 1 237.09,235.98A7.612,7.612 0 1 1 252.31,235.98Z" style="fill:#4D053A" />
<path d="M835.26,484.42L835.26,484.42A7.6645,7.6645 0 1 1 819.93,484.42A7.6645,7.6645 0 1 1 835.26,484.42Z" style="fill:#6F893B" />
<path d="M655.57,777.18L655.57,777.18A7.7408,7.7408 0 1 1 640.09,777.18A7.7408,7.7408 0 1 1 655.57,777.18Z" style="fill:#15263B" />
<path d="M121.76,669.07A7.8081,7.8081 0 1 1 106.14,669.07A7.8081,7.8081 0 1 1 121.76,669.07Z" style="fill:#0BEC3C" />
<path d="M213.14,144.81A7.8137,7.8137 0 1 1 197.51,144.81A7.8137,7.8137 0 1 1 213.14,144.81Z" style="fill:#39D53C" />
<path d="M418.27,715.03A7.8486,7.8486 0 1 1 402.58,715.03A7.8486,7.8486 0 1 1 418.27,715.03Z" style="fill:#9F043C" />
<path d="M765.54,158.9A7.861,7.861 0 1 1 749.81,158.9A7.861,7.861 0 1 1 765.54,158.9Z" style="fill:#4CDC3C" />
<path d="M90.233,155.1A7.8717,7.8717 0 1 1 74.49,155.1A7.8717,7.8717 0 1 1 90.233,155.1Z" style="fill:#FCDA3C" />
<path d="M169.18,550.63A7.8796,7.8796 0 1 1 153.42,550.63A7.8796,7.8796 0 1 1 169.18,550.63Z" style="fill:#23AD3C" />
<path d="M643.62,151.25A7.9868,7.9868 0 1 1 627.65,151.25A7.9868,7.9868 0 1 1 643.62,151.25Z" style="fill:#0FD83D" />
<path d="M281.34,192.87A8.0208,8.0208 0 1 1 265.29,192.87A8.0208,8.0208 0 1 1 281.34,192.87Z" style="fill:#5BEE3D" />
<path d="M641.26,221.47A8.07,8.07 0 1 1 625.12,221.47A8.07,8.07 0 1 1 641.26,221.47Z" style="fill:#0EFE3E" />
<path d="M650.57,244.63A8.0782,8.0782 0 1 1 634.42,244.63A8.0782,8.0782 0 1 1 650.57,244.63Z" style="fill:#120A3E" />
<path d="M175.38,621L175.38,621A8.0832,8.0832 0 1 1 159.21,621A8.0832,8.0832 0 1 1 175.38,621Z" style="fill:#26D23E" />
<path d="M522.41,786.34L522.41,786.34A8.1483,8.1483 0 1 1 506.12,786.34A8.1483,8.1483 0 1 1 522.41,786.34Z" style="fill:#D22A3E" />
<path d="M798.35,623.36L798.35,623.36A8.1999,8.1999 0 1 1 781.95,623.36A8.1999,8.1999 0 1 1 798.35,623.36Z" style="fill:#5CD33F" />
<path d="M171.52,660.24A8.2308,8.2308 0 1 1 155.06,660.24A8.2308,8.2308 0 1 1 171.52,660.24Z" style="fill:#24E73F" />
<path d="M173.72,660.68A8.2465,8.2465 0 1 1 157.23,660.68A8.2465,8.2465 0 1 1 173.72,660.68Z" style="fill:#25E73F" />
<path d="M821.42,552.1L821.42,552.1A8.3077,8.3077 0 1 1 804.8,552.1A8.3077,8.3077 0 1 1 821.42,552.1Z" style="fill:#67AD3F" />
<path d="M283.29,738.61L283.29,738.61A8.4033,8.4033 0 1 1 266.49,738.61A8.4033,8.4033 0 1 1 283.29,738.61Z" style="fill:#5C1140" />
<path d="M752.64,698.62A8.4074,8.4074 0 1 1 735.83,698.62A8.4074,8.4074 0 1 1 752.64,698.62Z" style="fill:#45FC40" />
<path d="M771.46,364.22L771.46,364.22A8.4455,8.4455 0 1 1 754.57,364.22A8.4455,8.4455 0 1 1 771.46,364.22Z" style="fill:#4E4A40" />
<path d="M783.23,184.23L783.23,184.23A8.4512,8.4512 0 1 1 766.32,184.23A8.4512,8.4512 0 1 1 783.23,184.23Z" style="fill:#54EA41" />
<path d="M286.22,253.43A8.4769,8.4769 0 1 1 269.27,253.43A8.4769,8.4769 0 1 1 286.22,253.43Z" style="fill:#5D0F41" />
<path d="M815.52,436.8A8.5628,8.5628 0 1 1 798.39,436.8A8.5628,8.5628 0 1 1 815.52,436.8Z" style="fill:#647141" />
<path d="M82.803,378.58L82.803,378.58A8.6767,8.6767 0 1 1 65.449,378.58A8.6767,8.6767 0 1 1 82.803,378.58Z" style="fill:#F85242" />
<path d="M186.88,564.23A8.6856,8.6856 0 1 1 169.51,564.23A8.6856,8.6856 0 1 1 186.88,564.23Z" style="fill:#2BB442" />
<path d="M120.61,257.21A8.6954,8.6954 0 1 1 103.22,257.21A8.6954,8.6954 0 1 1 120.61,257.21Z" style="fill:#0A1142" />
<path d="M755.12,240.71L755.12,240.71A8.7402,8.7402 0 1 1 737.64,240.71A8.7402,8.7402 0 1 1 755.12,240.71Z" style="fill:#460843" />
<path d="M154.32,622.29A8.7595,8.7595 0 1 1 136.8,622.29A8.7595,8.7595 0 1 1 154.32,622.29Z" style="fill:#1BD343" />
<path d="M653.29,691.47L653.29,691.47A8.807,8.807 0 1 1 635.67,691.47A8.807,8.807 0 1 1 653.29,691.47Z" style="fill:#13F843" />
<path d="M624.18,120.93L624.18,120.93A8.8501,8.8501 0 1 1 606.48,120.93A8.8501,8.8501 0 1 1 624.18,120.93Z" style="fill:#05C844" />
<path d="M314.77,150.67A8.9249,8.9249 0 1 1 296.92,150.67A8.9249,8.9249 0 1 1 314.77,150.67Z" style="fill:#6BD844" />
<path d="M777.68,266.84L777.68,266.84A8.9781,8.9781 0 1 1 759.72,266.84A8.9781,8.9781 0 1 1 777.68,266.84Z" style="fill:#511645" />
<path d="M695.47,245.57A9.0613,9.0613 0 1 1 677.34,245.57A9.0613,9.0613 0 1 1 695.47,245.57Z" style="fill:#280B45" />
<path d="M821.83,270.65A9.0767,9.0767 0 1 1 803.68,270.65A9.0767,9.0767 0 1 1 821.83,270.65Z" style="fill:#671845" />
<path d="M308.61,692.54A9.1578,9.1578 0 1 1 290.3,692.54A9.1578,9.1578 0 1 1 308.61,692.54Z" style="fill:#68F846" />
<path d="M721.42,122.06A9.2353,9.2353 0 1 1 702.95,122.06A9.2353,9.2353 0 1 1 721.42,122.06Z" style="fill:#35C947" />
<path d="M144.78,491.77A9.2542,9.2542 0 1 1 126.27,491.77A9.2542,9.2542 0 1 1 144.78,491.77Z" style="fill:#168D47" />
<path d="M876.6,606.73L876.6,606.73A9.261,9.261 0 1 1 858.08,606.73A9.261,9.261 0 1 1 876.6,606.73Z" style="fill:#82CA47" />
<path d="M118.82,151.03L118.82,151.03A9.294,9.294 0 1 1 100.23,151.03A9.294,9.294 0 1 1 118.82,151.03Z" style="fill:#09D847" />
<path d="M260.5,700.15A9.3012,9.3012 0 1 1 241.9,700.15A9.3012,9.3012 0 1 1 260.5,700.15Z" style="fill:#50FC47" />
<path d="M802.05,492.2L802.05,492.2A9.3783,9.3783 0 1 1 783.29,492.2A9.3783,9.3783 0 1 1 802.05,492.2Z" style="fill:#5D8D48" />
<path d="M184.64,367.36L184.64,367.36A9.4074,9.4074 0 1 1 165.82,367.36A9.4074,9.4074 0 1 1 184.64,367.36Z" style="fill:#2A4C48" />
<path d="M553.64,146.88A9.43,9.43 0 1 1 534.78,146.88A9.43,9.43 0 1 1 553.64,146.88Z" style="fill:#E1D648" />
<path d="M168.42,313.78L168.42,313.78A9.4462,9.4462 0 1 1 149.52,313.78A9.4462,9.4462 0 1 1 168.42,313.78Z" style="fill:#222F48" />
<path d="M694.12,202.02A9.4702,9.4702 0 1 1 675.18,202.02A9.4702,9.4702 0 1 1 694.12,202.02Z" style="fill:#27F348" />
<path d="M517.53,794.66A9.644,9.644 0 1 1 498.24,794.66A9.644,9.644 0 1 1 517.53,794.66Z" style="fill:#CF2F4A" />
<path d="M83.17,316.09A9.687,9.687 0 1 1 63.796,316.09A9.687,9.687 0 1 1 83.17,316.09Z" style="fill:#F7304A" />
<path d="M134.7,666.4A9.7959,9.7959 0 1 1 115.11,666.4A9.7959,9.7959 0 1 1 134.7,666.4Z" style="fill:#11EA4B" />
<path d="M86.22,474.79A9.8288,9.8288 0 1 1 66.562,474.79A9.8288,9.8288 0 1 1 86.22,474.79Z" style="fill:#F9844B" />
<path d="M111.18,111.12A9.8997,9.8997 0 1 1 91.376,111.12A9.8997,9.8997 0 1 1 111.18,111.12Z" style="fill:#05C34C" />
<path d="M503.95,95.066A10.029,10.029 0 1 1 483.89,95.066A10.029,10.029 0 1 1 503.95,95.066Z" style="fill:#C8BA4D" />
<path d="M663.39,239.97A10.051,10.051 0 1 1 643.29,239.97A10.051,10.051 0 1 1 663.39,239.97Z" style="fill:#18084D" />
<path d="M125.81,674.9L125.81,674.9A10.083,10.083 0 1 1 105.64,674.9A10.083,10.083 0 1 1 125.81,674.9Z" style="fill:#0CEF4D" />
<path d="M854,116.51A10.2,10.2 0 1 1 833.6,116.51A10.2,10.2 0 1 1 854,116.51Z" style="fill:#77C64E" />
<path d="M690.38,203.89A10.235,10.235 0 1 1 669.91,203.89A10.235,10.235 0 1 1 690.38,203.89Z" style="fill:#25F44E" />
<path d="M272.71,726.98L272.71,726.98A10.27,10.27 0 1 1 252.17,726.98A10.27,10.27 0 1 1 272.71,726.98Z" style="fill:#560B4E" />
<path d="M837.74,583.96L837.74,583.96A10.292,10.292 0 1 1 817.15,583.96A10.292,10.292 0 1 1 837.74,583.96Z" style="fill:#6FBE4F" />
<path d="M626.15,828.95A10.305,10.305 0 1 1 605.53,828.95A10.305,10.305 0 1 1 626.15,828.95Z" style="fill:#05414F" />
<path d="M803.91,747.75L803.91,747.75A10.329,10.329 0 1 1 783.25,747.75A10.329,10.329 0 1 1 803.91,747.75Z" style="fill:#5E164F" />
<path d="M183.69,264.83L183.69,264.83A10.366,10.366 0 1 1 162.96,264.83A10.366,10.366 0 1 1 183.69,264.83Z" style="fill:#29154F" />
<path d="M188.75,353.89L188.75,353.89A10.374,10.374 0 1 1 168.01,353.89A10.374,10.374 0 1 1 188.75,353.89Z" style="fill:#2C444F" />
<path d="M584.26,805.99L584.26,805.99A10.434,10.434 0 1 1 563.39,805.99A10.434,10.434 0 1 1 584.26,805.99Z" style="fill:#F03550" />
<path d="M270.49,209.44L270.49,209.44A10.478,10.478 0 1 1 249.53,209.44A10.478,10.478 0 1 1 270.49,209.44Z" style="fill:#54F750" />
<path d="M186.56,576.87A10.769,10.769 0 1 1 165.03,576.87A10.769,10.769 0 1 1 186.56,576.87Z" style="fill:#2ABB52" />
<path d="M796.31,479.66L796.31,479.66A10.785,10.785 0 1 1 774.74,479.66A10.785,10.785 0 1 1 796.31,479.66Z" style="fill:#5A8752" />
<path d="M787.82,265.63A10.793,10.793 0 1 1 766.24,265.63A10.793,10.793 0 1 1 787.82,265.63Z" style="fill:#551552" />
<path d="M447.42,134.64A10.81,10.81 0 1 1 425.8,134.64A10.81,10.81 0 1 1 447.42,134.64Z" style="fill:#ACCF53" />
<path d="M207.57,220.81A10.84,10.84 0 1 1 185.89,220.81A10.84,10.84 0 1 1 207.57,220.81Z" style="fill:#35FD53" />
<path d="M805.18,448.94L805.18,448.94A10.89,10.89 0 1 1 783.4,448.94A10.89,10.89 0 1 1 805.18,448.94Z" style="fill:#5E7753" />
<path d="M562.04,141.86L562.04,141.86A10.91,10.91 0 1 1 540.22,141.86A10.91,10.91 0 1 1 562.04,141.86Z" style="fill:#E5D353" />
<path d="M836.06,581.83L836.06,581.83A10.924,10.924 0 1 1 814.21,581.83A10.924,10.924 0 1 1 836.06,581.83Z" style="fill:#6DBD53" />
<path d="M305.89,706.51A10.938,10.938 0 1 1 284.02,706.51A10.938,10.938 0 1 1 305.89,706.51Z" style="fill:#660054" />
<path d="M165.12,614.57A11.018,11.018 0 1 1 143.08,614.57A11.018,11.018 0 1 1 165.12,614.57Z" style="fill:#1FCF54" />
<path d="M808.38,483.3L808.38,483.3A11.045,11.045 0 1 1 786.29,483.3A11.045,11.045 0 1 1 808.38,483.3Z" style="fill:#608954" />
<path d="M589.13,828.11A11.052,11.052 0 1 1 567.02,828.11A11.052,11.052 0 1 1 589.13,828.11Z" style="fill:#F24154" />
<path d="M847.24,715.38L847.24,715.38A11.159,11.159 0 1 1 824.92,715.38A11.159,11.159 0 1 1 847.24,715.38Z" style="fill:#730555" />
<path d="M304.93,711.13L304.93,711.13A11.177,11.177 0 1 1 282.57,711.13A11.177,11.177 0 1 1 304.93,711.13Z" style="fill:#650255" />
<path d="M92.513,246.51A11.219,11.219 0 1 1 70.075,246.51A11.219,11.219 0 1 1 92.513,246.51Z" style="fill:#FB0B56" />
<path d="M819.7,478.12L819.7,478.12A11.372,11.372 0 1 1 796.96,478.12A11.372,11.372 0 1 1 819.7,478.12Z" style="fill:#658657" />
<path d="M145.64,188.01A11.566,11.566 0 1 1 122.5,188.01A11.566,11.566 0 1 1 145.64,188.01Z" style="fill:#15EC58" />
<path d="M248.46,121.45A11.663,11.663 0 1 1 225.14,121.45A11.663,11.663 0 1 1 248.46,121.45Z" style="fill:#49C859" />
<path d="M807.61,266.7A11.822,11.822 0 1 1 783.96,266.7A11.822,11.822 0 1 1 807.61,266.7Z" style="fill:#5F165A" />
<path d="M808.49,369.36A11.846,11.846 0 1 1 784.8,369.36A11.846,11.846 0 1 1 808.49,369.36Z" style="fill:#5F4D5B" />
<path d="M679.94,212.93L679.94,212.93A11.885,11.885 0 1 1 656.17,212.93A11.885,11.885 0 1 1 679.94,212.93Z" style="fill:#1FF95B" />
<path d="M821.89,366.84A11.9,11.9 0 1 1 798.09,366.84A11.9,11.9 0 1 1 821.89,366.84Z" style="fill:#664B5B" />
<path d="M832.12,334.19A11.924,11.924 0 1 1 808.27,334.19A11.924,11.924 0 1 1 832.12,334.19Z" style="fill:#6B3A5B" />
<path d="M88.26,738.44L88.26,738.44A11.974,11.974 0 1 1 64.311,738.44A11.974,11.974 0 1 1 88.26,738.44Z" style="fill:#F9115C" />
<path d="M296.89,222.8L296.89,222.8A11.987,11.987 0 1 1 272.92,222.8A11.987,11.987 0 1 1 296.89,222.8Z" style="fill:#61FE5C" />
<path d="M812.53,472.16L812.53,472.16A12.116,12.116 0 1 1 788.29,472.16A12.116,12.116 0 1 1 812.53,472.16Z" style="fill:#61835D" />
<path d="M825.96,605.78A12.173,12.173 0 1 1 801.62,605.78A12.173,12.173 0 1 1 825.96,605.78Z" style="fill:#68CA5D" />
<path d="M182.92,585.45L182.92,585.45A12.326,12.326 0 1 1 158.27,585.45A12.326,12.326 0 1 1 182.92,585.45Z" style="fill:#28BF5E" />
<path d="M817.23,159.08L817.23,159.08A12.334,12.334 0 1 1 792.56,159.08A12.334,12.334 0 1 1 817.23,159.08Z" style="fill:#63DC5E" />
<path d="M512.34,112.01A12.339,12.339 0 1 1 487.66,112.01A12.339,12.339 0 1 1 512.34,112.01Z" style="fill:#CBC35E" />
<path d="M160.39,367.01A12.371,12.371 0 1 1 135.65,367.01A12.371,12.371 0 1 1 160.39,367.01Z" style="fill:#1C4B5F" />
<path d="M572.35,798.92A12.399,12.399 0 1 1 547.55,798.92A12.399,12.399 0 1 1 572.35,798.92Z" style="fill:#E9315F" />
<path d="M871.92,132.75L871.92,132.75A12.409,12.409 0 1 1 847.1,132.75A12.409,12.409 0 1 1 871.92,132.75Z" style="fill:#7FCE5F" />
<path d="M774.73,681.01L774.73,681.01A12.459,12.459 0 1 1 749.81,681.01A12.459,12.459 0 1 1 774.73,681.01Z" style="fill:#4EF25F" />
<path d="M122.95,787.42A12.473,12.473 0 1 1 98.007,787.42A12.473,12.473 0 1 1 122.95,787.42Z" style="fill:#0A2B5F" />
<path d="M765.98,714.66A12.746,12.746 0 1 1 740.49,714.66A12.746,12.746 0 1 1 765.98,714.66Z" style="fill:#4A0461" />
<path d="M830.12,580.37L830.12,580.37A12.758,12.758 0 1 1 804.61,580.37A12.758,12.758 0 1 1 830.12,580.37Z" style="fill:#6ABC62" />
<path d="M697.39,146.03L697.39,146.03A12.758,12.758 0 1 1 671.87,146.03A12.758,12.758 0 1 1 697.39,146.03Z" style="fill:#27D562" />
<path d="M334.21,809.02A12.818,12.818 0 1 1 308.57,809.02A12.818,12.818 0 1 1 334.21,809.02Z" style="fill:#733762" />
<path d="M456.24,818.24A12.889,12.889 0 1 1 430.46,818.24A12.889,12.889 0 1 1 456.24,818.24Z" style="fill:#B03B63" />
<path d="M220.32,104L220.32,104A13.076,13.076 0 1 1 194.17,104A13.076,13.076 0 1 1 220.32,104Z" style="fill:#3ABF64" />
<path d="M142.4,350.64L142.4,350.64A13.094,13.094 0 1 1 116.22,350.64A13.094,13.094 0 1 1 142.4,350.64Z" style="fill:#134364" />
<path d="M834.88,256.63A13.175,13.175 0 1 1 808.53,256.63A13.175,13.175 0 1 1 834.88,256.63Z" style="fill:#6C1065" />
<path d="M220.25,832.32A13.251,13.251 0 1 1 193.75,832.32A13.251,13.251 0 1 1 220.25,832.32Z" style="fill:#3A4365" />
<path d="M683.65,785.32L683.65,785.32A13.256,13.256 0 1 1 657.14,785.32A13.256,13.256 0 1 1 683.65,785.32Z" style="fill:#202A65" />
<path d="M826.04,578.25A13.397,13.397 0 1 1 799.25,578.25A13.397,13.397 0 1 1 826.04,578.25Z" style="fill:#67BB66" />
<path d="M160.97,360.53A13.565,13.565 0 1 1 133.84,360.53A13.565,13.565 0 1 1 160.97,360.53Z" style="fill:#1C4868" />
<path d="M801.83,356.41L801.83,356.41A13.609,13.609 0 1 1 774.62,356.41A13.609,13.609 0 1 1 801.83,356.41Z" style="fill:#5B4668" />
<path d="M543.11,797.24A13.617,13.617 0 1 1 515.87,797.24A13.617,13.617 0 1 1 543.11,797.24Z" style="fill:#DA3068" />
<path d="M827.63,588.83A13.658,13.658 0 1 1 800.32,588.83A13.658,13.658 0 1 1 827.63,588.83Z" style="fill:#68C168" />
<path d="M127.4,214.19L127.4,214.19A13.659,13.659 0 1 1 100.09,214.19A13.659,13.659 0 1 1 127.4,214.19Z" style="fill:#0BFA68" />
<path d="M721.46,832.95A13.701,13.701 0 1 1 694.06,832.95A13.701,13.701 0 1 1 721.46,832.95Z" style="fill:#334369" />
<path d="M801.13,335.38L801.13,335.38A13.842,13.842 0 1 1 773.45,335.38A13.842,13.842 0 1 1 801.13,335.38Z" style="fill:#5B3B6A" />
<path d="M336.64,838.63A13.843,13.843 0 1 1 308.96,838.63A13.843,13.843 0 1 1 336.64,838.63Z" style="fill:#74466A" />
<path d="M821.54,354.58A13.974,13.974 0 1 1 793.59,354.58A13.974,13.974 0 1 1 821.54,354.58Z" style="fill:#65456B" />
<path d="M886.95,582.61A14.181,14.181 0 1 1 858.59,582.61A14.181,14.181 0 1 1 886.95,582.61Z" style="fill:#85BE6C" />
<path d="M258.63,803.59A14.319,14.319 0 1 1 230,803.59A14.319,14.319 0 1 1 258.63,803.59Z" style="fill:#4C346D" />
<path d="M197.75,204.55L197.75,204.55A14.391,14.391 0 1 1 168.97,204.55A14.391,14.391 0 1 1 197.75,204.55Z" style="fill:#2EF56E" />
<path d="M421.65,799.04A14.566,14.566 0 1 1 392.52,799.04A14.566,14.566 0 1 1 421.65,799.04Z" style="fill:#9E316F" />
<path d="M800.6,673.15A14.619,14.619 0 1 1 771.36,673.15A14.619,14.619 0 1 1 800.6,673.15Z" style="fill:#5AEE70" />
<path d="M220.13,109.1L220.13,109.1A14.643,14.643 0 1 1 190.84,109.1A14.643,14.643 0 1 1 220.13,109.1Z" style="fill:#39C270" />
<path d="M302.63,788.79A14.709,14.709 0 1 1 273.21,788.79A14.709,14.709 0 1 1 302.63,788.79Z" style="fill:#622C70" />
<path d="M580.66,117.45A14.775,14.775 0 1 1 551.11,117.45A14.775,14.775 0 1 1 580.66,117.45Z" style="fill:#ECC671" />
<path d="M90.744,781.53A14.948,14.948 0 1 1 60.848,781.53A14.948,14.948 0 1 1 90.744,781.53Z" style="fill:#F82872" />
<path d="M582.11,839.53A15.185,15.185 0 1 1 551.74,839.53A15.185,15.185 0 1 1 582.11,839.53Z" style="fill:#ED4774" />
<path d="M820.21,739.86A15.238,15.238 0 1 1 789.74,739.86A15.238,15.238 0 1 1 820.21,739.86Z" style="fill:#631275" />
<path d="M335.7,836.81L335.7,836.81A15.329,15.329 0 1 1 305.04,836.81A15.329,15.329 0 1 1 335.7,836.81Z" style="fill:#724575" />
<path d="M814.32,156.28L814.32,156.28A15.407,15.407 0 1 1 783.5,156.28A15.407,15.407 0 1 1 814.32,156.28Z" style="fill:#60DB76" />
<path d="M787.32,733.3A15.652,15.652 0 1 1 756.02,733.3A15.652,15.652 0 1 1 787.32,733.3Z" style="fill:#530E78" />
<path d="M272.29,795.16A15.807,15.807 0 1 1 240.67,795.16A15.807,15.807 0 1 1 272.29,795.16Z" style="fill:#532F79" />
<path d="M776.9,716.26A15.91,15.91 0 1 1 745.08,716.26A15.91,15.91 0 1 1 776.9,716.26Z" style="fill:#4D057A" />
<path d="M845.66,145.36L845.66,145.36A15.925,15.925 0 1 1 813.81,145.36A15.925,15.925 0 1 1 845.66,145.36Z" style="fill:#70D57A" />
<path d="M259.3,813.22A16,16 0 1 1 227.3,813.22A16,16 0 1 1 259.3,813.22Z" style="fill:#4C397A" />
<path d="M561.37,128.65L561.37,128.65A16.001,16.001 0 1 1 529.37,128.65A16.001,16.001 0 1 1 561.37,128.65Z" style="fill:#E2CC7A" />
<path d="M717.89,812.58L717.89,812.58A16.126,16.126 0 1 1 685.64,812.58A16.126,16.126 0 1 1 717.89,812.58Z" style="fill:#30387B" />
<path d="M419.65,804.14A16.212,16.212 0 1 1 387.23,804.14A16.212,16.212 0 1 1 419.65,804.14Z" style="fill:#9C347C" />
<path d="M525.54,101.08A16.219,16.219 0 1 1 493.1,101.08A16.219,16.219 0 1 1 525.54,101.08Z" style="fill:#D0BD7C" />
<path d="M398.03,835.39A16.554,16.554 0 1 1 364.92,835.39A16.554,16.554 0 1 1 398.03,835.39Z" style="fill:#91457F" />
<path d="M186.69,249.53A16.747,16.747 0 1 1 153.2,249.53A16.747,16.747 0 1 1 186.69,249.53Z" style="fill:#270D80" />
<path d="M843.81,219.52A16.793,16.793 0 1 1 810.22,219.52A16.793,16.793 0 1 1 843.81,219.52Z" style="fill:#6EFD80" />
<path d="M406.8,811.89L406.8,811.89A16.797,16.797 0 1 1 373.21,811.89A16.797,16.797 0 1 1 406.8,811.89Z" style="fill:#953880" />
<path d="M561.82,806.69A16.833,16.833 0 1 1 528.15,806.69A16.833,16.833 0 1 1 561.82,806.69Z" style="fill:#E23581" />
<path d="M410.56,122.94A16.919,16.919 0 1 1 376.72,122.94A16.919,16.919 0 1 1 410.56,122.94Z" style="fill:#97C981" />
<path d="M220.21,104.23A16.971,16.971 0 1 1 186.27,104.23A16.971,16.971 0 1 1 220.21,104.23Z" style="fill:#38BF82" />
<path d="M837.85,150.11A17.057,17.057 0 1 1 803.73,150.11A17.057,17.057 0 1 1 837.85,150.11Z" style="fill:#6BD882" />
<path d="M198.28,716.9L198.28,716.9A17.187,17.187 0 1 1 163.91,716.9A17.187,17.187 0 1 1 198.28,716.9Z" style="fill:#2D0583" />
<path d="M197.13,698.82L197.13,698.82A17.364,17.364 0 1 1 162.4,698.82A17.364,17.364 0 1 1 197.13,698.82Z" style="fill:#2CFC85" />
<path d="M420.04,124.49A17.417,17.417 0 1 1 385.21,124.49A17.417,17.417 0 1 1 420.04,124.49Z" style="fill:#9BCA85" />
<path d="M708.62,801.73A17.985,17.985 0 1 1 672.65,801.73A17.985,17.985 0 1 1 708.62,801.73Z" style="fill:#2A338A" />
<path d="M99.829,133.53A17.986,17.986 0 1 1 63.857,133.53A17.986,17.986 0 1 1 99.829,133.53Z" style="fill:#FBCF8A" />
<path d="M763.99,810.26L763.99,810.26A18.101,18.101 0 1 1 727.79,810.26A18.101,18.101 0 1 1 763.99,810.26Z" style="fill:#46378A" />
<path d="M262.72,832.94L262.72,832.94A18.216,18.216 0 1 1 226.29,832.94A18.216,18.216 0 1 1 262.72,832.94Z" style="fill:#4D438B" />
<path d="M186.65,203.05L186.65,203.05A18.31,18.31 0 1 1 150.03,203.05A18.31,18.31 0 1 1 186.65,203.05Z" style="fill:#27F48C" />
<path d="M574.49,93.586L574.49,93.586A18.356,18.356 0 1 1 537.77,93.586A18.356,18.356 0 1 1 574.49,93.586Z" style="fill:#E7B98C" />
<path d="M266.06,118.92A18.463,18.463 0 1 1 229.14,118.92A18.463,18.463 0 1 1 266.06,118.92Z" style="fill:#4EC78D" />
<path d="M179.9,249.22A18.538,18.538 0 1 1 142.82,249.22A18.538,18.538 0 1 1 179.9,249.22Z" style="fill:#230C8E" />
<path d="M823.39,251.07L823.39,251.07A18.585,18.585 0 1 1 786.22,251.07A18.585,18.585 0 1 1 823.39,251.07Z" style="fill:#630D8E" />
<path d="M163.93,779.77A18.663,18.663 0 1 1 126.6,779.77A18.663,18.663 0 1 1 163.93,779.77Z" style="fill:#1B278F" />
<path d="M539.77,95.008A18.919,18.919 0 1 1 501.93,95.008A18.919,18.919 0 1 1 539.77,95.008Z" style="fill:#D6BA91" />
<path d="M144.86,720.09L144.86,720.09A19.268,19.268 0 1 1 106.32,720.09A19.268,19.268 0 1 1 144.86,720.09Z" style="fill:#110793" />
<path d="M541.25,97.773L541.25,97.773A19.373,19.373 0 1 1 502.51,97.773A19.373,19.373 0 1 1 541.25,97.773Z" style="fill:#D6BC94" />
<path d="M548.87,113.71L548.87,113.71A19.62,19.62 0 1 1 509.63,113.71A19.62,19.62 0 1 1 548.87,113.71Z" style="fill:#DAC496" />
<path d="M144.09,220.2A19.671,19.671 0 1 1 104.74,220.2A19.671,19.671 0 1 1 144.09,220.2Z" style="fill:#11FD96" />
<path d="M145.13,217.53A19.831,19.831 0 1 1 105.47,217.53A19.831,19.831 0 1 1 145.13,217.53Z" style="fill:#11FC98" />
<path d="M834.97,691.9L834.97,691.9A19.919,19.919 0 1 1 795.13,691.9A19.919,19.919 0 1 1 834.97,691.9Z" style="fill:#68F898" />
<path d="M149.52,722.74A20.071,20.071 0 1 1 109.38,722.74A20.071,20.071 0 1 1 149.52,722.74Z" style="fill:#13089A" />
<path d="M437.24,104.51A20.539,20.539 0 1 1 396.16,104.51A20.539,20.539 0 1 1 437.24,104.51Z" style="fill:#A3BF9D" />
<path d="M166.71,729.59L166.71,729.59A20.664,20.664 0 1 1 125.38,729.59A20.664,20.664 0 1 1 166.71,729.59Z" style="fill:#1B0C9E" />
<path d="M558.79,823.32A20.676,20.676 0 1 1 517.44,823.32A20.676,20.676 0 1 1 558.79,823.32Z" style="fill:#DE3E9E" />
<path d="M187.21,237.89A20.769,20.769 0 1 1 145.68,237.89A20.769,20.769 0 1 1 187.21,237.89Z" style="fill:#26069F" />
<path d="M422.03,828.24A20.782,20.782 0 1 1 380.47,828.24A20.782,20.782 0 1 1 422.03,828.24Z" style="fill:#9B419F" />
<path d="M430.75,96.707A20.812,20.812 0 1 1 389.12,96.707A20.812,20.812 0 1 1 430.75,96.707Z" style="fill:#9FBB9F" />
<path d="M180.9,726.71L180.9,726.71A20.902,20.902 0 1 1 139.1,726.71A20.902,20.902 0 1 1 180.9,726.71Z" style="fill:#220BA0" />
<path d="M810.64,150.45L810.64,150.45A20.984,20.984 0 1 1 768.67,150.45A20.984,20.984 0 1 1 810.64,150.45Z" style="fill:#5CD8A1" />
<path d="M837.91,715.61L837.91,715.61A21.028,21.028 0 1 1 795.85,715.61A21.028,21.028 0 1 1 837.91,715.61Z" style="fill:#6905A1" />
<path d="M776.52,134.26L776.52,134.26A21.037,21.037 0 1 1 734.45,134.26A21.037,21.037 0 1 1 776.52,134.26Z" style="fill:#4BCFA1" />
<path d="M328.24,820.04L328.24,820.04A21.576,21.576 0 1 1 285.09,820.04A21.576,21.576 0 1 1 328.24,820.04Z" style="fill:#6C3CA5" />
<path d="M329.7,827.61A21.768,21.768 0 1 1 286.16,827.61A21.768,21.768 0 1 1 329.7,827.61Z" style="fill:#6C40A7" />
<path d="M169.26,726.09A21.973,21.973 0 1 1 125.31,726.09A21.973,21.973 0 1 1 169.26,726.09Z" style="fill:#1C0AA8" />
<path d="M328.04,822.13L328.04,822.13A22.214,22.214 0 1 1 283.61,822.13A22.214,22.214 0 1 1 328.04,822.13Z" style="fill:#6B3EAA" />
<path d="M187.87,713.78L187.87,713.78A22.411,22.411 0 1 1 143.05,713.78A22.411,22.411 0 1 1 187.87,713.78Z" style="fill:#2504AB" />
<path d="M680.76,804.85A22.486,22.486 0 1 1 635.79,804.85A22.486,22.486 0 1 1 680.76,804.85Z" style="fill:#1A34AC" />
<path d="M805.62,700.12A22.596,22.596 0 1 1 760.43,700.12A22.596,22.596 0 1 1 805.62,700.12Z" style="fill:#58FCAD" />
<path d="M834.76,713.41L834.76,713.41A22.688,22.688 0 1 1 789.38,713.41A22.688,22.688 0 1 1 834.76,713.41Z" style="fill:#6703AE" />
<path d="M805.25,701.82A22.719,22.719 0 1 1 759.82,701.82A22.719,22.719 0 1 1 805.25,701.82Z" style="fill:#58FDAE" />
<path d="M164.3,235.71L164.3,235.71A23.163,23.163 0 1 1 117.97,235.71A23.163,23.163 0 1 1 164.3,235.71Z" style="fill:#1905B1" />
<path d="M784.56,796.05A23.244,23.244 0 1 1 738.08,796.05A23.244,23.244 0 1 1 784.56,796.05Z" style="fill:#4E30B2" />
<path d="M179.09,697.77A23.26,23.26 0 1 1 132.57,697.77A23.26,23.26 0 1 1 179.09,697.77Z" style="fill:#20FBB2" />
<path d="M825.16,696.52A23.295,23.295 0 1 1 778.57,696.52A23.295,23.295 0 1 1 825.16,696.52Z" style="fill:#62FAB2" />
<path d="M160.03,228.71L160.03,228.71A23.419,23.419 0 1 1 113.2,228.71A23.419,23.419 0 1 1 160.03,228.71Z" style="fill:#1702B3" />
<path d="M165.37,719.12A23.459,23.459 0 1 1 118.45,719.12A23.459,23.459 0 1 1 165.37,719.12Z" style="fill:#1907B4" />
<path d="M96.976,790.11L96.976,790.11A23.491,23.491 0 1 1 49.995,790.11A23.491,23.491 0 1 1 96.976,790.11Z" style="fill:#F72CB4" />
<path d="M326.85,107.41L326.85,107.41A23.543,23.543 0 1 1 279.76,107.41A23.543,23.543 0 1 1 326.85,107.41Z" style="fill:#6AC1B4" />
<path d="M792.77,141.64L792.77,141.64A23.687,23.687 0 1 1 745.4,141.64A23.687,23.687 0 1 1 792.77,141.64Z" style="fill:#51D3B5" />
<path d="M283.23,117.78L283.23,117.78A23.722,23.722 0 1 1 235.79,117.78A23.722,23.722 0 1 1 283.23,117.78Z" style="fill:#54C6B6" />
<path d="M814.44,709.42A24.376,24.376 0 1 1 765.69,709.42A24.376,24.376 0 1 1 814.44,709.42Z" style="fill:#5C01BB" />
<path d="M888.84,818.31A24.541,24.541 0 1 1 839.76,818.31A24.541,24.541 0 1 1 888.84,818.31Z" style="fill:#813CBC" />
<path d="M311.45,122.08L311.45,122.08A24.747,24.747 0 1 1 261.95,122.08A24.747,24.747 0 1 1 311.45,122.08Z" style="fill:#62C9BD" />
<path d="M712.75,102.56L712.75,102.56A24.915,24.915 0 1 1 662.92,102.56A24.915,24.915 0 1 1 712.75,102.56Z" style="fill:#29BEBF" />
<path d="M321.98,111.41A25.332,25.332 0 1 1 271.31,111.41A25.332,25.332 0 1 1 321.98,111.41Z" style="fill:#67C3C2" />
<path d="M889.99,827.99L889.99,827.99A25.548,25.548 0 1 1 838.89,827.99A25.548,25.548 0 1 1 889.99,827.99Z" style="fill:#8141C4" />
<path d="M678.48,99.542A26.697,26.697 0 1 1 625.08,99.542A26.697,26.697 0 1 1 678.48,99.542Z" style="fill:#17BDCC" />
<path d="M682.66,113.23L682.66,113.23A26.711,26.711 0 1 1 629.24,113.23A26.711,26.711 0 1 1 682.66,113.23Z" style="fill:#19C4CC" />
<path d="M682.76,824.76A27.392,27.392 0 1 1 627.98,824.76A27.392,27.392 0 1 1 682.76,824.76Z" style="fill:#193FD2" />
<path d="M298.72,110.87L298.72,110.87A27.76,27.76 0 1 1 243.2,110.87A27.76,27.76 0 1 1 298.72,110.87Z" style="fill:#5AC3D4" />
<path d="M155.14,795.18A27.804,27.804 0 1 1 99.529,795.18A27.804,27.804 0 1 1 155.14,795.18Z" style="fill:#122FD5" />
<path d="M298.64,835.85L298.64,835.85A27.888,27.888 0 1 1 242.87,835.85A27.888,27.888 0 1 1 298.64,835.85Z" style="fill:#5A45D5" />
<path d="M692.75,820.46A27.93,27.93 0 1 1 636.89,820.46A27.93,27.93 0 1 1 692.75,820.46Z" style="fill:#1D3DD6" />
<path d="M188.78,791.06A28.717,28.717 0 1 1 131.34,791.06A28.717,28.717 0 1 1 188.78,791.06Z" style="fill:#222DDC" />
<path d="M857.55,812.79A29.21,29.21 0 1 1 799.13,812.79A29.21,29.21 0 1 1 857.55,812.79Z" style="fill:#6F39E0" />
<path d="M897.29,121.53L897.29,121.53A29.322,29.322 0 1 1 838.65,121.53A29.322,29.322 0 1 1 897.29,121.53Z" style="fill:#83C8E0" />
<path d="M791.6,810.1L791.6,810.1A30.348,30.348 0 1 1 730.9,810.1A30.348,30.348 0 1 1 791.6,810.1Z" style="fill:#4E37E8" />
<path d="M900,123.13L900,123.13A30.814,30.814 0 1 1 838.37,123.13A30.814,30.814 0 1 1 900,123.13Z" style="fill:#83C9EC" />
<path d="M167.02,136.55L167.02,136.55A31.899,31.899 0 1 1 103.22,136.55A31.899,31.899 0 1 1 167.02,136.55Z" style="fill:#16D0F4" />
<path d="M199.02,797.73A32.668,32.668 0 1 1 133.68,797.73A32.668,32.668 0 1 1 199.02,797.73Z" style="fill:#2631FA" />
<path d="M153.87,822.86L153.87,822.86A34.143,34.143 0 1 1 85.58,822.86A34.143,34.143 0 1 1 153.87,822.86Z" style="fill:#0E3E05" />
<path d="M187.36,136.45L187.36,136.45A34.273,34.273 0 1 1 118.81,136.45A34.273,34.273 0 1 1 187.36,136.45Z" style="fill:#1FD006" />
<path d="M217.96,98.63A34.685,34.685 0 1 1 148.6,98.63A34.685,34.685 0 1 1 217.96,98.63Z" style="fill:#2EBC0A" />
<path d="M858.18,839.28A36.382,36.382 0 1 1 785.42,839.28A36.382,36.382 0 1 1 858.18,839.28Z" style="fill:#6C4717" />
<path d="M858.97,114.15L858.97,114.15A36.88,36.88 0 1 1 785.21,114.15A36.88,36.88 0 1 1 858.97,114.15Z" style="fill:#6CC41A" />
<path d="M835.38,799.6L835.38,799.6A37.113,37.113 0 1 1 761.15,799.6A37.113,37.113 0 1 1 835.38,799.6Z" style="fill:#60321C" />
<path d="M172.9,128.05A38.009,38.009 0 1 1 96.879,128.05A38.009,38.009 0 1 1 172.9,128.05Z" style="fill:#16CC23" />
<path d="M860.01,828.21L860.01,828.21A39.162,39.162 0 1 1 781.69,828.21A39.162,39.162 0 1 1 860.01,828.21Z" style="fill:#6B412C" />
<path d="M186.44,804.2L186.44,804.2A40.512,40.512 0 1 1 105.41,804.2A40.512,40.512 0 1 1 186.44,804.2Z" style="fill:#1B3436" />
<path d="M214.05,838.1A40.74,40.74 0 1 1 132.57,838.1A40.74,40.74 0 1 1 214.05,838.1Z" style="fill:#294638" />
<path d="M826.53,808.12L826.53,808.12A41.755,41.755 0 1 1 743.02,808.12A41.755,41.755 0 1 1 826.53,808.12Z" style="fill:#593640" />
<path d="M215.57,104.16A42.347,42.347 0 1 1 130.88,104.16A42.347,42.347 0 1 1 215.57,104.16Z" style="fill:#29BF44" />
<path d="M852.37,120L852.37,120A43.16,43.16 0 1 1 766.05,120A43.16,43.16 0 1 1 852.37,120Z" style="fill:#65C74A" />
<path d="M180.41,813.91A43.825,43.825 0 1 1 92.757,813.91A43.825,43.825 0 1 1 180.41,813.91Z" style="fill:#173950" />
<path d="M853.64,93.205A44.6,44.6 0 1 1 764.44,93.205A44.6,44.6 0 1 1 853.64,93.205Z" style="fill:#65B956" />
<path d="M833.41,812.53A45.105,45.105 0 1 1 743.2,812.53A45.105,45.105 0 1 1 833.41,812.53Z" style="fill:#5B3859" />
<path d="M202.87,118.27A46.117,46.117 0 1 1 110.64,118.27A46.117,46.117 0 1 1 202.87,118.27Z" style="fill:#21C761" />
<path d="M192.81,119.15L192.81,119.15A46.238,46.238 0 1 1 100.34,119.15A46.238,46.238 0 1 1 192.81,119.15Z" style="fill:#1CC762" />
<path d="M849.86,816.39L849.86,816.39A46.778,46.778 0 1 1 756.31,816.39A46.778,46.778 0 1 1 849.86,816.39Z" style="fill:#623B66" />
<path d="M851.46,95.213L851.46,95.213A47.112,47.112 0 1 1 757.23,95.213A47.112,47.112 0 1 1 851.46,95.213Z" style="fill:#63BA69" />
<path d="M187.29,109.38L187.29,109.38A47.851,47.851 0 1 1 91.586,109.38A47.851,47.851 0 1 1 187.29,109.38Z" style="fill:#18C26E" />
<path d="M195.15,107.94A49.574,49.574 0 1 1 96.002,107.94A49.574,49.574 0 1 1 195.15,107.94Z" style="fill:#1BC17C" />
<path d="M204.34,831.14L204.34,831.14A49.591,49.591 0 1 1 105.16,831.14A49.591,49.591 0 1 1 204.34,831.14Z" style="fill:#20427C" />
<path d="M850.36,828.47A49.65,49.65 0 1 1 751.06,828.47A49.65,49.65 0 1 1 850.36,828.47Z" style="fill:#61417C" />
<path d="M200.87,106.76L200.87,106.76A50,50 0 1 1 100.87,106.76A50,50 0 1 1 200.87,106.76Z" style="fill:#1EC07F" />
<text x="614.7" y="-48.379" transform="scale(1, -1)"
	style="font-family:Times;font-weight:normal;font-style:normal;font-size:12pt">The bigger the circle, the smaller the value</text>
</g>
</svg>
