<?xml version="1.0"?>
<!-- Generated by SVGo and Plotinum VG -->
<svg width="10in" height="10in"
	xmlns="http://www.w3.org/2000/svg"
	xmlns:xlink="http://www.w3.org/1999/xlink">
<g transform="scale(1, -1) translate(0, -900)">
<path d="M0,0L900,0L900,900L0,900Z" style="fill:#FFFFFF" />
<text x="386.88" y="-885.56" transform="scale(1, -1)"
	style="font-family:Times;font-weight:normal;font-style:normal;font-size:12pt">Simulated Annealing</text>
<text x="474.69" y="-4.8267" transform="scale(1, -1)"
	style="font-family:Times;font-weight:normal;font-style:normal;font-size:12pt">X</text>
<text x="151.8" y="-19.502" transform="scale(1, -1)"
	style="font-family:Times;font-weight:normal;font-style:normal;font-size:10pt">-8</text>
<text x="477.03" y="-19.502" transform="scale(1, -1)"
	style="font-family:Times;font-weight:normal;font-style:normal;font-size:10pt">0</text>
<text x="800.17" y="-19.502" transform="scale(1, -1)"
	style="font-family:Times;font-weight:normal;font-style:normal;font-size:10pt">8</text>
<path d="M157.01,31.538L157.01,41.538" style="fill:none;stroke:#000000;stroke-width:0.625" />
<path d="M480.15,31.538L480.15,41.538" style="fill:none;stroke:#000000;stroke-width:0.625" />
<path d="M803.3,31.538L803.3,41.538" style="fill:none;stroke:#000000;stroke-width:0.625" />
<path d="M318.58,36.538L318.58,41.538" style="fill:none;stroke:#000000;stroke-width:0.625" />
<path d="M641.72,36.538L641.72,41.538" style="fill:none;stroke:#000000;stroke-width:0.625" />
<path d="M77.105,41.538L883.1,41.538" style="fill:none;stroke:#000000;stroke-width:0.625" />
<g transform="rotate(90)">
<text x="455.44" y="14.443" transform="scale(1, -1)"
	style="font-family:Times;font-weight:normal;font-style:normal;font-size:12pt">Y</text>
</g>
<text x="19.27" y="-152.21" transform="scale(1, -1)"
	style="font-family:Times;font-weight:normal;font-style:normal;font-size:10pt">-8</text>
<text x="23.433" y="-454.01" transform="scale(1, -1)"
	style="font-family:Times;font-weight:normal;font-style:normal;font-size:10pt">0</text>
<text x="23.433" y="-755.81" transform="scale(1, -1)"
	style="font-family:Times;font-weight:normal;font-style:normal;font-size:10pt">8</text>
<path d="M32.808,158.11L42.808,158.11" style="fill:none;stroke:#000000;stroke-width:0.625" />
<path d="M32.808,459.91L42.808,459.91" style="fill:none;stroke:#000000;stroke-width:0.625" />
<path d="M32.808,761.71L42.808,761.71" style="fill:none;stroke:#000000;stroke-width:0.625" />
<path d="M37.808,309.01L42.808,309.01" style="fill:none;stroke:#000000;stroke-width:0.625" />
<path d="M37.808,610.81L42.808,610.81" style="fill:none;stroke:#000000;stroke-width:0.625" />
<path d="M42.808,85.172L42.808,836.54" style="fill:none;stroke:#000000;stroke-width:0.625" />
<path d="M326.44,283.72A0,0 0 1 1 326.44,283.72A0,0 0 1 1 326.44,283.72Z" style="fill:#722301" />
<path d="M649.34,398.56L649.34,398.56A0.023446,0.023446 0 1 1 649.29,398.56A0.023446,0.023446 0 1 1 649.34,398.56Z" style="fill:#116001" />
<path d="M475.37,537.3A0.034246,0.034246 0 1 1 475.3,537.3A0.034246,0.034246 0 1 1 475.37,537.3Z" style="fill:#BCA901" />
<path d="M737.17,158.07L737.17,158.07A0.11153,0.11153 0 1 1 736.95,158.07A0.11153,0.11153 0 1 1 737.17,158.07Z" style="fill:#3DE002" />
<path d="M485.93,555.47L485.93,555.47A0.18998,0.18998 0 1 1 485.55,555.47A0.18998,0.18998 0 1 1 485.93,555.47Z" style="fill:#C0B202" />
<path d="M611.64,260.42A0.23709,0.23709 0 1 1 611.16,260.42A0.23709,0.23709 0 1 1 611.64,260.42Z" style="fill:#FE1703" />
<path d="M589.57,758.88A0.24739,0.24739 0 1 1 589.08,758.88A0.24739,0.24739 0 1 1 589.57,758.88Z" style="fill:#F41E03" />
<path d="M731.25,463.39A0.35184,0.35184 0 1 1 730.55,463.39A0.35184,0.35184 0 1 1 731.25,463.39Z" style="fill:#3A8103" />
<path d="M862.62,611.02A0.39253,0.39253 0 1 1 861.83,611.02A0.39253,0.39253 0 1 1 862.62,611.02Z" style="fill:#7BD004" />
<path d="M455.84,627.83A0.42786,0.42786 0 1 1 454.99,627.83A0.42786,0.42786 0 1 1 455.84,627.83Z" style="fill:#B2D904" />
<path d="M471.17,362.32L471.17,362.32A0.44198,0.44198 0 1 1 470.29,362.32A0.44198,0.44198 0 1 1 471.17,362.32Z" style="fill:#BA4D04" />
<path d="M585.99,628.01A0.47203,0.47203 0 1 1 585.05,628.01A0.47203,0.47203 0 1 1 585.99,628.01Z" style="fill:#F2D904" />
<path d="M584.96,501.88A0.5127,0.5127 0 1 1 583.94,501.88A0.5127,0.5127 0 1 1 584.96,501.88Z" style="fill:#F19605" />
<path d="M744.59,291.28A0.54101,0.54101 0 1 1 743.51,291.28A0.54101,0.54101 0 1 1 744.59,291.28Z" style="fill:#402705" />
<path d="M703.59,407.85A0.60437,0.60437 0 1 1 702.38,407.85A0.60437,0.60437 0 1 1 703.59,407.85Z" style="fill:#2C6505" />
<path d="M365.06,611.62L365.06,611.62A0.63643,0.63643 0 1 1 363.79,611.62A0.63643,0.63643 0 1 1 365.06,611.62Z" style="fill:#85D006" />
<path d="M475.79,194.48L475.79,194.48A0.646,0.646 0 1 1 474.5,194.48A0.646,0.646 0 1 1 475.79,194.48Z" style="fill:#BCF406" />
<path d="M653.36,527.77A0.69037,0.69037 0 1 1 651.98,527.77A0.69037,0.69037 0 1 1 653.36,527.77Z" style="fill:#13A306" />
<path d="M241.15,416.58L241.15,416.58A0.75101,0.75101 0 1 1 239.65,416.58A0.75101,0.75101 0 1 1 241.15,416.58Z" style="fill:#486A07" />
<path d="M554.8,629.1L554.8,629.1A0.81093,0.81093 0 1 1 553.18,629.1A0.81093,0.81093 0 1 1 554.8,629.1Z" style="fill:#E2D907" />
<path d="M459.6,266.04A0.8737,0.8737 0 1 1 457.86,266.04A0.8737,0.8737 0 1 1 459.6,266.04Z" style="fill:#B41A07" />
<path d="M525.02,626.67L525.02,626.67A0.87563,0.87563 0 1 1 523.27,626.67A0.87563,0.87563 0 1 1 525.02,626.67Z" style="fill:#D3D807" />
<path d="M520.75,625.5A0.89402,0.89402 0 1 1 518.97,625.5A0.89402,0.89402 0 1 1 520.75,625.5Z" style="fill:#D1D708" />
<path d="M490.89,246.56L490.89,246.56A0.96129,0.96129 0 1 1 488.97,246.56A0.96129,0.96129 0 1 1 490.89,246.56Z" style="fill:#C20F08" />
<path d="M580.25,424.59L580.25,424.59A0.99042,0.99042 0 1 1 578.26,424.59A0.99042,0.99042 0 1 1 580.25,424.59Z" style="fill:#EF6E08" />
<path d="M433.38,385.69L433.38,385.69A1.0548,1.0548 0 1 1 431.27,385.69A1.0548,1.0548 0 1 1 433.38,385.69Z" style="fill:#A75909" />
<path d="M564.9,751.74A1.1038,1.1038 0 1 1 562.69,751.74A1.1038,1.1038 0 1 1 564.9,751.74Z" style="fill:#E71A09" />
<path d="M139.9,640.5A1.1379,1.1379 0 1 1 137.62,640.5A1.1379,1.1379 0 1 1 139.9,640.5Z" style="fill:#15DF09" />
<path d="M759.61,391.04A1.1666,1.1666 0 1 1 757.28,391.04A1.1666,1.1666 0 1 1 759.61,391.04Z" style="fill:#475C0A" />
<path d="M262.32,630.2A1.1889,1.1889 0 1 1 259.94,630.2A1.1889,1.1889 0 1 1 262.32,630.2Z" style="fill:#52DA0A" />
<path d="M373.65,263.22L373.65,263.22A1.195,1.195 0 1 1 371.26,263.22A1.195,1.195 0 1 1 373.65,263.22Z" style="fill:#89180A" />
<path d="M214.84,380.24L214.84,380.24A1.2252,1.2252 0 1 1 212.39,380.24A1.2252,1.2252 0 1 1 214.84,380.24Z" style="fill:#3B560A" />
<path d="M865.68,434.93L865.68,434.93A1.236,1.236 0 1 1 863.21,434.93A1.236,1.236 0 1 1 865.68,434.93Z" style="fill:#7C730A" />
<path d="M256.01,532.74A1.2641,1.2641 0 1 1 253.48,532.74A1.2641,1.2641 0 1 1 256.01,532.74Z" style="fill:#4FA60A" />
<path d="M258.58,274.26L258.58,274.26A1.2849,1.2849 0 1 1 256.01,274.26A1.2849,1.2849 0 1 1 258.58,274.26Z" style="fill:#501E0B" />
<path d="M316.87,420.7L316.87,420.7A1.3252,1.3252 0 1 1 314.22,420.7A1.3252,1.3252 0 1 1 316.87,420.7Z" style="fill:#6D6C0B" />
<path d="M155.82,634.57A1.3271,1.3271 0 1 1 153.17,634.57A1.3271,1.3271 0 1 1 155.82,634.57Z" style="fill:#1DDC0B" />
<path d="M264.63,759.71A1.3314,1.3314 0 1 1 261.96,759.71A1.3314,1.3314 0 1 1 264.63,759.71Z" style="fill:#531E0B" />
<path d="M140.92,405.3A1.3389,1.3389 0 1 1 138.24,405.3A1.3389,1.3389 0 1 1 140.92,405.3Z" style="fill:#16640B" />
<path d="M347.65,720.57A1.3635,1.3635 0 1 1 344.93,720.57A1.3635,1.3635 0 1 1 347.65,720.57Z" style="fill:#7C0A0B" />
<path d="M506.46,357.88L506.46,357.88A1.3718,1.3718 0 1 1 503.71,357.88A1.3718,1.3718 0 1 1 506.46,357.88Z" style="fill:#CA4A0B" />
<path d="M522.64,416.8A1.3735,1.3735 0 1 1 519.9,416.8A1.3735,1.3735 0 1 1 522.64,416.8Z" style="fill:#D26A0B" />
<path d="M640.94,425.55L640.94,425.55A1.3736,1.3736 0 1 1 638.2,425.55A1.3736,1.3736 0 1 1 640.94,425.55Z" style="fill:#0C6E0B" />
<path d="M652.85,627.97A1.3772,1.3772 0 1 1 650.1,627.97A1.3772,1.3772 0 1 1 652.85,627.97Z" style="fill:#12D90B" />
<path d="M223.81,779.05A1.3823,1.3823 0 1 1 221.04,779.05A1.3823,1.3823 0 1 1 223.81,779.05Z" style="fill:#3F290B" />
<path d="M843.7,408.4A1.388,1.388 0 1 1 840.93,408.4A1.388,1.388 0 1 1 843.7,408.4Z" style="fill:#71650B" />
<path d="M405.23,269.63L405.23,269.63A1.4814,1.4814 0 1 1 402.27,269.63A1.4814,1.4814 0 1 1 405.23,269.63Z" style="fill:#991C0C" />
<path d="M238.33,454.48A1.4926,1.4926 0 1 1 235.34,454.48A1.4926,1.4926 0 1 1 238.33,454.48Z" style="fill:#467E0C" />
<path d="M459.84,662.81A1.5411,1.5411 0 1 1 456.76,662.81A1.5411,1.5411 0 1 1 459.84,662.81Z" style="fill:#B4EB0D" />
<path d="M667.65,533.38L667.65,533.38A1.5567,1.5567 0 1 1 664.54,533.38A1.5567,1.5567 0 1 1 667.65,533.38Z" style="fill:#1AA60D" />
<path d="M753.87,750.04A1.6051,1.6051 0 1 1 750.66,750.04A1.6051,1.6051 0 1 1 753.87,750.04Z" style="fill:#44190D" />
<path d="M558.27,299.91A1.6463,1.6463 0 1 1 554.98,299.91A1.6463,1.6463 0 1 1 558.27,299.91Z" style="fill:#E32C0D" />
<path d="M804.42,513.68A1.6587,1.6587 0 1 1 801.11,513.68A1.6587,1.6587 0 1 1 804.42,513.68Z" style="fill:#5D9C0D" />
<path d="M305.31,499.52L305.31,499.52A1.717,1.717 0 1 1 301.87,499.52A1.717,1.717 0 1 1 305.31,499.52Z" style="fill:#67940E" />
<path d="M417.79,420.05L417.79,420.05A1.7352,1.7352 0 1 1 414.32,420.05A1.7352,1.7352 0 1 1 417.79,420.05Z" style="fill:#9F6B0E" />
<path d="M252.13,623.57L252.13,623.57A1.7507,1.7507 0 1 1 248.63,623.57A1.7507,1.7507 0 1 1 252.13,623.57Z" style="fill:#4DD60E" />
<path d="M513.89,597.08A1.7975,1.7975 0 1 1 510.29,597.08A1.7975,1.7975 0 1 1 513.89,597.08Z" style="fill:#CDC80F" />
<path d="M701.85,500.68A1.8019,1.8019 0 1 1 698.25,500.68A1.8019,1.8019 0 1 1 701.85,500.68Z" style="fill:#2A950F" />
<path d="M538.37,547.01A1.8254,1.8254 0 1 1 534.72,547.01A1.8254,1.8254 0 1 1 538.37,547.01Z" style="fill:#D9AE0F" />
<path d="M383.67,472.49L383.67,472.49A1.8281,1.8281 0 1 1 380.02,472.49A1.8281,1.8281 0 1 1 383.67,472.49Z" style="fill:#8E860F" />
<path d="M588.12,767.1A1.8871,1.8871 0 1 1 584.35,767.1A1.8871,1.8871 0 1 1 588.12,767.1Z" style="fill:#F2220F" />
<path d="M630.53,602.32A1.9384,1.9384 0 1 1 626.65,602.32A1.9384,1.9384 0 1 1 630.53,602.32Z" style="fill:#07CB10" />
<path d="M343.38,731.92A1.9461,1.9461 0 1 1 339.49,731.92A1.9461,1.9461 0 1 1 343.38,731.92Z" style="fill:#7A1010" />
<path d="M329.24,263.22L329.24,263.22A1.9878,1.9878 0 1 1 325.27,263.22A1.9878,1.9878 0 1 1 329.24,263.22Z" style="fill:#731810" />
<path d="M321.67,618.63L321.67,618.63A1.9994,1.9994 0 1 1 317.67,618.63A1.9994,1.9994 0 1 1 321.67,618.63Z" style="fill:#6FD410" />
<path d="M238.29,666.88L238.29,666.88A2.0219,2.0219 0 1 1 234.25,666.88A2.0219,2.0219 0 1 1 238.29,666.88Z" style="fill:#46ED10" />
<path d="M598.04,229.36L598.04,229.36A2.022,2.022 0 1 1 594,229.36A2.022,2.022 0 1 1 598.04,229.36Z" style="fill:#F70610" />
<path d="M695.97,420.01A2.0312,2.0312 0 1 1 691.9,420.01A2.0312,2.0312 0 1 1 695.97,420.01Z" style="fill:#276B10" />
<path d="M534.79,307.05L534.79,307.05A2.0351,2.0351 0 1 1 530.72,307.05A2.0351,2.0351 0 1 1 534.79,307.05Z" style="fill:#D82F10" />
<path d="M462.79,440.01A2.0965,2.0965 0 1 1 458.6,440.01A2.0965,2.0965 0 1 1 462.79,440.01Z" style="fill:#B57611" />
<path d="M669.43,271.73A2.1119,2.1119 0 1 1 665.2,271.73A2.1119,2.1119 0 1 1 669.43,271.73Z" style="fill:#1A1D11" />
<path d="M311.1,489.67A2.2118,2.2118 0 1 1 306.67,489.67A2.2118,2.2118 0 1 1 311.1,489.67Z" style="fill:#6A8F12" />
<path d="M707.33,493.16A2.2421,2.2421 0 1 1 702.85,493.16A2.2421,2.2421 0 1 1 707.33,493.16Z" style="fill:#2D9112" />
<path d="M340.92,185.59L340.92,185.59A2.2748,2.2748 0 1 1 336.37,185.59A2.2748,2.2748 0 1 1 340.92,185.59Z" style="fill:#78EF12" />
<path d="M566.84,656.94L566.84,656.94A2.2761,2.2761 0 1 1 562.29,656.94A2.2761,2.2761 0 1 1 566.84,656.94Z" style="fill:#E7E812" />
<path d="M569.75,480.99A2.2895,2.2895 0 1 1 565.17,480.99A2.2895,2.2895 0 1 1 569.75,480.99Z" style="fill:#E98B12" />
<path d="M715.03,155.27A2.3181,2.3181 0 1 1 710.4,155.27A2.3181,2.3181 0 1 1 715.03,155.27Z" style="fill:#31DF13" />
<path d="M560.75,352.07A2.4193,2.4193 0 1 1 555.91,352.07A2.4193,2.4193 0 1 1 560.75,352.07Z" style="fill:#E44713" />
<path d="M302.14,269.64L302.14,269.64A2.4199,2.4199 0 1 1 297.3,269.64A2.4199,2.4199 0 1 1 302.14,269.64Z" style="fill:#651C13" />
<path d="M544.09,426.97A2.4387,2.4387 0 1 1 539.21,426.97A2.4387,2.4387 0 1 1 544.09,426.97Z" style="fill:#DC6F13" />
<path d="M538.27,348.37A2.4511,2.4511 0 1 1 533.37,348.37A2.4511,2.4511 0 1 1 538.27,348.37Z" style="fill:#D94514" />
<path d="M409.98,351.73A2.4795,2.4795 0 1 1 405.02,351.73A2.4795,2.4795 0 1 1 409.98,351.73Z" style="fill:#9B4714" />
<path d="M852.94,299.29A2.5215,2.5215 0 1 1 847.9,299.29A2.5215,2.5215 0 1 1 852.94,299.29Z" style="fill:#752B14" />
<path d="M288.95,761.69L288.95,761.69A2.5345,2.5345 0 1 1 283.88,761.69A2.5345,2.5345 0 1 1 288.95,761.69Z" style="fill:#5F1F14" />
<path d="M95.179,434.98L95.179,434.98A2.5632,2.5632 0 1 1 90.053,434.98A2.5632,2.5632 0 1 1 95.179,434.98Z" style="fill:#FF7314" />
<path d="M425.85,345.46A2.5661,2.5661 0 1 1 420.72,345.46A2.5661,2.5661 0 1 1 425.85,345.46Z" style="fill:#A24414" />
<path d="M850.96,651.11A2.662,2.662 0 1 1 845.63,651.11A2.662,2.662 0 1 1 850.96,651.11Z" style="fill:#74E515" />
<path d="M236.26,704.02A2.6815,2.6815 0 1 1 230.89,704.02A2.6815,2.6815 0 1 1 236.26,704.02Z" style="fill:#440115" />
<path d="M771.58,761.11A2.7047,2.7047 0 1 1 766.17,761.11A2.7047,2.7047 0 1 1 771.58,761.11Z" style="fill:#4C1F15" />
<path d="M658.67,372.85A2.7317,2.7317 0 1 1 653.2,372.85A2.7317,2.7317 0 1 1 658.67,372.85Z" style="fill:#155216" />
<path d="M417.86,155.18A2.7644,2.7644 0 1 1 412.33,155.18A2.7644,2.7644 0 1 1 417.86,155.18Z" style="fill:#9EDF16" />
<path d="M116.24,156.44A2.7703,2.7703 0 1 1 110.7,156.44A2.7703,2.7703 0 1 1 116.24,156.44Z" style="fill:#09E016" />
<path d="M254.28,479.76A2.7912,2.7912 0 1 1 248.7,479.76A2.7912,2.7912 0 1 1 254.28,479.76Z" style="fill:#4D8A16" />
<path d="M574.02,153.19A2.817,2.817 0 1 1 568.38,153.19A2.817,2.817 0 1 1 574.02,153.19Z" style="fill:#EBDE16" />
<path d="M787.34,411.65L787.34,411.65A2.8206,2.8206 0 1 1 781.7,411.65A2.8206,2.8206 0 1 1 787.34,411.65Z" style="fill:#546716" />
<path d="M563.7,477.62A2.8307,2.8307 0 1 1 558.04,477.62A2.8307,2.8307 0 1 1 563.7,477.62Z" style="fill:#E58916" />
<path d="M799.33,410.24L799.33,410.24A2.8579,2.8579 0 1 1 793.62,410.24A2.8579,2.8579 0 1 1 799.33,410.24Z" style="fill:#5A6617" />
<path d="M546.48,334.26A2.8804,2.8804 0 1 1 540.72,334.26A2.8804,2.8804 0 1 1 546.48,334.26Z" style="fill:#DD3E17" />
<path d="M652.74,471.23L652.74,471.23A2.8926,2.8926 0 1 1 646.96,471.23A2.8926,2.8926 0 1 1 652.74,471.23Z" style="fill:#128617" />
<path d="M866.28,794.23L866.28,794.23A2.9465,2.9465 0 1 1 860.38,794.23A2.9465,2.9465 0 1 1 866.28,794.23Z" style="fill:#7B3117" />
<path d="M342.8,219.59A2.9817,2.9817 0 1 1 336.83,219.59A2.9817,2.9817 0 1 1 342.8,219.59Z" style="fill:#790118" />
<path d="M235.51,787.59A3.0081,3.0081 0 1 1 229.49,787.59A3.0081,3.0081 0 1 1 235.51,787.59Z" style="fill:#442D18" />
<path d="M675.2,374.62L675.2,374.62A3.096,3.096 0 1 1 669,374.62A3.096,3.096 0 1 1 675.2,374.62Z" style="fill:#1D5318" />
<path d="M750.93,592.92L750.93,592.92A3.1061,3.1061 0 1 1 744.72,592.92A3.1061,3.1061 0 1 1 750.93,592.92Z" style="fill:#42C619" />
<path d="M769.92,419.82L769.92,419.82A3.1624,3.1624 0 1 1 763.59,419.82A3.1624,3.1624 0 1 1 769.92,419.82Z" style="fill:#4B6B19" />
<path d="M410.21,661.83L410.21,661.83A3.2002,3.2002 0 1 1 403.81,661.83A3.2002,3.2002 0 1 1 410.21,661.83Z" style="fill:#9AEB19" />
<path d="M476.53,832.74L476.53,832.74A3.2046,3.2046 0 1 1 470.12,832.74A3.2046,3.2046 0 1 1 476.53,832.74Z" style="fill:#BB4519" />
<path d="M817.17,390.77L817.17,390.77A3.209,3.209 0 1 1 810.75,390.77A3.209,3.209 0 1 1 817.17,390.77Z" style="fill:#635C19" />
<path d="M255.96,470.06A3.2191,3.2191 0 1 1 249.52,470.06A3.2191,3.2191 0 1 1 255.96,470.06Z" style="fill:#4E8519" />
<path d="M111.67,659.61A3.2429,3.2429 0 1 1 105.18,659.61A3.2429,3.2429 0 1 1 111.67,659.61Z" style="fill:#06E91A" />
<path d="M710.01,448.46L710.01,448.46A3.2512,3.2512 0 1 1 703.51,448.46A3.2512,3.2512 0 1 1 710.01,448.46Z" style="fill:#2E7A1A" />
<path d="M118.99,498.87L118.99,498.87A3.3013,3.3013 0 1 1 112.38,498.87A3.3013,3.3013 0 1 1 118.99,498.87Z" style="fill:#0A941A" />
<path d="M625.77,719.32L625.77,719.32A3.3048,3.3048 0 1 1 619.16,719.32A3.3048,3.3048 0 1 1 625.77,719.32Z" style="fill:#04091A" />
<path d="M252.97,560.71A3.3068,3.3068 0 1 1 246.36,560.71A3.3068,3.3068 0 1 1 252.97,560.71Z" style="fill:#4CB51A" />
<path d="M250.36,257.65L250.36,257.65A3.3251,3.3251 0 1 1 243.71,257.65A3.3251,3.3251 0 1 1 250.36,257.65Z" style="fill:#4B151A" />
<path d="M705.07,263.92L705.07,263.92A3.3712,3.3712 0 1 1 698.33,263.92A3.3712,3.3712 0 1 1 705.07,263.92Z" style="fill:#2B191B" />
<path d="M683.89,546.73A3.3773,3.3773 0 1 1 677.14,546.73A3.3773,3.3773 0 1 1 683.89,546.73Z" style="fill:#21AE1B" />
<path d="M801.04,290.07L801.04,290.07A3.4185,3.4185 0 1 1 794.2,290.07A3.4185,3.4185 0 1 1 801.04,290.07Z" style="fill:#5B261B" />
<path d="M341.37,700.05L341.37,700.05A3.4219,3.4219 0 1 1 334.53,700.05A3.4219,3.4219 0 1 1 341.37,700.05Z" style="fill:#78FF1B" />
<path d="M178.94,628.42A3.4546,3.4546 0 1 1 172.03,628.42A3.4546,3.4546 0 1 1 178.94,628.42Z" style="fill:#28D91B" />
<path d="M706.6,656.89L706.6,656.89A3.4689,3.4689 0 1 1 699.66,656.89A3.4689,3.4689 0 1 1 706.6,656.89Z" style="fill:#2CE81B" />
<path d="M448.69,737.71A3.4793,3.4793 0 1 1 441.73,737.71A3.4793,3.4793 0 1 1 448.69,737.71Z" style="fill:#AD131B" />
<path d="M186.52,647.59A3.538,3.538 0 1 1 179.45,647.59A3.538,3.538 0 1 1 186.52,647.59Z" style="fill:#2BE31C" />
<path d="M225.31,805.91A3.5412,3.5412 0 1 1 218.22,805.91A3.5412,3.5412 0 1 1 225.31,805.91Z" style="fill:#3F371C" />
<path d="M208.81,478.18L208.81,478.18A3.5554,3.5554 0 1 1 201.7,478.18A3.5554,3.5554 0 1 1 208.81,478.18Z" style="fill:#36891C" />
<path d="M91.055,378.24A3.5769,3.5769 0 1 1 83.901,378.24A3.5769,3.5769 0 1 1 91.055,378.24Z" style="fill:#FC551C" />
<path d="M262.61,612.61L262.61,612.61A3.5778,3.5778 0 1 1 255.45,612.61A3.5778,3.5778 0 1 1 262.61,612.61Z" style="fill:#51D01C" />
<path d="M292.22,550.58L292.22,550.58A3.6943,3.6943 0 1 1 284.83,550.58A3.6943,3.6943 0 1 1 292.22,550.58Z" style="fill:#60B01D" />
<path d="M455.56,773.36A3.7015,3.7015 0 1 1 448.16,773.36A3.7015,3.7015 0 1 1 455.56,773.36Z" style="fill:#B0261D" />
<path d="M678.22,479.28L678.22,479.28A3.7195,3.7195 0 1 1 670.79,479.28A3.7195,3.7195 0 1 1 678.22,479.28Z" style="fill:#1E8A1D" />
<path d="M700.34,474.9A3.7461,3.7461 0 1 1 692.85,474.9A3.7461,3.7461 0 1 1 700.34,474.9Z" style="fill:#29871D" />
<path d="M196.66,540.02L196.66,540.02A3.7828,3.7828 0 1 1 189.1,540.02A3.7828,3.7828 0 1 1 196.66,540.02Z" style="fill:#30AA1E" />
<path d="M565.65,667.46A3.798,3.798 0 1 1 558.05,667.46A3.798,3.798 0 1 1 565.65,667.46Z" style="fill:#E6EE1E" />
<path d="M570.41,179.95A3.7999,3.7999 0 1 1 562.81,179.95A3.7999,3.7999 0 1 1 570.41,179.95Z" style="fill:#E8EC1E" />
<path d="M692,614.76L692,614.76A3.8773,3.8773 0 1 1 684.25,614.76A3.8773,3.8773 0 1 1 692,614.76Z" style="fill:#24D21E" />
<path d="M691.32,477.13L691.32,477.13A3.8943,3.8943 0 1 1 683.53,477.13A3.8943,3.8943 0 1 1 691.32,477.13Z" style="fill:#24891F" />
<path d="M579.61,148.34A3.922,3.922 0 1 1 571.76,148.34A3.922,3.922 0 1 1 579.61,148.34Z" style="fill:#EDDB1F" />
<path d="M138.12,387.35A3.9428,3.9428 0 1 1 130.23,387.35A3.9428,3.9428 0 1 1 138.12,387.35Z" style="fill:#135A1F" />
<path d="M652.55,176.22A3.9973,3.9973 0 1 1 644.56,176.22A3.9973,3.9973 0 1 1 652.55,176.22Z" style="fill:#11EA1F" />
<path d="M566.19,669.2A4.0206,4.0206 0 1 1 558.15,669.2A4.0206,4.0206 0 1 1 566.19,669.2Z" style="fill:#E6EE20" />
<path d="M554.45,667.35A4.0375,4.0375 0 1 1 546.37,667.35A4.0375,4.0375 0 1 1 554.45,667.35Z" style="fill:#E0ED20" />
<path d="M878.25,424.82A4.0528,4.0528 0 1 1 870.15,424.82A4.0528,4.0528 0 1 1 878.25,424.82Z" style="fill:#816E20" />
<path d="M682.1,470.71A4.1518,4.1518 0 1 1 673.8,470.71A4.1518,4.1518 0 1 1 682.1,470.71Z" style="fill:#1F8521" />
<path d="M847.62,425.63L847.62,425.63A4.2279,4.2279 0 1 1 839.16,425.63A4.2279,4.2279 0 1 1 847.62,425.63Z" style="fill:#716E21" />
<path d="M505.19,138.61A4.2375,4.2375 0 1 1 496.72,138.61A4.2375,4.2375 0 1 1 505.19,138.61Z" style="fill:#C8D621" />
<path d="M561.8,769.14A4.2656,4.2656 0 1 1 553.27,769.14A4.2656,4.2656 0 1 1 561.8,769.14Z" style="fill:#E42321" />
<path d="M869.91,784.23L869.91,784.23A4.3485,4.3485 0 1 1 861.21,784.23A4.3485,4.3485 0 1 1 869.91,784.23Z" style="fill:#7C2B22" />
<path d="M665.95,744.89A4.3763,4.3763 0 1 1 657.2,744.89A4.3763,4.3763 0 1 1 665.95,744.89Z" style="fill:#171722" />
<path d="M869.03,792.36L869.03,792.36A4.4018,4.4018 0 1 1 860.23,792.36A4.4018,4.4018 0 1 1 869.03,792.36Z" style="fill:#7C3022" />
<path d="M115.92,554.27L115.92,554.27A4.4306,4.4306 0 1 1 107.05,554.27A4.4306,4.4306 0 1 1 115.92,554.27Z" style="fill:#08B223" />
<path d="M344.25,131.95A4.4323,4.4323 0 1 1 335.38,131.95A4.4323,4.4323 0 1 1 344.25,131.95Z" style="fill:#79D323" />
<path d="M666.37,605.68L666.37,605.68A4.487,4.487 0 1 1 657.4,605.68A4.487,4.487 0 1 1 666.37,605.68Z" style="fill:#17CD23" />
<path d="M177.14,502.23L177.14,502.23A4.5276,4.5276 0 1 1 168.08,502.23A4.5276,4.5276 0 1 1 177.14,502.23Z" style="fill:#269623" />
<path d="M203.15,438.26L203.15,438.26A4.5819,4.5819 0 1 1 193.99,438.26A4.5819,4.5819 0 1 1 203.15,438.26Z" style="fill:#337524" />
<path d="M758.59,739.58A4.608,4.608 0 1 1 749.38,739.58A4.608,4.608 0 1 1 758.59,739.58Z" style="fill:#451424" />
<path d="M571.81,676.74A4.7042,4.7042 0 1 1 562.4,676.74A4.7042,4.7042 0 1 1 571.81,676.74Z" style="fill:#E9F225" />
<path d="M366.84,836.54A4.7056,4.7056 0 1 1 357.43,836.54A4.7056,4.7056 0 1 1 366.84,836.54Z" style="fill:#844725" />
<path d="M212.6,148.63A4.7096,4.7096 0 1 1 203.18,148.63A4.7096,4.7096 0 1 1 212.6,148.63Z" style="fill:#38DB25" />
<path d="M667.54,316.8L667.54,316.8A4.7427,4.7427 0 1 1 658.05,316.8A4.7427,4.7427 0 1 1 667.54,316.8Z" style="fill:#183525" />
<path d="M732.96,833.8A4.7576,4.7576 0 1 1 723.45,833.8A4.7576,4.7576 0 1 1 732.96,833.8Z" style="fill:#384625" />
<path d="M328.94,242.83L328.94,242.83A4.8059,4.8059 0 1 1 319.33,242.83A4.8059,4.8059 0 1 1 328.94,242.83Z" style="fill:#710D26" />
<path d="M388.64,232.75L388.64,232.75A4.8389,4.8389 0 1 1 378.96,232.75A4.8389,4.8389 0 1 1 388.64,232.75Z" style="fill:#8F0826" />
<path d="M695.22,604.98L695.22,604.98A4.9001,4.9001 0 1 1 685.42,604.98A4.9001,4.9001 0 1 1 695.22,604.98Z" style="fill:#26CC26" />
<path d="M844.86,619.51A4.9166,4.9166 0 1 1 835.02,619.51A4.9166,4.9166 0 1 1 844.86,619.51Z" style="fill:#70D426" />
<path d="M759.93,579.86A5.0284,5.0284 0 1 1 749.87,579.86A5.0284,5.0284 0 1 1 759.93,579.86Z" style="fill:#46BF27" />
<path d="M156.51,385.47A5.0285,5.0285 0 1 1 146.45,385.47A5.0285,5.0285 0 1 1 156.51,385.47Z" style="fill:#1C5927" />
<path d="M307.49,332.7A5.0293,5.0293 0 1 1 297.43,332.7A5.0293,5.0293 0 1 1 307.49,332.7Z" style="fill:#673D27" />
<path d="M94.03,361L94.03,361A5.0473,5.0473 0 1 1 83.935,361A5.0473,5.0473 0 1 1 94.03,361Z" style="fill:#FD4C27" />
<path d="M210.43,581.76L210.43,581.76A5.0547,5.0547 0 1 1 200.32,581.76A5.0547,5.0547 0 1 1 210.43,581.76Z" style="fill:#36C027" />
<path d="M136.83,419.46L136.83,419.46A5.074,5.074 0 1 1 126.68,419.46A5.074,5.074 0 1 1 136.83,419.46Z" style="fill:#126B28" />
<path d="M291.45,604.12L291.45,604.12A5.0756,5.0756 0 1 1 281.29,604.12A5.0756,5.0756 0 1 1 291.45,604.12Z" style="fill:#5FCC28" />
<path d="M697.33,176.96L697.33,176.96A5.1041,5.1041 0 1 1 687.12,176.96A5.1041,5.1041 0 1 1 697.33,176.96Z" style="fill:#27EA28" />
<path d="M691.57,355.07A5.1123,5.1123 0 1 1 681.35,355.07A5.1123,5.1123 0 1 1 691.57,355.07Z" style="fill:#244928" />
<path d="M695.6,566.33L695.6,566.33A5.1206,5.1206 0 1 1 685.36,566.33A5.1206,5.1206 0 1 1 695.6,566.33Z" style="fill:#26B828" />
<path d="M402.21,733.21A5.178,5.178 0 1 1 391.86,733.21A5.178,5.178 0 1 1 402.21,733.21Z" style="fill:#951028" />
<path d="M602.79,96.837A5.1908,5.1908 0 1 1 592.41,96.837A5.1908,5.1908 0 1 1 602.79,96.837Z" style="fill:#F8C029" />
<path d="M878.07,553.43L878.07,553.43A5.2359,5.2359 0 1 1 867.6,553.43A5.2359,5.2359 0 1 1 878.07,553.43Z" style="fill:#80B129" />
<path d="M560.27,243.1A5.2578,5.2578 0 1 1 549.76,243.1A5.2578,5.2578 0 1 1 560.27,243.1Z" style="fill:#E30E29" />
<path d="M84.706,155.86L84.706,155.86A5.3052,5.3052 0 1 1 74.096,155.86A5.3052,5.3052 0 1 1 84.706,155.86Z" style="fill:#F8DF29" />
<path d="M295.78,599.02A5.3282,5.3282 0 1 1 285.12,599.02A5.3282,5.3282 0 1 1 295.78,599.02Z" style="fill:#61C92A" />
<path d="M128.44,764.95A5.3594,5.3594 0 1 1 117.72,764.95A5.3594,5.3594 0 1 1 128.44,764.95Z" style="fill:#0E212A" />
<path d="M114.18,673.15A5.3627,5.3627 0 1 1 103.45,673.15A5.3627,5.3627 0 1 1 114.18,673.15Z" style="fill:#07F12A" />
<path d="M285.62,568.52A5.4159,5.4159 0 1 1 274.79,568.52A5.4159,5.4159 0 1 1 285.62,568.52Z" style="fill:#5CB92A" />
<path d="M880.81,372.72L880.81,372.72A5.4328,5.4328 0 1 1 869.94,372.72A5.4328,5.4328 0 1 1 880.81,372.72Z" style="fill:#81522A" />
<path d="M275.07,596.04A5.4978,5.4978 0 1 1 264.08,596.04A5.4978,5.4978 0 1 1 275.07,596.04Z" style="fill:#56C82B" />
<path d="M872.65,210A5.5346,5.5346 0 1 1 861.58,210A5.5346,5.5346 0 1 1 872.65,210Z" style="fill:#7DFC2B" />
<path d="M699.84,663.92A5.5358,5.5358 0 1 1 688.77,663.92A5.5358,5.5358 0 1 1 699.84,663.92Z" style="fill:#28EC2B" />
<path d="M124.75,304.3A5.5667,5.5667 0 1 1 113.61,304.3A5.5667,5.5667 0 1 1 124.75,304.3Z" style="fill:#0C2E2B" />
<path d="M274.18,326.86A5.5843,5.5843 0 1 1 263.01,326.86A5.5843,5.5843 0 1 1 274.18,326.86Z" style="fill:#563A2C" />
<path d="M391.32,224.57A5.5959,5.5959 0 1 1 380.13,224.57A5.5959,5.5959 0 1 1 391.32,224.57Z" style="fill:#90042C" />
<path d="M281.25,596.9L281.25,596.9A5.6212,5.6212 0 1 1 270.01,596.9A5.6212,5.6212 0 1 1 281.25,596.9Z" style="fill:#59C82C" />
<path d="M598.92,121.08L598.92,121.08A5.6285,5.6285 0 1 1 587.66,121.08A5.6285,5.6285 0 1 1 598.92,121.08Z" style="fill:#F6CD2C" />
<path d="M747.59,121.15A5.6328,5.6328 0 1 1 736.32,121.15A5.6328,5.6328 0 1 1 747.59,121.15Z" style="fill:#3FCD2C" />
<path d="M132.45,155.28A5.6666,5.6666 0 1 1 121.12,155.28A5.6666,5.6666 0 1 1 132.45,155.28Z" style="fill:#10DF2C" />
<path d="M763.45,576.43A5.7017,5.7017 0 1 1 752.04,576.43A5.7017,5.7017 0 1 1 763.45,576.43Z" style="fill:#47BD2C" />
<path d="M444.88,692.59A5.768,5.768 0 1 1 433.35,692.59A5.768,5.768 0 1 1 444.88,692.59Z" style="fill:#AAFB2D" />
<path d="M770.55,555.66L770.55,555.66A5.7687,5.7687 0 1 1 759.01,555.66A5.7687,5.7687 0 1 1 770.55,555.66Z" style="fill:#4AB22D" />
<path d="M293.55,586.97A5.824,5.824 0 1 1 281.91,586.97A5.824,5.824 0 1 1 293.55,586.97Z" style="fill:#5FC32D" />
<path d="M333.39,207.46A5.8972,5.8972 0 1 1 321.59,207.46A5.8972,5.8972 0 1 1 333.39,207.46Z" style="fill:#73FB2E" />
<path d="M289.71,334.9A5.9257,5.9257 0 1 1 277.86,334.9A5.9257,5.9257 0 1 1 289.71,334.9Z" style="fill:#5D3E2E" />
<path d="M394.4,719.47A5.9386,5.9386 0 1 1 382.53,719.47A5.9386,5.9386 0 1 1 394.4,719.47Z" style="fill:#91092E" />
<path d="M189.07,429.39L189.07,429.39A5.9683,5.9683 0 1 1 177.13,429.39A5.9683,5.9683 0 1 1 189.07,429.39Z" style="fill:#2B702E" />
<path d="M204.03,603.37L204.03,603.37A5.9801,5.9801 0 1 1 192.07,603.37A5.9801,5.9801 0 1 1 204.03,603.37Z" style="fill:#33CC2F" />
<path d="M577.57,222.84L577.57,222.84A6.0381,6.0381 0 1 1 565.5,222.84A6.0381,6.0381 0 1 1 577.57,222.84Z" style="fill:#EB032F" />
<path d="M652.63,147.55L652.63,147.55A6.0865,6.0865 0 1 1 640.46,147.55A6.0865,6.0865 0 1 1 652.63,147.55Z" style="fill:#10DB2F" />
<path d="M877.8,735.34L877.8,735.34A6.1691,6.1691 0 1 1 865.46,735.34A6.1691,6.1691 0 1 1 877.8,735.34Z" style="fill:#7F1230" />
<path d="M205.16,350.63L205.16,350.63A6.3106,6.3106 0 1 1 192.54,350.63A6.3106,6.3106 0 1 1 205.16,350.63Z" style="fill:#334731" />
<path d="M756.89,686.61L756.89,686.61A6.319,6.319 0 1 1 744.25,686.61A6.319,6.319 0 1 1 756.89,686.61Z" style="fill:#43F831" />
<path d="M537.5,229.32A6.4101,6.4101 0 1 1 524.68,229.32A6.4101,6.4101 0 1 1 537.5,229.32Z" style="fill:#D70632" />
<path d="M280.97,769.46A6.4789,6.4789 0 1 1 268.02,769.46A6.4789,6.4789 0 1 1 280.97,769.46Z" style="fill:#592432" />
<path d="M261.8,187.03A6.5361,6.5361 0 1 1 248.73,187.03A6.5361,6.5361 0 1 1 261.8,187.03Z" style="fill:#4FF033" />
<path d="M781.54,614.61L781.54,614.61A6.5715,6.5715 0 1 1 768.4,614.61A6.5715,6.5715 0 1 1 781.54,614.61Z" style="fill:#4FD233" />
<path d="M644.82,199.44L644.82,199.44A6.6404,6.6404 0 1 1 631.54,199.44A6.6404,6.6404 0 1 1 644.82,199.44Z" style="fill:#0CF634" />
<path d="M445.8,778.61L445.8,778.61A6.6968,6.6968 0 1 1 432.4,778.61A6.6968,6.6968 0 1 1 445.8,778.61Z" style="fill:#AA2834" />
<path d="M94.185,666.97A6.7151,6.7151 0 1 1 80.755,666.97A6.7151,6.7151 0 1 1 94.185,666.97Z" style="fill:#FCED34" />
<path d="M777.79,658.63L777.79,658.63A6.7287,6.7287 0 1 1 764.33,658.63A6.7287,6.7287 0 1 1 777.79,658.63Z" style="fill:#4EE934" />
<path d="M403.74,697.23A6.8092,6.8092 0 1 1 390.12,697.23A6.8092,6.8092 0 1 1 403.74,697.23Z" style="fill:#95FD35" />
<path d="M408.94,692.47A6.8138,6.8138 0 1 1 395.31,692.47A6.8138,6.8138 0 1 1 408.94,692.47Z" style="fill:#98FB35" />
<path d="M243.55,800A6.8688,6.8688 0 1 1 229.81,800A6.8688,6.8688 0 1 1 243.55,800Z" style="fill:#463435" />
<path d="M201.67,564.27L201.67,564.27A6.8823,6.8823 0 1 1 187.9,564.27A6.8823,6.8823 0 1 1 201.67,564.27Z" style="fill:#31B735" />
<path d="M94.547,146.6A6.9008,6.9008 0 1 1 80.745,146.6A6.9008,6.9008 0 1 1 94.547,146.6Z" style="fill:#FCDA36" />
<path d="M414.73,196.05L414.73,196.05A6.9085,6.9085 0 1 1 400.91,196.05A6.9085,6.9085 0 1 1 414.73,196.05Z" style="fill:#9BF536" />
<path d="M331.93,780.03A6.9193,6.9193 0 1 1 318.09,780.03A6.9193,6.9193 0 1 1 331.93,780.03Z" style="fill:#722936" />
<path d="M567.72,776.81L567.72,776.81A6.9368,6.9368 0 1 1 553.84,776.81A6.9368,6.9368 0 1 1 567.72,776.81Z" style="fill:#E52836" />
<path d="M547.07,691.84A6.9375,6.9375 0 1 1 533.19,691.84A6.9375,6.9375 0 1 1 547.07,691.84Z" style="fill:#DBFA36" />
<path d="M142.44,619.72A6.9483,6.9483 0 1 1 128.54,619.72A6.9483,6.9483 0 1 1 142.44,619.72Z" style="fill:#14D436" />
<path d="M837.86,429.12A6.9755,6.9755 0 1 1 823.91,429.12A6.9755,6.9755 0 1 1 837.86,429.12Z" style="fill:#6B7036" />
<path d="M189.17,370.67A7.0101,7.0101 0 1 1 175.15,370.67A7.0101,7.0101 0 1 1 189.17,370.67Z" style="fill:#2B5136" />
<path d="M770.82,346.08L770.82,346.08A7.1256,7.1256 0 1 1 756.57,346.08A7.1256,7.1256 0 1 1 770.82,346.08Z" style="fill:#4A4437" />
<path d="M540.51,699.38L540.51,699.38A7.1445,7.1445 0 1 1 526.22,699.38A7.1445,7.1445 0 1 1 540.51,699.38Z" style="fill:#D8FE37" />
<path d="M842.13,305.66A7.1631,7.1631 0 1 1 827.81,305.66A7.1631,7.1631 0 1 1 842.13,305.66Z" style="fill:#6D2F38" />
<path d="M433.86,699.96L433.86,699.96A7.187,7.187 0 1 1 419.49,699.96A7.187,7.187 0 1 1 433.86,699.96Z" style="fill:#A4FF38" />
<path d="M193.78,443.48L193.78,443.48A7.2049,7.2049 0 1 1 179.37,443.48A7.2049,7.2049 0 1 1 193.78,443.48Z" style="fill:#2D7838" />
<path d="M187.38,485.1A7.2053,7.2053 0 1 1 172.97,485.1A7.2053,7.2053 0 1 1 187.38,485.1Z" style="fill:#2A8D38" />
<path d="M115.68,216.18A7.2782,7.2782 0 1 1 101.12,216.18A7.2782,7.2782 0 1 1 115.68,216.18Z" style="fill:#06FF38" />
<path d="M521.32,135.07L521.32,135.07A7.5044,7.5044 0 1 1 506.32,135.07A7.5044,7.5044 0 1 1 521.32,135.07Z" style="fill:#CED43A" />
<path d="M795.71,545.92L795.71,545.92A7.5157,7.5157 0 1 1 780.67,545.92A7.5157,7.5157 0 1 1 795.71,545.92Z" style="fill:#56AD3A" />
<path d="M132.43,307.67A7.546,7.546 0 1 1 117.34,307.67A7.546,7.546 0 1 1 132.43,307.67Z" style="fill:#0F303B" />
<path d="M427.55,705.54L427.55,705.54A7.6584,7.6584 0 1 1 412.23,705.54A7.6584,7.6584 0 1 1 427.55,705.54Z" style="fill:#A1023B" />
<path d="M644.24,138.37L644.24,138.37A7.6693,7.6693 0 1 1 628.9,138.37A7.6693,7.6693 0 1 1 644.24,138.37Z" style="fill:#0BD63B" />
<path d="M198.04,357.25A7.6824,7.6824 0 1 1 182.68,357.25A7.6824,7.6824 0 1 1 198.04,357.25Z" style="fill:#2F4A3C" />
<path d="M159.03,266.66A7.6857,7.6857 0 1 1 143.66,266.66A7.6857,7.6857 0 1 1 159.03,266.66Z" style="fill:#1C1A3C" />
<path d="M654.61,725L654.61,725A7.7279,7.7279 0 1 1 639.15,725A7.7279,7.7279 0 1 1 654.61,725Z" style="fill:#100C3C" />
<path d="M210.76,242.42A7.7395,7.7395 0 1 1 195.28,242.42A7.7395,7.7395 0 1 1 210.76,242.42Z" style="fill:#350D3C" />
<path d="M679.11,771.65L679.11,771.65A7.7653,7.7653 0 1 1 663.57,771.65A7.7653,7.7653 0 1 1 679.11,771.65Z" style="fill:#1C253C" />
<path d="M323.92,777.31L323.92,777.31A7.7658,7.7658 0 1 1 308.39,777.31A7.7658,7.7658 0 1 1 323.92,777.31Z" style="fill:#6D283C" />
<path d="M326.47,712.29A7.8021,7.8021 0 1 1 310.86,712.29A7.8021,7.8021 0 1 1 326.47,712.29Z" style="fill:#6F053C" />
<path d="M466.39,800.31A7.8451,7.8451 0 1 1 450.7,800.31A7.8451,7.8451 0 1 1 466.39,800.31Z" style="fill:#B4343D" />
<path d="M504.67,86.777L504.67,86.777A7.8676,7.8676 0 1 1 488.93,86.777A7.8676,7.8676 0 1 1 504.67,86.777Z" style="fill:#C6BB3D" />
<path d="M778.96,357.55L778.96,357.55A7.888,7.888 0 1 1 763.19,357.55A7.888,7.888 0 1 1 778.96,357.55Z" style="fill:#4E4A3D" />
<path d="M340.38,127.21L340.38,127.21A7.9792,7.9792 0 1 1 324.42,127.21A7.9792,7.9792 0 1 1 340.38,127.21Z" style="fill:#75D03E" />
<path d="M815.5,266.09A7.9836,7.9836 0 1 1 799.53,266.09A7.9836,7.9836 0 1 1 815.5,266.09Z" style="fill:#601A3E" />
<path d="M851.57,330.53A8.0413,8.0413 0 1 1 835.49,330.53A8.0413,8.0413 0 1 1 851.57,330.53Z" style="fill:#713C3E" />
<path d="M252.25,133.34L252.25,133.34A8.0454,8.0454 0 1 1 236.16,133.34A8.0454,8.0454 0 1 1 252.25,133.34Z" style="fill:#4AD33E" />
<path d="M846.74,361.39L846.74,361.39A8.0567,8.0567 0 1 1 830.63,361.39A8.0567,8.0567 0 1 1 846.74,361.39Z" style="fill:#6F4C3E" />
<path d="M694.77,147.26A8.0862,8.0862 0 1 1 678.59,147.26A8.0862,8.0862 0 1 1 694.77,147.26Z" style="fill:#24DB3F" />
<path d="M90.097,258.8L90.097,258.8A8.1078,8.1078 0 1 1 73.882,258.8A8.1078,8.1078 0 1 1 90.097,258.8Z" style="fill:#F9163F" />
<path d="M289.74,734.86A8.1172,8.1172 0 1 1 273.5,734.86A8.1172,8.1172 0 1 1 289.74,734.86Z" style="fill:#5C113F" />
<path d="M130.25,179.66A8.1924,8.1924 0 1 1 113.87,179.66A8.1924,8.1924 0 1 1 130.25,179.66Z" style="fill:#0DEC3F" />
<path d="M377.58,105.72L377.58,105.72A8.2232,8.2232 0 1 1 361.13,105.72A8.2232,8.2232 0 1 1 377.58,105.72Z" style="fill:#88C540" />
<path d="M461.02,793.34A8.28,8.28 0 1 1 444.46,793.34A8.28,8.28 0 1 1 461.02,793.34Z" style="fill:#B13040" />
<path d="M89.676,440.8A8.2901,8.2901 0 1 1 73.096,440.8A8.2901,8.2901 0 1 1 89.676,440.8Z" style="fill:#F97640" />
<path d="M779.3,320.64L779.3,320.64A8.3669,8.3669 0 1 1 762.57,320.64A8.3669,8.3669 0 1 1 779.3,320.64Z" style="fill:#4D3741" />
<path d="M844.52,446.36A8.4015,8.4015 0 1 1 827.71,446.36A8.4015,8.4015 0 1 1 844.52,446.36Z" style="fill:#6E7941" />
<path d="M813.5,374.47A8.4632,8.4632 0 1 1 796.58,374.47A8.4632,8.4632 0 1 1 813.5,374.47Z" style="fill:#5E5342" />
<path d="M91.317,359.94L91.317,359.94A8.5477,8.5477 0 1 1 74.221,359.94A8.5477,8.5477 0 1 1 91.317,359.94Z" style="fill:#FA4C42" />
<path d="M245.2,91.715L245.2,91.715A8.6045,8.6045 0 1 1 227.99,91.715A8.6045,8.6045 0 1 1 245.2,91.715Z" style="fill:#46BD43" />
<path d="M801.04,485.4A8.6336,8.6336 0 1 1 783.77,485.4A8.6336,8.6336 0 1 1 801.04,485.4Z" style="fill:#588D43" />
<path d="M778.85,572.6A8.6584,8.6584 0 1 1 761.53,572.6A8.6584,8.6584 0 1 1 778.85,572.6Z" style="fill:#4DBB43" />
<path d="M310.46,728.49A8.7035,8.7035 0 1 1 293.05,728.49A8.7035,8.7035 0 1 1 310.46,728.49Z" style="fill:#660E43" />
<path d="M659.58,229.7L659.58,229.7A8.7125,8.7125 0 1 1 642.16,229.7A8.7125,8.7125 0 1 1 659.58,229.7Z" style="fill:#120643" />
<path d="M326.45,780.69L326.45,780.69A8.785,8.785 0 1 1 308.88,780.69A8.785,8.785 0 1 1 326.45,780.69Z" style="fill:#6E2A44" />
<path d="M864.19,822.38L864.19,822.38A8.825,8.825 0 1 1 846.54,822.38A8.825,8.825 0 1 1 864.19,822.38Z" style="fill:#774044" />
<path d="M706.01,236.52A8.8895,8.8895 0 1 1 688.23,236.52A8.8895,8.8895 0 1 1 706.01,236.52Z" style="fill:#290A45" />
<path d="M657.87,695.98L657.87,695.98A8.9121,8.9121 0 1 1 640.05,695.98A8.9121,8.9121 0 1 1 657.87,695.98Z" style="fill:#11FD45" />
<path d="M795.66,477.73L795.66,477.73A9.1067,9.1067 0 1 1 777.45,477.73A9.1067,9.1067 0 1 1 795.66,477.73Z" style="fill:#558946" />
<path d="M556.27,781.32A9.2067,9.2067 0 1 1 537.86,781.32A9.2067,9.2067 0 1 1 556.27,781.32Z" style="fill:#DF2A47" />
<path d="M692.9,240.63A9.2253,9.2253 0 1 1 674.45,240.63A9.2253,9.2253 0 1 1 692.9,240.63Z" style="fill:#220C47" />
<path d="M559.94,138.28A9.2316,9.2316 0 1 1 541.48,138.28A9.2316,9.2316 0 1 1 559.94,138.28Z" style="fill:#E0D647" />
<path d="M181.42,658.6A9.2453,9.2453 0 1 1 162.93,658.6A9.2453,9.2453 0 1 1 181.42,658.6Z" style="fill:#26E948" />
<path d="M512.91,113.8A9.3476,9.3476 0 1 1 494.21,113.8A9.3476,9.3476 0 1 1 512.91,113.8Z" style="fill:#C9C948" />
<path d="M343.77,114.69A9.3687,9.3687 0 1 1 325.03,114.69A9.3687,9.3687 0 1 1 343.77,114.69Z" style="fill:#76C948" />
<path d="M830.33,657.64A9.3943,9.3943 0 1 1 811.54,657.64A9.3943,9.3943 0 1 1 830.33,657.64Z" style="fill:#66E849" />
<path d="M828.33,370.28L828.33,370.28A9.4018,9.4018 0 1 1 809.53,370.28A9.4018,9.4018 0 1 1 828.33,370.28Z" style="fill:#655149" />
<path d="M319.96,210.04L319.96,210.04A9.4121,9.4121 0 1 1 301.14,210.04A9.4121,9.4121 0 1 1 319.96,210.04Z" style="fill:#6BFC49" />
<path d="M213.96,780.67L213.96,780.67A9.4393,9.4393 0 1 1 195.08,780.67A9.4393,9.4393 0 1 1 213.96,780.67Z" style="fill:#362A49" />
<path d="M830.16,436.38L830.16,436.38A9.4778,9.4778 0 1 1 811.21,436.38A9.4778,9.4778 0 1 1 830.16,436.38Z" style="fill:#667449" />
<path d="M394.1,128.96L394.1,128.96A9.4858,9.4858 0 1 1 375.13,128.96A9.4858,9.4858 0 1 1 394.1,128.96Z" style="fill:#8FD149" />
<path d="M315.91,200.79L315.91,200.79A9.5264,9.5264 0 1 1 296.85,200.79A9.5264,9.5264 0 1 1 315.91,200.79Z" style="fill:#68F74A" />
<path d="M835.93,479.26L835.93,479.26A9.5391,9.5391 0 1 1 816.85,479.26A9.5391,9.5391 0 1 1 835.93,479.26Z" style="fill:#698A4A" />
<path d="M833.22,176.97A9.6368,9.6368 0 1 1 813.94,176.97A9.6368,9.6368 0 1 1 833.22,176.97Z" style="fill:#68EA4B" />
<path d="M662.64,699.54A9.7771,9.7771 0 1 1 643.09,699.54A9.7771,9.7771 0 1 1 662.64,699.54Z" style="fill:#13FF4C" />
<path d="M88.949,475.85L88.949,475.85A9.8418,9.8418 0 1 1 69.265,475.85A9.8418,9.8418 0 1 1 88.949,475.85Z" style="fill:#F8884C" />
<path d="M303.35,684.74L303.35,684.74A9.8425,9.8425 0 1 1 283.66,684.74A9.8425,9.8425 0 1 1 303.35,684.74Z" style="fill:#62F74C" />
<path d="M807.68,307.8L807.68,307.8A9.906,9.906 0 1 1 787.87,307.8A9.906,9.906 0 1 1 807.68,307.8Z" style="fill:#5B304D" />
<path d="M522.28,124.26A10.017,10.017 0 1 1 502.25,124.26A10.017,10.017 0 1 1 522.28,124.26Z" style="fill:#CDCF4D" />
<path d="M791.19,317.72L791.19,317.72A10.049,10.049 0 1 1 771.09,317.72A10.049,10.049 0 1 1 791.19,317.72Z" style="fill:#53354E" />
<path d="M834.76,609.33L834.76,609.33A10.052,10.052 0 1 1 814.66,609.33A10.052,10.052 0 1 1 834.76,609.33Z" style="fill:#68CF4E" />
<path d="M210.26,234.13A10.054,10.054 0 1 1 190.15,234.13A10.054,10.054 0 1 1 210.26,234.13Z" style="fill:#34094E" />
<path d="M140.45,467.2L140.45,467.2A10.121,10.121 0 1 1 120.21,467.2A10.121,10.121 0 1 1 140.45,467.2Z" style="fill:#11834E" />
<path d="M678.82,724.55A10.268,10.268 0 1 1 658.29,724.55A10.268,10.268 0 1 1 678.82,724.55Z" style="fill:#1B0C4F" />
<path d="M294.57,685.21A10.327,10.327 0 1 1 273.92,685.21A10.327,10.327 0 1 1 294.57,685.21Z" style="fill:#5EF750" />
<path d="M199.25,184.66A10.544,10.544 0 1 1 178.16,184.66A10.544,10.544 0 1 1 199.25,184.66Z" style="fill:#2EEF51" />
<path d="M561.36,785.01A10.582,10.582 0 1 1 540.2,785.01A10.582,10.582 0 1 1 561.36,785.01Z" style="fill:#E02C52" />
<path d="M830.91,444.67A10.759,10.759 0 1 1 809.39,444.67A10.759,10.759 0 1 1 830.91,444.67Z" style="fill:#667853" />
<path d="M316.49,780.22A10.778,10.778 0 1 1 294.94,780.22A10.778,10.778 0 1 1 316.49,780.22Z" style="fill:#682953" />
<path d="M815.27,609.96A10.829,10.829 0 1 1 793.61,609.96A10.829,10.829 0 1 1 815.27,609.96Z" style="fill:#5ECF54" />
<path d="M670.7,701.81A10.867,10.867 0 1 1 648.96,701.81A10.867,10.867 0 1 1 670.7,701.81Z" style="fill:#160054" />
<path d="M175.29,312.59L175.29,312.59A11.049,11.049 0 1 1 153.19,312.59A11.049,11.049 0 1 1 175.29,312.59Z" style="fill:#223255" />
<path d="M442.84,130.98A11.054,11.054 0 1 1 420.74,130.98A11.054,11.054 0 1 1 442.84,130.98Z" style="fill:#A7D255" />
<path d="M125.77,780.89A11.068,11.068 0 1 1 103.64,780.89A11.068,11.068 0 1 1 125.77,780.89Z" style="fill:#0A2A55" />
<path d="M288.99,690.94L288.99,690.94A11.098,11.098 0 1 1 266.8,690.94A11.098,11.098 0 1 1 288.99,690.94Z" style="fill:#5AFA56" />
<path d="M161.89,364.66L161.89,364.66A11.173,11.173 0 1 1 139.54,364.66A11.173,11.173 0 1 1 161.89,364.66Z" style="fill:#1B4E56" />
<path d="M800.15,602.79L800.15,602.79A11.186,11.186 0 1 1 777.78,602.79A11.186,11.186 0 1 1 800.15,602.79Z" style="fill:#56CB56" />
<path d="M826.68,445.81L826.68,445.81A11.196,11.196 0 1 1 804.29,445.81A11.196,11.196 0 1 1 826.68,445.81Z" style="fill:#647956" />
<path d="M306.64,219.92A11.336,11.336 0 1 1 283.97,219.92A11.336,11.336 0 1 1 306.64,219.92Z" style="fill:#630158" />
<path d="M689.39,200.93L689.39,200.93A11.396,11.396 0 1 1 666.6,200.93A11.396,11.396 0 1 1 689.39,200.93Z" style="fill:#1FF758" />
<path d="M676.75,711.65A11.436,11.436 0 1 1 653.88,711.65A11.436,11.436 0 1 1 676.75,711.65Z" style="fill:#190558" />
<path d="M816.01,448.62A11.506,11.506 0 1 1 793,448.62A11.506,11.506 0 1 1 816.01,448.62Z" style="fill:#5E7B59" />
<path d="M793.04,588.17L793.04,588.17A11.509,11.509 0 1 1 770.02,588.17A11.509,11.509 0 1 1 793.04,588.17Z" style="fill:#53C359" />
<path d="M154.85,557.79L154.85,557.79A11.539,11.539 0 1 1 131.77,557.79A11.539,11.539 0 1 1 154.85,557.79Z" style="fill:#18B359" />
<path d="M826.64,470.45A11.57,11.57 0 1 1 803.5,470.45A11.57,11.57 0 1 1 826.64,470.45Z" style="fill:#638559" />
<path d="M596.21,831.78A11.653,11.653 0 1 1 572.91,831.78A11.653,11.653 0 1 1 596.21,831.78Z" style="fill:#F1455A" />
<path d="M796.9,349.43A11.658,11.658 0 1 1 773.58,349.43A11.658,11.658 0 1 1 796.9,349.43Z" style="fill:#55465A" />
<path d="M462.85,808.29L462.85,808.29A11.667,11.667 0 1 1 439.52,808.29A11.667,11.667 0 1 1 462.85,808.29Z" style="fill:#B0385A" />
<path d="M794.62,329.76L794.62,329.76A11.692,11.692 0 1 1 771.23,329.76A11.692,11.692 0 1 1 794.62,329.76Z" style="fill:#533B5A" />
<path d="M89.42,358.05A11.795,11.795 0 1 1 65.83,358.05A11.795,11.795 0 1 1 89.42,358.05Z" style="fill:#F74A5B" />
<path d="M289.98,713.32A11.853,11.853 0 1 1 266.27,713.32A11.853,11.853 0 1 1 289.98,713.32Z" style="fill:#5A065B" />
<path d="M817.4,453.21A11.881,11.881 0 1 1 793.63,453.21A11.881,11.881 0 1 1 817.4,453.21Z" style="fill:#5F7D5C" />
<path d="M780.64,241.16A11.906,11.906 0 1 1 756.83,241.16A11.906,11.906 0 1 1 780.64,241.16Z" style="fill:#4C0D5C" />
<path d="M186.5,572.52L186.5,572.52A11.955,11.955 0 1 1 162.59,572.52A11.955,11.955 0 1 1 186.5,572.52Z" style="fill:#27BB5C" />
<path d="M645.97,799.47A11.993,11.993 0 1 1 621.98,799.47A11.993,11.993 0 1 1 645.97,799.47Z" style="fill:#0A345D" />
<path d="M204.54,192.76A12.023,12.023 0 1 1 180.49,192.76A12.023,12.023 0 1 1 204.54,192.76Z" style="fill:#30F35D" />
<path d="M90.128,665.84L90.128,665.84A12.071,12.071 0 1 1 65.986,665.84A12.071,12.071 0 1 1 90.128,665.84Z" style="fill:#F7ED5D" />
<path d="M568.82,129.93A12.087,12.087 0 1 1 544.65,129.93A12.087,12.087 0 1 1 568.82,129.93Z" style="fill:#E3D25D" />
<path d="M162.56,459.35L162.56,459.35A12.141,12.141 0 1 1 138.27,459.35A12.141,12.141 0 1 1 162.56,459.35Z" style="fill:#1B805E" />
<path d="M564.06,789.37A12.202,12.202 0 1 1 539.65,789.37A12.202,12.202 0 1 1 564.06,789.37Z" style="fill:#E12E5E" />
<path d="M798.57,342.91L798.57,342.91A12.349,12.349 0 1 1 773.87,342.91A12.349,12.349 0 1 1 798.57,342.91Z" style="fill:#55425F" />
<path d="M258.22,800.91A12.424,12.424 0 1 1 233.37,800.91A12.424,12.424 0 1 1 258.22,800.91Z" style="fill:#4A3460" />
<path d="M856.45,694.14L856.45,694.14A12.491,12.491 0 1 1 831.47,694.14A12.491,12.491 0 1 1 856.45,694.14Z" style="fill:#72FC60" />
<path d="M892.74,774.45L892.74,774.45A12.535,12.535 0 1 1 867.67,774.45A12.535,12.535 0 1 1 892.74,774.45Z" style="fill:#842661" />
<path d="M145,330.49A12.641,12.641 0 1 1 119.71,330.49A12.641,12.641 0 1 1 145,330.49Z" style="fill:#123C62" />
<path d="M849.22,674.95L849.22,674.95A12.707,12.707 0 1 1 823.81,674.95A12.707,12.707 0 1 1 849.22,674.95Z" style="fill:#6EF262" />
<path d="M89.942,666.3A12.837,12.837 0 1 1 64.267,666.3A12.837,12.837 0 1 1 89.942,666.3Z" style="fill:#F7ED63" />
<path d="M208.24,139.99L208.24,139.99A12.955,12.955 0 1 1 182.33,139.99A12.955,12.955 0 1 1 208.24,139.99Z" style="fill:#31D764" />
<path d="M799.32,183.35A13.081,13.081 0 1 1 773.16,183.35A13.081,13.081 0 1 1 799.32,183.35Z" style="fill:#55EE65" />
<path d="M255.78,88.941A13.123,13.123 0 1 1 229.54,88.941A13.123,13.123 0 1 1 255.78,88.941Z" style="fill:#49BC65" />
<path d="M343.56,820.66L343.56,820.66A13.238,13.238 0 1 1 317.08,820.66A13.238,13.238 0 1 1 343.56,820.66Z" style="fill:#743F66" />
<path d="M802.6,737.07L802.6,737.07A13.24,13.24 0 1 1 776.12,737.07A13.24,13.24 0 1 1 802.6,737.07Z" style="fill:#571266" />
<path d="M592.01,107.01A13.242,13.242 0 1 1 565.53,107.01A13.242,13.242 0 1 1 592.01,107.01Z" style="fill:#EEC566" />
<path d="M149.75,575.77A13.364,13.364 0 1 1 123.03,575.77A13.364,13.364 0 1 1 149.75,575.77Z" style="fill:#14BD67" />
<path d="M149.54,331.27L149.54,331.27A13.386,13.386 0 1 1 122.77,331.27A13.386,13.386 0 1 1 149.54,331.27Z" style="fill:#143C67" />
<path d="M724.13,122.28L724.13,122.28A13.528,13.528 0 1 1 697.07,122.28A13.528,13.528 0 1 1 724.13,122.28Z" style="fill:#30CE68" />
<path d="M780.35,227.42L780.35,227.42A13.619,13.619 0 1 1 753.11,227.42A13.619,13.619 0 1 1 780.35,227.42Z" style="fill:#4B0569" />
<path d="M885.03,796.87L885.03,796.87A13.923,13.923 0 1 1 857.19,796.87A13.923,13.923 0 1 1 885.03,796.87Z" style="fill:#7F326B" />
<path d="M402.57,804.29A13.933,13.933 0 1 1 374.7,804.29A13.933,13.933 0 1 1 402.57,804.29Z" style="fill:#91366B" />
<path d="M832.26,576.81A14.158,14.158 0 1 1 803.95,576.81A14.158,14.158 0 1 1 832.26,576.81Z" style="fill:#65BD6D" />
<path d="M274.18,789.26A14.275,14.275 0 1 1 245.63,789.26A14.275,14.275 0 1 1 274.18,789.26Z" style="fill:#512E6E" />
<path d="M305.59,784.38A14.576,14.576 0 1 1 276.43,784.38A14.576,14.576 0 1 1 305.59,784.38Z" style="fill:#612C70" />
<path d="M429.57,124.29L429.57,124.29A14.583,14.583 0 1 1 400.4,124.29A14.583,14.583 0 1 1 429.57,124.29Z" style="fill:#9ECF70" />
<path d="M210.75,783.8A14.917,14.917 0 1 1 180.92,783.8A14.917,14.917 0 1 1 210.75,783.8Z" style="fill:#322B73" />
<path d="M260.44,101.69A14.958,14.958 0 1 1 230.53,101.69A14.958,14.958 0 1 1 260.44,101.69Z" style="fill:#4AC373" />
<path d="M839.66,186.62L839.66,186.62A14.971,14.971 0 1 1 809.72,186.62A14.971,14.971 0 1 1 839.66,186.62Z" style="fill:#68F073" />
<path d="M140.17,141.27A15.197,15.197 0 1 1 109.77,141.27A15.197,15.197 0 1 1 140.17,141.27Z" style="fill:#0FD875" />
<path d="M848.03,726.93A15.262,15.262 0 1 1 817.5,726.93A15.262,15.262 0 1 1 848.03,726.93Z" style="fill:#6C0D76" />
<path d="M810,734.29A15.457,15.457 0 1 1 779.09,734.29A15.457,15.457 0 1 1 810,734.29Z" style="fill:#591177" />
<path d="M581.69,114.04L581.69,114.04A15.632,15.632 0 1 1 550.43,114.04A15.632,15.632 0 1 1 581.69,114.04Z" style="fill:#E8C978" />
<path d="M224.53,836.04A15.68,15.68 0 1 1 193.17,836.04A15.68,15.68 0 1 1 224.53,836.04Z" style="fill:#384779" />
<path d="M459.24,822.68L459.24,822.68A16.011,16.011 0 1 1 427.22,822.68A16.011,16.011 0 1 1 459.24,822.68Z" style="fill:#AC407B" />
<path d="M165.86,773.45A16.28,16.28 0 1 1 133.3,773.45A16.28,16.28 0 1 1 165.86,773.45Z" style="fill:#1B267D" />
<path d="M576.78,804.31A16.282,16.282 0 1 1 544.22,804.31A16.282,16.282 0 1 1 576.78,804.31Z" style="fill:#E5367D" />
<path d="M568,118.25A16.424,16.424 0 1 1 535.15,118.25A16.424,16.424 0 1 1 568,118.25Z" style="fill:#E1CB7E" />
<path d="M444.57,115.19L444.57,115.19A16.551,16.551 0 1 1 411.47,115.19A16.551,16.551 0 1 1 444.57,115.19Z" style="fill:#A5CA7F" />
<path d="M785.51,136.61A16.601,16.601 0 1 1 752.31,136.61A16.601,16.601 0 1 1 785.51,136.61Z" style="fill:#4CD580" />
<path d="M727.11,109.15A16.752,16.752 0 1 1 693.61,109.15A16.752,16.752 0 1 1 727.11,109.15Z" style="fill:#2FC781" />
<path d="M98.392,137.15A16.812,16.812 0 1 1 64.767,137.15A16.812,16.812 0 1 1 98.392,137.15Z" style="fill:#F9D581" />
<path d="M900,242.59A16.897,16.897 0 1 1 866.21,242.59A16.897,16.897 0 1 1 900,242.59Z" style="fill:#850D82" />
<path d="M94.318,192.86A17.146,17.146 0 1 1 60.026,192.86A17.146,17.146 0 1 1 94.318,192.86Z" style="fill:#F7F384" />
<path d="M814.54,675.21A17.516,17.516 0 1 1 779.51,675.21A17.516,17.516 0 1 1 814.54,675.21Z" style="fill:#5AF287" />
<path d="M144.75,716.14L144.75,716.14A17.771,17.771 0 1 1 109.21,716.14A17.771,17.771 0 1 1 144.75,716.14Z" style="fill:#100789" />
<path d="M149.38,723.08L149.38,723.08A17.872,17.872 0 1 1 113.64,723.08A17.872,17.872 0 1 1 149.38,723.08Z" style="fill:#120B8A" />
<path d="M674.22,124.73L674.22,124.73A17.908,17.908 0 1 1 638.4,124.73A17.908,17.908 0 1 1 674.22,124.73Z" style="fill:#15CF8A" />
<path d="M796.32,715.85A18.07,18.07 0 1 1 760.18,715.85A18.07,18.07 0 1 1 796.32,715.85Z" style="fill:#51078B" />
<path d="M146.54,717.64A18.104,18.104 0 1 1 110.33,717.64A18.104,18.104 0 1 1 146.54,717.64Z" style="fill:#10088B" />
<path d="M451.12,102.77L451.12,102.77A18.262,18.262 0 1 1 414.59,102.77A18.262,18.262 0 1 1 451.12,102.77Z" style="fill:#A7C38D" />
<path d="M544.78,834.23L544.78,834.23A18.331,18.331 0 1 1 508.12,834.23A18.331,18.331 0 1 1 544.78,834.23Z" style="fill:#D4468D" />
<path d="M574.9,108.79A18.475,18.475 0 1 1 537.95,108.79A18.475,18.475 0 1 1 574.9,108.79Z" style="fill:#E3C68E" />
<path d="M426.72,809.24L426.72,809.24A18.491,18.491 0 1 1 389.74,809.24A18.491,18.491 0 1 1 426.72,809.24Z" style="fill:#9B398E" />
<path d="M145.92,695.84A18.545,18.545 0 1 1 108.83,695.84A18.545,18.545 0 1 1 145.92,695.84Z" style="fill:#10FD8F" />
<path d="M699.29,128.04A18.602,18.602 0 1 1 662.09,128.04A18.602,18.602 0 1 1 699.29,128.04Z" style="fill:#21D18F" />
<path d="M339.01,95.913L339.01,95.913A18.703,18.703 0 1 1 301.61,95.913A18.703,18.703 0 1 1 339.01,95.913Z" style="fill:#6FC090" />
<path d="M137.07,792.6L137.07,792.6A19.037,19.037 0 1 1 98.995,792.6A19.037,19.037 0 1 1 137.07,792.6Z" style="fill:#0B3092" />
<path d="M416.56,95.584A19.087,19.087 0 1 1 378.38,95.584A19.087,19.087 0 1 1 416.56,95.584Z" style="fill:#96BF93" />
<path d="M561.58,811.3L561.58,811.3A19.119,19.119 0 1 1 523.34,811.3A19.119,19.119 0 1 1 561.58,811.3Z" style="fill:#DC3A93" />
<path d="M441.49,105.67A19.42,19.42 0 1 1 402.65,105.67A19.42,19.42 0 1 1 441.49,105.67Z" style="fill:#A2C595" />
<path d="M856.67,133.15A19.698,19.698 0 1 1 817.28,133.15A19.698,19.698 0 1 1 856.67,133.15Z" style="fill:#6ED398" />
<path d="M823.18,240.25L823.18,240.25A19.717,19.717 0 1 1 783.74,240.25A19.717,19.717 0 1 1 823.18,240.25Z" style="fill:#5E0C98" />
<path d="M554.29,85.172A19.734,19.734 0 1 1 514.82,85.172A19.734,19.734 0 1 1 554.29,85.172Z" style="fill:#D8BA98" />
<path d="M800.95,215.4A19.909,19.909 0 1 1 761.13,215.4A19.909,19.909 0 1 1 800.95,215.4Z" style="fill:#52FF99" />
<path d="M554.42,87.846A19.996,19.996 0 1 1 514.43,87.846A19.996,19.996 0 1 1 554.42,87.846Z" style="fill:#D8BB9A" />
<path d="M198.7,701.61L198.7,701.61A20.037,20.037 0 1 1 158.63,701.61A20.037,20.037 0 1 1 198.7,701.61Z" style="fill:#29009A" />
<path d="M153.9,230.04L153.9,230.04A20.039,20.039 0 1 1 113.82,230.04A20.039,20.039 0 1 1 153.9,230.04Z" style="fill:#13079A" />
<path d="M894.14,117.2L894.14,117.2A20.084,20.084 0 1 1 853.97,117.2A20.084,20.084 0 1 1 894.14,117.2Z" style="fill:#81CB9A" />
<path d="M312.98,124.06A20.119,20.119 0 1 1 272.74,124.06A20.119,20.119 0 1 1 312.98,124.06Z" style="fill:#62CE9B" />
<path d="M184.93,683.46A20.218,20.218 0 1 1 144.49,683.46A20.218,20.218 0 1 1 184.93,683.46Z" style="fill:#22F69C" />
<path d="M775.72,822.73L775.72,822.73A20.255,20.255 0 1 1 735.21,822.73A20.255,20.255 0 1 1 775.72,822.73Z" style="fill:#46409C" />
<path d="M838.74,196.39A20.324,20.324 0 1 1 798.1,196.39A20.324,20.324 0 1 1 838.74,196.39Z" style="fill:#65F59C" />
<path d="M568.86,819.26A20.486,20.486 0 1 1 527.89,819.26A20.486,20.486 0 1 1 568.86,819.26Z" style="fill:#DF3E9E" />
<path d="M184.18,723.62A20.497,20.497 0 1 1 143.19,723.62A20.497,20.497 0 1 1 184.18,723.62Z" style="fill:#220B9E" />
<path d="M567.79,88.627A20.826,20.826 0 1 1 526.14,88.627A20.826,20.826 0 1 1 567.79,88.627Z" style="fill:#DFBCA0" />
<path d="M153.8,222.39A20.881,20.881 0 1 1 112.04,222.39A20.881,20.881 0 1 1 153.8,222.39Z" style="fill:#1303A1" />
<path d="M156.44,692.2A20.973,20.973 0 1 1 114.49,692.2A20.973,20.973 0 1 1 156.44,692.2Z" style="fill:#14FBA1" />
<path d="M567.58,826.85L567.58,826.85A20.982,20.982 0 1 1 525.62,826.85A20.982,20.982 0 1 1 567.58,826.85Z" style="fill:#DE42A1" />
<path d="M678.24,803.33A21.287,21.287 0 1 1 635.67,803.33A21.287,21.287 0 1 1 678.24,803.33Z" style="fill:#1536A4" />
<path d="M667.93,86.227L667.93,86.227A21.347,21.347 0 1 1 625.24,86.227A21.347,21.347 0 1 1 667.93,86.227Z" style="fill:#10BAA4" />
<path d="M102,131.53A21.411,21.411 0 1 1 59.175,131.53A21.411,21.411 0 1 1 102,131.53Z" style="fill:#F9D2A5" />
<path d="M802.92,136.64L802.92,136.64A21.479,21.479 0 1 1 759.96,136.64A21.479,21.479 0 1 1 802.92,136.64Z" style="fill:#53D5A5" />
<path d="M724.68,833.95L724.68,833.95A21.551,21.551 0 1 1 681.57,833.95A21.551,21.551 0 1 1 724.68,833.95Z" style="fill:#2C46A6" />
<path d="M158.56,219.3A22.207,22.207 0 1 1 114.15,219.3A22.207,22.207 0 1 1 158.56,219.3Z" style="fill:#1401AB" />
<path d="M785.02,802.3L785.02,802.3A22.412,22.412 0 1 1 740.2,802.3A22.412,22.412 0 1 1 785.02,802.3Z" style="fill:#4935AC" />
<path d="M682.15,113.63L682.15,113.63A22.848,22.848 0 1 1 636.45,113.63A22.848,22.848 0 1 1 682.15,113.63Z" style="fill:#16C9B0" />
<path d="M787.62,801.36L787.62,801.36A23.315,23.315 0 1 1 740.99,801.36A23.315,23.315 0 1 1 787.62,801.36Z" style="fill:#4A35B3" />
<path d="M825.57,694.39L825.57,694.39A23.602,23.602 0 1 1 778.37,694.39A23.602,23.602 0 1 1 825.57,694.39Z" style="fill:#5DFCB5" />
<path d="M839.66,217L839.66,217A24.079,24.079 0 1 1 791.51,217A24.079,24.079 0 1 1 839.66,217Z" style="fill:#6400B9" />
<path d="M832.08,712.02A24.128,24.128 0 1 1 783.83,712.02A24.128,24.128 0 1 1 832.08,712.02Z" style="fill:#6005B9" />
<path d="M832.99,696.55A24.129,24.129 0 1 1 784.73,696.55A24.129,24.129 0 1 1 832.99,696.55Z" style="fill:#60FDB9" />
<path d="M171.57,217.96A24.342,24.342 0 1 1 122.88,217.96A24.342,24.342 0 1 1 171.57,217.96Z" style="fill:#1A00BB" />
<path d="M848.32,135.05A24.566,24.566 0 1 1 799.18,135.05A24.566,24.566 0 1 1 848.32,135.05Z" style="fill:#68D4BD" />
<path d="M678.57,822.35A24.583,24.583 0 1 1 629.41,822.35A24.583,24.583 0 1 1 678.57,822.35Z" style="fill:#1440BD" />
<path d="M697.75,112.1A25.388,25.388 0 1 1 646.97,112.1A25.388,25.388 0 1 1 697.75,112.1Z" style="fill:#1DC8C3" />
<path d="M320.32,810.89L320.32,810.89A25.572,25.572 0 1 1 269.18,810.89A25.572,25.572 0 1 1 320.32,810.89Z" style="fill:#633AC4" />
<path d="M294.65,822.12L294.65,822.12A26.362,26.362 0 1 1 241.92,822.12A26.362,26.362 0 1 1 294.65,822.12Z" style="fill:#5640CB" />
<path d="M865.19,117.84L865.19,117.84A26.369,26.369 0 1 1 812.45,117.84A26.369,26.369 0 1 1 865.19,117.84Z" style="fill:#6FCBCB" />
<path d="M688.05,101.02A26.439,26.439 0 1 1 635.17,101.02A26.439,26.439 0 1 1 688.05,101.02Z" style="fill:#17C2CB" />
<path d="M686.95,825.75L686.95,825.75A26.634,26.634 0 1 1 633.68,825.75A26.634,26.634 0 1 1 686.95,825.75Z" style="fill:#1741CD" />
<path d="M325.9,826.47L325.9,826.47A26.877,26.877 0 1 1 272.15,826.47A26.877,26.877 0 1 1 325.9,826.47Z" style="fill:#6542CE" />
<path d="M833.63,784.24A26.94,26.94 0 1 1 779.75,784.24A26.94,26.94 0 1 1 833.63,784.24Z" style="fill:#5F2BCF" />
<path d="M868.93,105A27.34,27.34 0 1 1 814.25,105A27.34,27.34 0 1 1 868.93,105Z" style="fill:#70C4D2" />
<path d="M304.74,832.62L304.74,832.62A27.796,27.796 0 1 1 249.15,832.62A27.796,27.796 0 1 1 304.74,832.62Z" style="fill:#5A45D6" />
<path d="M302.4,821.98A27.797,27.797 0 1 1 246.8,821.98A27.797,27.797 0 1 1 302.4,821.98Z" style="fill:#593FD6" />
<path d="M708.78,101.7A27.944,27.944 0 1 1 652.9,101.7A27.944,27.944 0 1 1 708.78,101.7Z" style="fill:#21C3D7" />
<path d="M868.98,814.6L868.98,814.6A27.945,27.945 0 1 1 813.08,814.6A27.945,27.945 0 1 1 868.98,814.6Z" style="fill:#703CD7" />
<path d="M707.98,832.96A28.077,28.077 0 1 1 651.83,832.96A28.077,28.077 0 1 1 707.98,832.96Z" style="fill:#2045D8" />
<path d="M311.08,86.486A28.126,28.126 0 1 1 254.82,86.486A28.126,28.126 0 1 1 311.08,86.486Z" style="fill:#5DBBD8" />
<path d="M314.75,101.25A28.135,28.135 0 1 1 258.48,101.25A28.135,28.135 0 1 1 314.75,101.25Z" style="fill:#5FC2D8" />
<path d="M305.11,829.3A28.172,28.172 0 1 1 248.77,829.3A28.172,28.172 0 1 1 305.11,829.3Z" style="fill:#5A43D8" />
<path d="M304.35,93.583L304.35,93.583A28.194,28.194 0 1 1 247.96,93.583A28.194,28.194 0 1 1 304.35,93.583Z" style="fill:#59BED9" />
<path d="M841.87,786.24A28.287,28.287 0 1 1 785.29,786.24A28.287,28.287 0 1 1 841.87,786.24Z" style="fill:#632DD9" />
<path d="M869.85,824.41L869.85,824.41A28.568,28.568 0 1 1 812.71,824.41A28.568,28.568 0 1 1 869.85,824.41Z" style="fill:#7041DB" />
<path d="M869.4,104.15A30.165,30.165 0 1 1 809.07,104.15A30.165,30.165 0 1 1 869.4,104.15Z" style="fill:#6FC4E8" />
<path d="M831.3,131.32A30.628,30.628 0 1 1 770.05,131.32A30.628,30.628 0 1 1 831.3,131.32Z" style="fill:#5CD2EB" />
<path d="M157.6,801.92A30.873,30.873 0 1 1 95.857,801.92A30.873,30.873 0 1 1 157.6,801.92Z" style="fill:#1035ED" />
<path d="M113.55,92.394L113.55,92.394A31.778,31.778 0 1 1 49.995,92.394A31.778,31.778 0 1 1 113.55,92.394Z" style="fill:#F9BEF4" />
<path d="M189.4,127.31L189.4,127.31A34.434,34.434 0 1 1 120.53,127.31A34.434,34.434 0 1 1 189.4,127.31Z" style="fill:#1DD008" />
<path d="M209.55,120.68L209.55,120.68A35.15,35.15 0 1 1 139.25,120.68A35.15,35.15 0 1 1 209.55,120.68Z" style="fill:#27CD0E" />
<path d="M851.64,795.26A35.456,35.456 0 1 1 780.73,795.26A35.456,35.456 0 1 1 851.64,795.26Z" style="fill:#643110" />
<path d="M869.38,104.61A35.74,35.74 0 1 1 797.9,104.61A35.74,35.74 0 1 1 869.38,104.61Z" style="fill:#6DC412" />
<path d="M870.27,98.719L870.27,98.719A37.156,37.156 0 1 1 795.96,98.719A37.156,37.156 0 1 1 870.27,98.719Z" style="fill:#6CC11D" />
<path d="M186.23,123.03L186.23,123.03A37.545,37.545 0 1 1 111.14,123.03A37.545,37.545 0 1 1 186.23,123.03Z" style="fill:#1ACE20" />
<path d="M868.77,814.54A38.418,38.418 0 1 1 791.94,814.54A38.418,38.418 0 1 1 868.77,814.54Z" style="fill:#6B3C27" />
<path d="M167.31,828.43L167.31,828.43A38.495,38.495 0 1 1 90.315,828.43A38.495,38.495 0 1 1 167.31,828.43Z" style="fill:#114327" />
<path d="M218.1,106.68A40.726,40.726 0 1 1 136.65,106.68A40.726,40.726 0 1 1 218.1,106.68Z" style="fill:#29C538" />
<path d="M869.05,91.957L869.05,91.957A42.401,42.401 0 1 1 784.25,91.957A42.401,42.401 0 1 1 869.05,91.957Z" style="fill:#69BD45" />
<path d="M212.2,109.77A43.796,43.796 0 1 1 124.61,109.77A43.796,43.796 0 1 1 212.2,109.77Z" style="fill:#24C750" />
<path d="M866.03,102.15L866.03,102.15A45.667,45.667 0 1 1 774.7,102.15A45.667,45.667 0 1 1 866.03,102.15Z" style="fill:#66C35E" />
<path d="M863.47,833.52A46.283,46.283 0 1 1 770.9,833.52A46.283,46.283 0 1 1 863.47,833.52Z" style="fill:#644663" />
<path d="M862.15,834.02L862.15,834.02A46.713,46.713 0 1 1 768.73,834.02A46.713,46.713 0 1 1 862.15,834.02Z" style="fill:#644666" />
<path d="M852.99,102.02L852.99,102.02A49.175,49.175 0 1 1 754.64,102.02A49.175,49.175 0 1 1 852.99,102.02Z" style="fill:#5EC379" />
<path d="M208.89,97.709L208.89,97.709A49.609,49.609 0 1 1 109.68,97.709A49.609,49.609 0 1 1 208.89,97.709Z" style="fill:#20C07C" />
<path d="M854.1,824.65A50,50 0 1 1 754.1,824.65A50,50 0 1 1 854.1,824.65Z" style="fill:#5E417F" />
<text x="614.7" y="-48.379" transform="scale(1, -1)"
	style="font-family:Times;font-weight:normal;font-style:normal;font-size:12pt">The bigger the circle, the smaller the value</text>
</g>
</svg>
