<?xml version="1.0"?>
<!-- Generated by SVGo and Plotinum VG -->
<svg width="10in" height="10in"
	xmlns="http://www.w3.org/2000/svg"
	xmlns:xlink="http://www.w3.org/1999/xlink">
<g transform="scale(1, -1) translate(0, -900)">
<path d="M0,0L900,0L900,900L0,900Z" style="fill:#FFFFFF" />
<text x="386.88" y="-885.56" transform="scale(1, -1)"
	style="font-family:Times;font-weight:normal;font-style:normal;font-size:12pt">Simulated Annealing</text>
<text x="468.88" y="-4.8267" transform="scale(1, -1)"
	style="font-family:Times;font-weight:normal;font-style:normal;font-size:12pt">X</text>
<text x="144.05" y="-19.502" transform="scale(1, -1)"
	style="font-family:Times;font-weight:normal;font-style:normal;font-size:10pt">-8</text>
<text x="472.19" y="-19.502" transform="scale(1, -1)"
	style="font-family:Times;font-weight:normal;font-style:normal;font-size:10pt">0</text>
<text x="798.24" y="-19.502" transform="scale(1, -1)"
	style="font-family:Times;font-weight:normal;font-style:normal;font-size:10pt">8</text>
<path d="M149.26,31.538L149.26,41.538" style="fill:none;stroke:#000000;stroke-width:0.625" />
<path d="M475.31,31.538L475.31,41.538" style="fill:none;stroke:#000000;stroke-width:0.625" />
<path d="M801.36,31.538L801.36,41.538" style="fill:none;stroke:#000000;stroke-width:0.625" />
<path d="M312.29,36.538L312.29,41.538" style="fill:none;stroke:#000000;stroke-width:0.625" />
<path d="M638.34,36.538L638.34,41.538" style="fill:none;stroke:#000000;stroke-width:0.625" />
<path d="M69.134,41.538L879.47,41.538" style="fill:none;stroke:#000000;stroke-width:0.625" />
<g transform="rotate(90)">
<text x="459.7" y="14.443" transform="scale(1, -1)"
	style="font-family:Times;font-weight:normal;font-style:normal;font-size:12pt">Y</text>
</g>
<text x="19.27" y="-161.42" transform="scale(1, -1)"
	style="font-family:Times;font-weight:normal;font-style:normal;font-size:10pt">-8</text>
<text x="23.433" y="-458.48" transform="scale(1, -1)"
	style="font-family:Times;font-weight:normal;font-style:normal;font-size:10pt">0</text>
<text x="23.433" y="-755.54" transform="scale(1, -1)"
	style="font-family:Times;font-weight:normal;font-style:normal;font-size:10pt">8</text>
<path d="M32.808,167.32L42.808,167.32" style="fill:none;stroke:#000000;stroke-width:0.625" />
<path d="M32.808,464.38L42.808,464.38" style="fill:none;stroke:#000000;stroke-width:0.625" />
<path d="M32.808,761.44L42.808,761.44" style="fill:none;stroke:#000000;stroke-width:0.625" />
<path d="M37.808,315.85L42.808,315.85" style="fill:none;stroke:#000000;stroke-width:0.625" />
<path d="M37.808,612.91L42.808,612.91" style="fill:none;stroke:#000000;stroke-width:0.625" />
<path d="M42.808,94.542L42.808,835.69" style="fill:none;stroke:#000000;stroke-width:0.625" />
<path d="M314.84,640.52A0,0 0 1 1 314.84,640.52A0,0 0 1 1 314.84,640.52Z" style="fill:#70DE01" />
<path d="M605.29,320.51L605.29,320.51A0.014022,0.014022 0 1 1 605.26,320.51A0.014022,0.014022 0 1 1 605.29,320.51Z" style="fill:#FD3301" />
<path d="M382.25,518.45L382.25,518.45A0.10802,0.10802 0 1 1 382.04,518.45A0.10802,0.10802 0 1 1 382.25,518.45Z" style="fill:#919D01" />
<path d="M307.72,518.87A0.17998,0.17998 0 1 1 307.36,518.87A0.17998,0.17998 0 1 1 307.72,518.87Z" style="fill:#6C9D02" />
<path d="M88.923,394.52L88.923,394.52A0.24413,0.24413 0 1 1 88.435,394.52A0.24413,0.24413 0 1 1 88.923,394.52Z" style="fill:#015B03" />
<path d="M490.18,415.4A0.25291,0.25291 0 1 1 489.67,415.4A0.25291,0.25291 0 1 1 490.18,415.4Z" style="fill:#C56603" />
<path d="M118.7,524.2A0.25961,0.25961 0 1 1 118.18,524.2A0.25961,0.25961 0 1 1 118.7,524.2Z" style="fill:#0FA003" />
<path d="M356.61,167.1L356.61,167.1A0.33311,0.33311 0 1 1 355.95,167.1A0.33311,0.33311 0 1 1 356.61,167.1Z" style="fill:#84E003" />
<path d="M342.78,335.48A0.34267,0.34267 0 1 1 342.09,335.48A0.34267,0.34267 0 1 1 342.78,335.48Z" style="fill:#7D3B03" />
<path d="M719.04,394.8A0.50661,0.50661 0 1 1 718.02,394.8A0.50661,0.50661 0 1 1 719.04,394.8Z" style="fill:#355B04" />
<path d="M614.39,449.35A0.52546,0.52546 0 1 1 613.34,449.35A0.52546,0.52546 0 1 1 614.39,449.35Z" style="fill:#017805" />
<path d="M359.71,308.31L359.71,308.31A0.53428,0.53428 0 1 1 358.64,308.31A0.53428,0.53428 0 1 1 359.71,308.31Z" style="fill:#862C05" />
<path d="M600.75,229.93A0.54815,0.54815 0 1 1 599.65,229.93A0.54815,0.54815 0 1 1 600.75,229.93Z" style="fill:#FB0205" />
<path d="M501.52,649.08L501.52,649.08A0.57702,0.57702 0 1 1 500.36,649.08A0.57702,0.57702 0 1 1 501.52,649.08Z" style="fill:#CAE305" />
<path d="M868.61,294.07L868.61,294.07A0.6078,0.6078 0 1 1 867.4,294.07A0.6078,0.6078 0 1 1 868.61,294.07Z" style="fill:#7E2505" />
<path d="M224.54,603.68A0.73607,0.73607 0 1 1 223.07,603.68A0.73607,0.73607 0 1 1 224.54,603.68Z" style="fill:#43CB06" />
<path d="M298.47,397.79L298.47,397.79A0.7495,0.7495 0 1 1 296.97,397.79A0.7495,0.7495 0 1 1 298.47,397.79Z" style="fill:#675D06" />
<path d="M592.33,358.35A0.81276,0.81276 0 1 1 590.7,358.35A0.81276,0.81276 0 1 1 592.33,358.35Z" style="fill:#F74707" />
<path d="M274.01,398.72A0.83581,0.83581 0 1 1 272.33,398.72A0.83581,0.83581 0 1 1 274.01,398.72Z" style="fill:#5B5D07" />
<path d="M499.2,385.18A0.86376,0.86376 0 1 1 497.47,385.18A0.86376,0.86376 0 1 1 499.2,385.18Z" style="fill:#C95607" />
<path d="M740.68,275.38L740.68,275.38A0.86417,0.86417 0 1 1 738.95,275.38A0.86417,0.86417 0 1 1 740.68,275.38Z" style="fill:#3F1B07" />
<path d="M308.1,418.38A0.88652,0.88652 0 1 1 306.33,418.38A0.88652,0.88652 0 1 1 308.1,418.38Z" style="fill:#6C6807" />
<path d="M96.292,275.88A0.89437,0.89437 0 1 1 94.503,275.88A0.89437,0.89437 0 1 1 96.292,275.88Z" style="fill:#041B07" />
<path d="M755.35,284.22A0.89567,0.89567 0 1 1 753.56,284.22A0.89567,0.89567 0 1 1 755.35,284.22Z" style="fill:#461F07" />
<path d="M452.61,384.67A0.90311,0.90311 0 1 1 450.81,384.67A0.90311,0.90311 0 1 1 452.61,384.67Z" style="fill:#B35607" />
<path d="M215.36,595.59A0.93234,0.93234 0 1 1 213.49,595.59A0.93234,0.93234 0 1 1 215.36,595.59Z" style="fill:#3EC608" />
<path d="M364.92,477.74A0.962,0.962 0 1 1 363,477.74A0.962,0.962 0 1 1 364.92,477.74Z" style="fill:#888708" />
<path d="M623.6,550.24A1.0182,1.0182 0 1 1 621.57,550.24A1.0182,1.0182 0 1 1 623.6,550.24Z" style="fill:#06AE08" />
<path d="M301.82,394.46A1.0517,1.0517 0 1 1 299.72,394.46A1.0517,1.0517 0 1 1 301.82,394.46Z" style="fill:#695B09" />
<path d="M583.84,486.32L583.84,486.32A1.0699,1.0699 0 1 1 581.7,486.32A1.0699,1.0699 0 1 1 583.84,486.32Z" style="fill:#F28B09" />
<path d="M330.63,466.27A1.1302,1.1302 0 1 1 328.37,466.27A1.1302,1.1302 0 1 1 330.63,466.27Z" style="fill:#778109" />
<path d="M336.56,264.52A1.1731,1.1731 0 1 1 334.22,264.52A1.1731,1.1731 0 1 1 336.56,264.52Z" style="fill:#7A150A" />
<path d="M871.31,176.51L871.31,176.51A1.1745,1.1745 0 1 1 868.96,176.51A1.1745,1.1745 0 1 1 871.31,176.51Z" style="fill:#7FE50A" />
<path d="M214.16,769.61L214.16,769.61A1.3721,1.3721 0 1 1 211.42,769.61A1.3721,1.3721 0 1 1 214.16,769.61Z" style="fill:#3E240B" />
<path d="M570.18,375.5L570.18,375.5A1.385,1.385 0 1 1 567.41,375.5A1.385,1.385 0 1 1 570.18,375.5Z" style="fill:#EB510B" />
<path d="M564.1,501.5A1.3856,1.3856 0 1 1 561.33,501.5A1.3856,1.3856 0 1 1 564.1,501.5Z" style="fill:#E8930B" />
<path d="M704.32,760.18L704.32,760.18A1.3979,1.3979 0 1 1 701.52,760.18A1.3979,1.3979 0 1 1 704.32,760.18Z" style="fill:#2D1F0B" />
<path d="M666.36,631.68A1.4162,1.4162 0 1 1 663.53,631.68A1.4162,1.4162 0 1 1 666.36,631.68Z" style="fill:#1BDA0B" />
<path d="M502.09,568.12A1.4321,1.4321 0 1 1 499.23,568.12A1.4321,1.4321 0 1 1 502.09,568.12Z" style="fill:#CAB70B" />
<path d="M259.49,169.17A1.4506,1.4506 0 1 1 256.59,169.17A1.4506,1.4506 0 1 1 259.49,169.17Z" style="fill:#54E10C" />
<path d="M363.21,161.16L363.21,161.16A1.4665,1.4665 0 1 1 360.27,161.16A1.4665,1.4665 0 1 1 363.21,161.16Z" style="fill:#87DD0C" />
<path d="M325.2,273.88A1.4685,1.4685 0 1 1 322.26,273.88A1.4685,1.4685 0 1 1 325.2,273.88Z" style="fill:#741A0C" />
<path d="M164.49,642.98L164.49,642.98A1.5022,1.5022 0 1 1 161.48,642.98A1.5022,1.5022 0 1 1 164.49,642.98Z" style="fill:#25E00C" />
<path d="M396.93,549.98L396.93,549.98A1.5492,1.5492 0 1 1 393.83,549.98A1.5492,1.5492 0 1 1 396.93,549.98Z" style="fill:#97AE0C" />
<path d="M369.31,349.23L369.31,349.23A1.5603,1.5603 0 1 1 366.19,349.23A1.5603,1.5603 0 1 1 369.31,349.23Z" style="fill:#8A420C" />
<path d="M216.74,706.97L216.74,706.97A1.5661,1.5661 0 1 1 213.6,706.97A1.5661,1.5661 0 1 1 216.74,706.97Z" style="fill:#3F020C" />
<path d="M460.18,257.7L460.18,257.7A1.5757,1.5757 0 1 1 457.03,257.7A1.5757,1.5757 0 1 1 460.18,257.7Z" style="fill:#B6110D" />
<path d="M594.74,772.84L594.74,772.84A1.583,1.583 0 1 1 591.57,772.84A1.583,1.583 0 1 1 594.74,772.84Z" style="fill:#F7260D" />
<path d="M523.35,308.63L523.35,308.63A1.5941,1.5941 0 1 1 520.16,308.63A1.5941,1.5941 0 1 1 523.35,308.63Z" style="fill:#D42D0D" />
<path d="M414.7,545.18A1.6023,1.6023 0 1 1 411.49,545.18A1.6023,1.6023 0 1 1 414.7,545.18Z" style="fill:#A0AB0D" />
<path d="M211.71,366.36L211.71,366.36A1.6246,1.6246 0 1 1 208.46,366.36A1.6246,1.6246 0 1 1 211.71,366.36Z" style="fill:#3C4C0D" />
<path d="M665.92,169.11L665.92,169.11A1.6264,1.6264 0 1 1 662.66,169.11A1.6264,1.6264 0 1 1 665.92,169.11Z" style="fill:#1AE10D" />
<path d="M519.8,552.25L519.8,552.25A1.8009,1.8009 0 1 1 516.2,552.25A1.8009,1.8009 0 1 1 519.8,552.25Z" style="fill:#D2AF0E" />
<path d="M510.28,746.95L510.28,746.95A1.8021,1.8021 0 1 1 506.67,746.95A1.8021,1.8021 0 1 1 510.28,746.95Z" style="fill:#CE180E" />
<path d="M434.82,374.57A1.8596,1.8596 0 1 1 431.1,374.57A1.8596,1.8596 0 1 1 434.82,374.57Z" style="fill:#AA500F" />
<path d="M433.55,272.47A1.8667,1.8667 0 1 1 429.82,272.47A1.8667,1.8667 0 1 1 433.55,272.47Z" style="fill:#A9190F" />
<path d="M386.72,562.52A1.8914,1.8914 0 1 1 382.93,562.52A1.8914,1.8914 0 1 1 386.72,562.52Z" style="fill:#92B40F" />
<path d="M738.62,688.97A1.8936,1.8936 0 1 1 734.83,688.97A1.8936,1.8936 0 1 1 738.62,688.97Z" style="fill:#3EF80F" />
<path d="M866.57,269.48A1.8981,1.8981 0 1 1 862.77,269.48A1.8981,1.8981 0 1 1 866.57,269.48Z" style="fill:#7D180F" />
<path d="M645.57,545.33L645.57,545.33A1.9072,1.9072 0 1 1 641.76,545.33A1.9072,1.9072 0 1 1 645.57,545.33Z" style="fill:#10AB0F" />
<path d="M491.56,456.15L491.56,456.15A1.961,1.961 0 1 1 487.64,456.15A1.961,1.961 0 1 1 491.56,456.15Z" style="fill:#C57C0F" />
<path d="M742.3,341.61L742.3,341.61A1.9768,1.9768 0 1 1 738.34,341.61A1.9768,1.9768 0 1 1 742.3,341.61Z" style="fill:#403E10" />
<path d="M576.06,457.79A1.9995,1.9995 0 1 1 572.07,457.79A1.9995,1.9995 0 1 1 576.06,457.79Z" style="fill:#EE7D10" />
<path d="M513.68,328.44A2.0305,2.0305 0 1 1 509.62,328.44A2.0305,2.0305 0 1 1 513.68,328.44Z" style="fill:#CF3710" />
<path d="M517.09,500.04A2.0565,2.0565 0 1 1 512.98,500.04A2.0565,2.0565 0 1 1 517.09,500.04Z" style="fill:#D19310" />
<path d="M856.37,451.91A2.0839,2.0839 0 1 1 852.21,451.91A2.0839,2.0839 0 1 1 856.37,451.91Z" style="fill:#777A10" />
<path d="M434.45,365.01L434.45,365.01A2.0855,2.0855 0 1 1 430.28,365.01A2.0855,2.0855 0 1 1 434.45,365.01Z" style="fill:#A94B10" />
<path d="M236.85,476.33A2.1016,2.1016 0 1 1 232.65,476.33A2.1016,2.1016 0 1 1 236.85,476.33Z" style="fill:#488611" />
<path d="M484.5,137.47A2.1074,2.1074 0 1 1 480.29,137.47A2.1074,2.1074 0 1 1 484.5,137.47Z" style="fill:#C1D011" />
<path d="M414.32,500.48L414.32,500.48A2.1132,2.1132 0 1 1 410.1,500.48A2.1132,2.1132 0 1 1 414.32,500.48Z" style="fill:#A09311" />
<path d="M715.01,617.81A2.1249,2.1249 0 1 1 710.76,617.81A2.1249,2.1249 0 1 1 715.01,617.81Z" style="fill:#32D211" />
<path d="M515.63,598.61L515.63,598.61A2.1401,2.1401 0 1 1 511.34,598.61A2.1401,2.1401 0 1 1 515.63,598.61Z" style="fill:#D0C811" />
<path d="M593.68,724.85L593.68,724.85A2.1578,2.1578 0 1 1 589.36,724.85A2.1578,2.1578 0 1 1 593.68,724.85Z" style="fill:#F70C11" />
<path d="M487.7,146.9A2.1999,2.1999 0 1 1 483.3,146.9A2.1999,2.1999 0 1 1 487.7,146.9Z" style="fill:#C3D511" />
<path d="M99.901,313.95A2.2189,2.2189 0 1 1 95.463,313.95A2.2189,2.2189 0 1 1 99.901,313.95Z" style="fill:#052F11" />
<path d="M520.35,763.97A2.2406,2.2406 0 1 1 515.87,763.97A2.2406,2.2406 0 1 1 520.35,763.97Z" style="fill:#D32112" />
<path d="M531.45,362.11L531.45,362.11A2.2898,2.2898 0 1 1 526.87,362.11A2.2898,2.2898 0 1 1 531.45,362.11Z" style="fill:#D84912" />
<path d="M765.09,648.32L765.09,648.32A2.3632,2.3632 0 1 1 760.37,648.32A2.3632,2.3632 0 1 1 765.09,648.32Z" style="fill:#4BE313" />
<path d="M303.16,276.28A2.3777,2.3777 0 1 1 298.4,276.28A2.3777,2.3777 0 1 1 303.16,276.28Z" style="fill:#691B13" />
<path d="M324.89,600.85A2.3955,2.3955 0 1 1 320.1,600.85A2.3955,2.3955 0 1 1 324.89,600.85Z" style="fill:#74C913" />
<path d="M814.79,413.56L814.79,413.56A2.4265,2.4265 0 1 1 809.93,413.56A2.4265,2.4265 0 1 1 814.79,413.56Z" style="fill:#636513" />
<path d="M382.35,662.36A2.4387,2.4387 0 1 1 377.47,662.36A2.4387,2.4387 0 1 1 382.35,662.36Z" style="fill:#90EA13" />
<path d="M267.52,386.51A2.4462,2.4462 0 1 1 262.63,386.51A2.4462,2.4462 0 1 1 267.52,386.51Z" style="fill:#575713" />
<path d="M641.06,469.66A2.4759,2.4759 0 1 1 636.11,469.66A2.4759,2.4759 0 1 1 641.06,469.66Z" style="fill:#0E8213" />
<path d="M202.38,433.75A2.4849,2.4849 0 1 1 197.41,433.75A2.4849,2.4849 0 1 1 202.38,433.75Z" style="fill:#377013" />
<path d="M666.79,277.74L666.79,277.74A2.4932,2.4932 0 1 1 661.81,277.74A2.4932,2.4932 0 1 1 666.79,277.74Z" style="fill:#1A1C13" />
<path d="M77.069,297.72L77.069,297.72A2.5338,2.5338 0 1 1 72.001,297.72A2.5338,2.5338 0 1 1 77.069,297.72Z" style="fill:#FA2714" />
<path d="M600.73,808.55A2.5652,2.5652 0 1 1 595.6,808.55A2.5652,2.5652 0 1 1 600.73,808.55Z" style="fill:#FA3914" />
<path d="M274.46,499.66A2.5927,2.5927 0 1 1 269.28,499.66A2.5927,2.5927 0 1 1 274.46,499.66Z" style="fill:#5B9314" />
<path d="M649.71,442.57A2.6095,2.6095 0 1 1 644.49,442.57A2.6095,2.6095 0 1 1 649.71,442.57Z" style="fill:#127514" />
<path d="M281.72,543.62A2.6132,2.6132 0 1 1 276.5,543.62A2.6132,2.6132 0 1 1 281.72,543.62Z" style="fill:#5EAA14" />
<path d="M650.03,551.25A2.6254,2.6254 0 1 1 644.77,551.25A2.6254,2.6254 0 1 1 650.03,551.25Z" style="fill:#12AE14" />
<path d="M316.98,658.5A2.6414,2.6414 0 1 1 311.7,658.5A2.6414,2.6414 0 1 1 316.98,658.5Z" style="fill:#70E815" />
<path d="M546.48,606.98A2.6629,2.6629 0 1 1 541.16,606.98A2.6629,2.6629 0 1 1 546.48,606.98Z" style="fill:#DFCC15" />
<path d="M576.43,161.59A2.7191,2.7191 0 1 1 570.99,161.59A2.7191,2.7191 0 1 1 576.43,161.59Z" style="fill:#EEDD15" />
<path d="M703.81,654.47A2.7273,2.7273 0 1 1 698.36,654.47A2.7273,2.7273 0 1 1 703.81,654.47Z" style="fill:#2CE615" />
<path d="M452.43,482.68A2.7393,2.7393 0 1 1 446.96,482.68A2.7393,2.7393 0 1 1 452.43,482.68Z" style="fill:#B28915" />
<path d="M591.07,690.59L591.07,690.59A2.7501,2.7501 0 1 1 585.57,690.59A2.7501,2.7501 0 1 1 591.07,690.59Z" style="fill:#F5F915" />
<path d="M243.39,475.63L243.39,475.63A2.7682,2.7682 0 1 1 237.86,475.63A2.7682,2.7682 0 1 1 243.39,475.63Z" style="fill:#4B8616" />
<path d="M258.38,653.36L258.38,653.36A2.804,2.804 0 1 1 252.77,653.36A2.804,2.804 0 1 1 258.38,653.36Z" style="fill:#53E516" />
<path d="M708.19,272.02A2.852,2.852 0 1 1 702.48,272.02A2.852,2.852 0 1 1 708.19,272.02Z" style="fill:#2E1916" />
<path d="M688.01,623.83L688.01,623.83A2.8786,2.8786 0 1 1 682.26,623.83A2.8786,2.8786 0 1 1 688.01,623.83Z" style="fill:#24D516" />
<path d="M866.32,150.95A2.8869,2.8869 0 1 1 860.55,150.95A2.8869,2.8869 0 1 1 866.32,150.95Z" style="fill:#7CD816" />
<path d="M718.8,336.85A2.8886,2.8886 0 1 1 713.02,336.85A2.8886,2.8886 0 1 1 718.8,336.85Z" style="fill:#343C16" />
<path d="M513.23,488.66A2.9156,2.9156 0 1 1 507.4,488.66A2.9156,2.9156 0 1 1 513.23,488.66Z" style="fill:#CF8D17" />
<path d="M524.32,664.32L524.32,664.32A3.0063,3.0063 0 1 1 518.31,664.32A3.0063,3.0063 0 1 1 524.32,664.32Z" style="fill:#D4EB17" />
<path d="M414.62,183.64L414.62,183.64A3.1395,3.1395 0 1 1 408.34,183.64A3.1395,3.1395 0 1 1 414.62,183.64Z" style="fill:#9FE918" />
<path d="M253.76,375.52L253.76,375.52A3.21,3.21 0 1 1 247.34,375.52A3.21,3.21 0 1 1 253.76,375.52Z" style="fill:#505119" />
<path d="M653.98,312.43L653.98,312.43A3.2876,3.2876 0 1 1 647.4,312.43A3.2876,3.2876 0 1 1 653.98,312.43Z" style="fill:#142F19" />
<path d="M268.55,491.36A3.2994,3.2994 0 1 1 261.95,491.36A3.2994,3.2994 0 1 1 268.55,491.36Z" style="fill:#578E1A" />
<path d="M312.23,608.94L312.23,608.94A3.3137,3.3137 0 1 1 305.6,608.94A3.3137,3.3137 0 1 1 312.23,608.94Z" style="fill:#6DCD1A" />
<path d="M250.67,163.59L250.67,163.59A3.3201,3.3201 0 1 1 244.03,163.59A3.3201,3.3201 0 1 1 250.67,163.59Z" style="fill:#4FDE1A" />
<path d="M673.16,307.6A3.3282,3.3282 0 1 1 666.5,307.6A3.3282,3.3282 0 1 1 673.16,307.6Z" style="fill:#1D2C1A" />
<path d="M276.61,491.32L276.61,491.32A3.332,3.332 0 1 1 269.95,491.32A3.332,3.332 0 1 1 276.61,491.32Z" style="fill:#5B8E1A" />
<path d="M809.58,169A3.3761,3.3761 0 1 1 802.83,169A3.3761,3.3761 0 1 1 809.58,169Z" style="fill:#60E11A" />
<path d="M331.57,197.72A3.3883,3.3883 0 1 1 324.79,197.72A3.3883,3.3883 0 1 1 331.57,197.72Z" style="fill:#76F11A" />
<path d="M110.95,276.21A3.414,3.414 0 1 1 104.12,276.21A3.414,3.414 0 1 1 110.95,276.21Z" style="fill:#0A1B1A" />
<path d="M600.44,111.85A3.4241,3.4241 0 1 1 593.59,111.85A3.4241,3.4241 0 1 1 600.44,111.85Z" style="fill:#F9C31B" />
<path d="M640.87,331.06A3.434,3.434 0 1 1 634,331.06A3.434,3.434 0 1 1 640.87,331.06Z" style="fill:#0D391B" />
<path d="M110.74,501.58A3.4834,3.4834 0 1 1 103.77,501.58A3.4834,3.4834 0 1 1 110.74,501.58Z" style="fill:#0A941B" />
<path d="M584.58,683.52A3.5064,3.5064 0 1 1 577.57,683.52A3.5064,3.5064 0 1 1 584.58,683.52Z" style="fill:#F1F61B" />
<path d="M675.44,308.72L675.44,308.72A3.5283,3.5283 0 1 1 668.39,308.72A3.5283,3.5283 0 1 1 675.44,308.72Z" style="fill:#1E2D1B" />
<path d="M401.37,466.87A3.5557,3.5557 0 1 1 394.26,466.87A3.5557,3.5557 0 1 1 401.37,466.87Z" style="fill:#98811C" />
<path d="M676.7,763.27A3.5782,3.5782 0 1 1 669.55,763.27A3.5782,3.5782 0 1 1 676.7,763.27Z" style="fill:#1F201C" />
<path d="M661.03,372.26A3.6438,3.6438 0 1 1 653.74,372.26A3.6438,3.6438 0 1 1 661.03,372.26Z" style="fill:#174F1C" />
<path d="M668.39,482.34L668.39,482.34A3.657,3.657 0 1 1 661.07,482.34A3.657,3.657 0 1 1 668.39,482.34Z" style="fill:#1A891C" />
<path d="M105.13,613.03A3.6731,3.6731 0 1 1 97.788,613.03A3.6731,3.6731 0 1 1 105.13,613.03Z" style="fill:#07D01C" />
<path d="M599.31,122.96L599.31,122.96A3.7434,3.7434 0 1 1 591.82,122.96A3.7434,3.7434 0 1 1 599.31,122.96Z" style="fill:#F9C91D" />
<path d="M190.52,428.88A3.7536,3.7536 0 1 1 183.01,428.88A3.7536,3.7536 0 1 1 190.52,428.88Z" style="fill:#316D1D" />
<path d="M516.68,451.7L516.68,451.7A3.8003,3.8003 0 1 1 509.08,451.7A3.8003,3.8003 0 1 1 516.68,451.7Z" style="fill:#D07A1D" />
<path d="M203.05,561.02A3.8166,3.8166 0 1 1 195.42,561.02A3.8166,3.8166 0 1 1 203.05,561.02Z" style="fill:#37B41D" />
<path d="M313.97,583.69A3.8315,3.8315 0 1 1 306.31,583.69A3.8315,3.8315 0 1 1 313.97,583.69Z" style="fill:#6DC01E" />
<path d="M257.25,455.85A3.8461,3.8461 0 1 1 249.56,455.85A3.8461,3.8461 0 1 1 257.25,455.85Z" style="fill:#527C1E" />
<path d="M768.47,304.76A3.8488,3.8488 0 1 1 760.77,304.76A3.8488,3.8488 0 1 1 768.47,304.76Z" style="fill:#4B2B1E" />
<path d="M134.02,418.55A3.8563,3.8563 0 1 1 126.31,418.55A3.8563,3.8563 0 1 1 134.02,418.55Z" style="fill:#15681E" />
<path d="M676.98,447.17L676.98,447.17A3.9203,3.9203 0 1 1 669.13,447.17A3.9203,3.9203 0 1 1 676.98,447.17Z" style="fill:#1F771E" />
<path d="M743.23,143.83L743.23,143.83A3.9409,3.9409 0 1 1 735.35,143.83A3.9409,3.9409 0 1 1 743.23,143.83Z" style="fill:#3FD41E" />
<path d="M394.82,258.94A3.9463,3.9463 0 1 1 386.92,258.94A3.9463,3.9463 0 1 1 394.82,258.94Z" style="fill:#95121E" />
<path d="M631.69,194.72A3.9691,3.9691 0 1 1 623.76,194.72A3.9691,3.9691 0 1 1 631.69,194.72Z" style="fill:#08EF1F" />
<path d="M275.56,447.59A4.0024,4.0024 0 1 1 267.55,447.59A4.0024,4.0024 0 1 1 275.56,447.59Z" style="fill:#5B771F" />
<path d="M852.42,267.32A4.117,4.117 0 1 1 844.19,267.32A4.117,4.117 0 1 1 852.42,267.32Z" style="fill:#751620" />
<path d="M172.24,761.25A4.1447,4.1447 0 1 1 163.95,761.25A4.1447,4.1447 0 1 1 172.24,761.25Z" style="fill:#281F20" />
<path d="M145.65,393.73A4.2046,4.2046 0 1 1 137.24,393.73A4.2046,4.2046 0 1 1 145.65,393.73Z" style="fill:#1B5A20" />
<path d="M76.36,650.35A4.2119,4.2119 0 1 1 67.937,650.35A4.2119,4.2119 0 1 1 76.36,650.35Z" style="fill:#F9E420" />
<path d="M194.89,490.95A4.2911,4.2911 0 1 1 186.3,490.95A4.2911,4.2911 0 1 1 194.89,490.95Z" style="fill:#338E21" />
<path d="M199.78,557.79L199.78,557.79A4.3044,4.3044 0 1 1 191.17,557.79A4.3044,4.3044 0 1 1 199.78,557.79Z" style="fill:#35B221" />
<path d="M652.92,327.15A4.3085,4.3085 0 1 1 644.3,327.15A4.3085,4.3085 0 1 1 652.92,327.15Z" style="fill:#133721" />
<path d="M362.11,131.16L362.11,131.16A4.3366,4.3366 0 1 1 353.43,131.16A4.3366,4.3366 0 1 1 362.11,131.16Z" style="fill:#85CD21" />
<path d="M626.9,228.73A4.3571,4.3571 0 1 1 618.18,228.73A4.3571,4.3571 0 1 1 626.9,228.73Z" style="fill:#060222" />
<path d="M274.55,462.59A4.4327,4.4327 0 1 1 265.69,462.59A4.4327,4.4327 0 1 1 274.55,462.59Z" style="fill:#5A8022" />
<path d="M759.83,611.31L759.83,611.31A4.4711,4.4711 0 1 1 750.88,611.31A4.4711,4.4711 0 1 1 759.83,611.31Z" style="fill:#47CF22" />
<path d="M627.5,226.73L627.5,226.73A4.5093,4.5093 0 1 1 618.48,226.73A4.5093,4.5093 0 1 1 627.5,226.73Z" style="fill:#060023" />
<path d="M558.53,159.28L558.53,159.28A4.6,4.6 0 1 1 549.33,159.28A4.6,4.6 0 1 1 558.53,159.28Z" style="fill:#E4DC23" />
<path d="M777.23,276.48A4.6003,4.6003 0 1 1 768.03,276.48A4.6003,4.6003 0 1 1 777.23,276.48Z" style="fill:#4F1B23" />
<path d="M760.58,611.27A4.6021,4.6021 0 1 1 751.38,611.27A4.6021,4.6021 0 1 1 760.58,611.27Z" style="fill:#47CF23" />
<path d="M584.38,709.65A4.6815,4.6815 0 1 1 575.01,709.65A4.6815,4.6815 0 1 1 584.38,709.65Z" style="fill:#F10424" />
<path d="M845.83,381.9A4.7115,4.7115 0 1 1 836.41,381.9A4.7115,4.7115 0 1 1 845.83,381.9Z" style="fill:#715424" />
<path d="M651.35,741.78L651.35,741.78A4.721,4.721 0 1 1 641.91,741.78A4.721,4.721 0 1 1 651.35,741.78Z" style="fill:#121524" />
<path d="M661.39,571.09A4.7457,4.7457 0 1 1 651.9,571.09A4.7457,4.7457 0 1 1 661.39,571.09Z" style="fill:#16B924" />
<path d="M237.02,704.7L237.02,704.7A4.7897,4.7897 0 1 1 227.44,704.7A4.7897,4.7897 0 1 1 237.02,704.7Z" style="fill:#470125" />
<path d="M767.66,310.81A4.8465,4.8465 0 1 1 757.97,310.81A4.8465,4.8465 0 1 1 767.66,310.81Z" style="fill:#4B2E25" />
<path d="M254.33,592.43A4.8594,4.8594 0 1 1 244.61,592.43A4.8594,4.8594 0 1 1 254.33,592.43Z" style="fill:#50C425" />
<path d="M197.22,479.48A4.8652,4.8652 0 1 1 187.49,479.48A4.8652,4.8652 0 1 1 197.22,479.48Z" style="fill:#348825" />
<path d="M675.34,564.8A4.9146,4.9146 0 1 1 665.51,564.8A4.9146,4.9146 0 1 1 675.34,564.8Z" style="fill:#1DB626" />
<path d="M330.86,220.19A4.9846,4.9846 0 1 1 320.89,220.19A4.9846,4.9846 0 1 1 330.86,220.19Z" style="fill:#75FD26" />
<path d="M696.15,568.42L696.15,568.42A5.012,5.012 0 1 1 686.12,568.42A5.012,5.012 0 1 1 696.15,568.42Z" style="fill:#27B826" />
<path d="M663.93,354.92L663.93,354.92A5.039,5.039 0 1 1 653.85,354.92A5.039,5.039 0 1 1 663.93,354.92Z" style="fill:#184627" />
<path d="M831.33,626.4L831.33,626.4A5.0812,5.0812 0 1 1 821.17,626.4A5.0812,5.0812 0 1 1 831.33,626.4Z" style="fill:#6AD727" />
<path d="M343.47,110.19L343.47,110.19A5.0918,5.0918 0 1 1 333.28,110.19A5.0918,5.0918 0 1 1 343.47,110.19Z" style="fill:#7BC227" />
<path d="M504.59,147.09A5.1423,5.1423 0 1 1 494.3,147.09A5.1423,5.1423 0 1 1 504.59,147.09Z" style="fill:#C9D627" />
<path d="M379.29,219.36A5.1934,5.1934 0 1 1 368.9,219.36A5.1934,5.1934 0 1 1 379.29,219.36Z" style="fill:#8DFD28" />
<path d="M667.73,328.05L667.73,328.05A5.2718,5.2718 0 1 1 657.18,328.05A5.2718,5.2718 0 1 1 667.73,328.05Z" style="fill:#193728" />
<path d="M381.15,226.6A5.3668,5.3668 0 1 1 370.42,226.6A5.3668,5.3668 0 1 1 381.15,226.6Z" style="fill:#8E0029" />
<path d="M286.31,603.04L286.31,603.04A5.3982,5.3982 0 1 1 275.51,603.04A5.3982,5.3982 0 1 1 286.31,603.04Z" style="fill:#5FCA29" />
<path d="M251.01,771.21A5.4782,5.4782 0 1 1 240.05,771.21A5.4782,5.4782 0 1 1 251.01,771.21Z" style="fill:#4E252A" />
<path d="M278.44,357.64A5.5,5.5 0 1 1 267.44,357.64A5.5,5.5 0 1 1 278.44,357.64Z" style="fill:#5B472A" />
<path d="M132.74,424.88L132.74,424.88A5.5143,5.5143 0 1 1 121.71,424.88A5.5143,5.5143 0 1 1 132.74,424.88Z" style="fill:#146B2A" />
<path d="M765.81,161.65L765.81,161.65A5.543,5.543 0 1 1 754.72,161.65A5.543,5.543 0 1 1 765.81,161.65Z" style="fill:#49DD2A" />
<path d="M669.59,333.16L669.59,333.16A5.5782,5.5782 0 1 1 658.43,333.16A5.5782,5.5782 0 1 1 669.59,333.16Z" style="fill:#1A3A2B" />
<path d="M292.93,742.34A5.5808,5.5808 0 1 1 281.77,742.34A5.5808,5.5808 0 1 1 292.93,742.34Z" style="fill:#62152B" />
<path d="M780.6,274.49A5.6266,5.6266 0 1 1 769.35,274.49A5.6266,5.6266 0 1 1 780.6,274.49Z" style="fill:#511A2B" />
<path d="M850.04,558.78A5.6396,5.6396 0 1 1 838.76,558.78A5.6396,5.6396 0 1 1 850.04,558.78Z" style="fill:#73B22B" />
<path d="M618.86,819.41A5.6735,5.6735 0 1 1 607.52,819.41A5.6735,5.6735 0 1 1 618.86,819.41Z" style="fill:#013F2B" />
<path d="M760.6,592.36L760.6,592.36A5.6878,5.6878 0 1 1 749.22,592.36A5.6878,5.6878 0 1 1 760.6,592.36Z" style="fill:#47C42C" />
<path d="M384.85,717.79L384.85,717.79A5.7099,5.7099 0 1 1 373.43,717.79A5.7099,5.7099 0 1 1 384.85,717.79Z" style="fill:#8F082C" />
<path d="M578.22,713.54L578.22,713.54A5.726,5.726 0 1 1 566.77,713.54A5.726,5.726 0 1 1 578.22,713.54Z" style="fill:#ED062C" />
<path d="M256.39,158.58L256.39,158.58A5.7694,5.7694 0 1 1 244.85,158.58A5.7694,5.7694 0 1 1 256.39,158.58Z" style="fill:#50DC2C" />
<path d="M417.42,680.84L417.42,680.84A5.8289,5.8289 0 1 1 405.76,680.84A5.8289,5.8289 0 1 1 417.42,680.84Z" style="fill:#9FF42D" />
<path d="M844.95,658.2L844.95,658.2A5.9647,5.9647 0 1 1 833.02,658.2A5.9647,5.9647 0 1 1 844.95,658.2Z" style="fill:#70E82E" />
<path d="M635.32,219.2A6.0392,6.0392 0 1 1 623.24,219.2A6.0392,6.0392 0 1 1 635.32,219.2Z" style="fill:#09FC2E" />
<path d="M217.7,804.99L217.7,804.99A6.1668,6.1668 0 1 1 205.36,804.99A6.1668,6.1668 0 1 1 217.7,804.99Z" style="fill:#3D372F" />
<path d="M544.34,730.67A6.194,6.194 0 1 1 531.95,730.67A6.194,6.194 0 1 1 544.34,730.67Z" style="fill:#DC0F2F" />
<path d="M83.696,371.44A6.2511,6.2511 0 1 1 71.194,371.44A6.2511,6.2511 0 1 1 83.696,371.44Z" style="fill:#FB4E30" />
<path d="M720.14,222.31L720.14,222.31A6.2702,6.2702 0 1 1 707.6,222.31A6.2702,6.2702 0 1 1 720.14,222.31Z" style="fill:#33FE30" />
<path d="M243.96,230.39A6.3714,6.3714 0 1 1 231.21,230.39A6.3714,6.3714 0 1 1 243.96,230.39Z" style="fill:#4A0231" />
<path d="M552.93,729.13L552.93,729.13A6.4249,6.4249 0 1 1 540.08,729.13A6.4249,6.4249 0 1 1 552.93,729.13Z" style="fill:#E00E31" />
<path d="M112.98,324.68A6.4437,6.4437 0 1 1 100.09,324.68A6.4437,6.4437 0 1 1 112.98,324.68Z" style="fill:#0A3531" />
<path d="M643.19,201.6L643.19,201.6A6.4473,6.4473 0 1 1 630.3,201.6A6.4473,6.4473 0 1 1 643.19,201.6Z" style="fill:#0DF331" />
<path d="M836.23,746.32A6.452,6.452 0 1 1 823.32,746.32A6.452,6.452 0 1 1 836.23,746.32Z" style="fill:#6B1731" />
<path d="M885.96,307.47A6.4983,6.4983 0 1 1 872.97,307.47A6.4983,6.4983 0 1 1 885.96,307.47Z" style="fill:#842C32" />
<path d="M561.9,202.62A6.5088,6.5088 0 1 1 548.88,202.62A6.5088,6.5088 0 1 1 561.9,202.62Z" style="fill:#E5F432" />
<path d="M190.68,477.45L190.68,477.45A6.627,6.627 0 1 1 177.43,477.45A6.627,6.627 0 1 1 190.68,477.45Z" style="fill:#308733" />
<path d="M709.91,155.23L709.91,155.23A6.7263,6.7263 0 1 1 696.46,155.23A6.7263,6.7263 0 1 1 709.91,155.23Z" style="fill:#2DDA33" />
<path d="M260.06,255.63L260.06,255.63A6.7431,6.7431 0 1 1 246.57,255.63A6.7431,6.7431 0 1 1 260.06,255.63Z" style="fill:#521034" />
<path d="M250.13,202.12L250.13,202.12A6.7848,6.7848 0 1 1 236.56,202.12A6.7848,6.7848 0 1 1 250.13,202.12Z" style="fill:#4DF334" />
<path d="M393.75,218.52L393.75,218.52A6.8293,6.8293 0 1 1 380.09,218.52A6.8293,6.8293 0 1 1 393.75,218.52Z" style="fill:#93FC34" />
<path d="M103.98,792.62L103.98,792.62A6.8341,6.8341 0 1 1 90.309,792.62A6.8341,6.8341 0 1 1 103.98,792.62Z" style="fill:#053034" />
<path d="M831.48,383.49A6.8497,6.8497 0 1 1 817.78,383.49A6.8497,6.8497 0 1 1 831.48,383.49Z" style="fill:#695534" />
<path d="M550.55,774.63A6.8659,6.8659 0 1 1 536.82,774.63A6.8659,6.8659 0 1 1 550.55,774.63Z" style="fill:#DF2734" />
<path d="M844.79,554.76L844.79,554.76A6.8766,6.8766 0 1 1 831.04,554.76A6.8766,6.8766 0 1 1 844.79,554.76Z" style="fill:#6FB035" />
<path d="M856.91,241.66A6.9067,6.9067 0 1 1 843.1,241.66A6.9067,6.9067 0 1 1 856.91,241.66Z" style="fill:#750935" />
<path d="M197.92,592.39L197.92,592.39A6.9098,6.9098 0 1 1 184.1,592.39A6.9098,6.9098 0 1 1 197.92,592.39Z" style="fill:#33C435" />
<path d="M465.46,123.31L465.46,123.31A6.9131,6.9131 0 1 1 451.64,123.31A6.9131,6.9131 0 1 1 465.46,123.31Z" style="fill:#B6C935" />
<path d="M112.76,593.86A6.9405,6.9405 0 1 1 98.88,593.86A6.9405,6.9405 0 1 1 112.76,593.86Z" style="fill:#09C535" />
<path d="M433.23,212.1L433.23,212.1A6.9838,6.9838 0 1 1 419.26,212.1A6.9838,6.9838 0 1 1 433.23,212.1Z" style="fill:#A6F935" />
<path d="M718.41,221.81A7.016,7.016 0 1 1 704.38,221.81A7.016,7.016 0 1 1 718.41,221.81Z" style="fill:#31FE36" />
<path d="M757.28,204.9A7.11,7.11 0 1 1 743.06,204.9A7.11,7.11 0 1 1 757.28,204.9Z" style="fill:#44F536" />
<path d="M878.53,734.56A7.1678,7.1678 0 1 1 864.19,734.56A7.1678,7.1678 0 1 1 878.53,734.56Z" style="fill:#801137" />
<path d="M399,216.76A7.2321,7.2321 0 1 1 384.53,216.76A7.2321,7.2321 0 1 1 399,216.76Z" style="fill:#96FB37" />
<path d="M197.26,346.52L197.26,346.52A7.238,7.238 0 1 1 182.78,346.52A7.238,7.238 0 1 1 197.26,346.52Z" style="fill:#334137" />
<path d="M285.24,158.82L285.24,158.82A7.239,7.239 0 1 1 270.76,158.82A7.239,7.239 0 1 1 285.24,158.82Z" style="fill:#5EDC37" />
<path d="M209.36,230.66A7.2828,7.2828 0 1 1 194.8,230.66A7.2828,7.2828 0 1 1 209.36,230.66Z" style="fill:#380338" />
<path d="M159.76,653.9L159.76,653.9A7.2968,7.2968 0 1 1 145.17,653.9A7.2968,7.2968 0 1 1 159.76,653.9Z" style="fill:#20E638" />
<path d="M113.66,349.18L113.66,349.18A7.2986,7.2986 0 1 1 99.067,349.18A7.2986,7.2986 0 1 1 113.66,349.18Z" style="fill:#094238" />
<path d="M78.43,310.14A7.3472,7.3472 0 1 1 63.736,310.14A7.3472,7.3472 0 1 1 78.43,310.14Z" style="fill:#F82D38" />
<path d="M82.871,318.77L82.871,318.77A7.3549,7.3549 0 1 1 68.161,318.77A7.3549,7.3549 0 1 1 82.871,318.77Z" style="fill:#FA3238" />
<path d="M755.19,147.44A7.4209,7.4209 0 1 1 740.35,147.44A7.4209,7.4209 0 1 1 755.19,147.44Z" style="fill:#43D639" />
<path d="M623.54,108.09A7.4399,7.4399 0 1 1 608.66,108.09A7.4399,7.4399 0 1 1 623.54,108.09Z" style="fill:#03C139" />
<path d="M319.2,721.6L319.2,721.6A7.4808,7.4808 0 1 1 304.24,721.6A7.4808,7.4808 0 1 1 319.2,721.6Z" style="fill:#6E0A39" />
<path d="M649.82,686.36A7.481,7.481 0 1 1 634.86,686.36A7.481,7.481 0 1 1 649.82,686.36Z" style="fill:#0FF739" />
<path d="M237.35,802.39A7.52,7.52 0 1 1 222.31,802.39A7.52,7.52 0 1 1 237.35,802.39Z" style="fill:#463639" />
<path d="M407.57,715.7A7.5855,7.5855 0 1 1 392.4,715.7A7.5855,7.5855 0 1 1 407.57,715.7Z" style="fill:#9A073A" />
<path d="M90.068,716.07A7.6133,7.6133 0 1 1 74.841,716.07A7.6133,7.6133 0 1 1 90.068,716.07Z" style="fill:#FE073A" />
<path d="M647.18,721.5A7.6141,7.6141 0 1 1 631.95,721.5A7.6141,7.6141 0 1 1 647.18,721.5Z" style="fill:#0E0A3A" />
<path d="M404.79,220.7L404.79,220.7A7.6144,7.6144 0 1 1 389.56,220.7A7.6144,7.6144 0 1 1 404.79,220.7Z" style="fill:#98FD3A" />
<path d="M876.87,723.77L876.87,723.77A7.6904,7.6904 0 1 1 861.49,723.77A7.6904,7.6904 0 1 1 876.87,723.77Z" style="fill:#7F0B3B" />
<path d="M278.24,157.83A7.7055,7.7055 0 1 1 262.83,157.83A7.7055,7.7055 0 1 1 278.24,157.83Z" style="fill:#5ADB3B" />
<path d="M411.52,714.4L411.52,714.4A7.7508,7.7508 0 1 1 396.02,714.4A7.7508,7.7508 0 1 1 411.52,714.4Z" style="fill:#9B063B" />
<path d="M418.32,151.76A7.8255,7.8255 0 1 1 402.67,151.76A7.8255,7.8255 0 1 1 418.32,151.76Z" style="fill:#9FD83C" />
<path d="M552.93,216.07L552.93,216.07A7.8336,7.8336 0 1 1 537.26,216.07A7.8336,7.8336 0 1 1 552.93,216.07Z" style="fill:#E0FB3C" />
<path d="M108.96,694.86L108.96,694.86A7.8336,7.8336 0 1 1 93.295,694.86A7.8336,7.8336 0 1 1 108.96,694.86Z" style="fill:#07FC3C" />
<path d="M143.61,382.02A7.9612,7.9612 0 1 1 127.69,382.02A7.9612,7.9612 0 1 1 143.61,382.02Z" style="fill:#18543D" />
<path d="M79.951,186.25L79.951,186.25A8.076,8.076 0 1 1 63.799,186.25A8.076,8.076 0 1 1 79.951,186.25Z" style="fill:#F9EB3E" />
<path d="M874.97,141.08A8.1023,8.1023 0 1 1 858.76,141.08A8.1023,8.1023 0 1 1 874.97,141.08Z" style="fill:#7ED23E" />
<path d="M763.54,249.29A8.1816,8.1816 0 1 1 747.18,249.29A8.1816,8.1816 0 1 1 763.54,249.29Z" style="fill:#470D3E" />
<path d="M552.26,777.91A8.1906,8.1906 0 1 1 535.88,777.91A8.1906,8.1906 0 1 1 552.26,777.91Z" style="fill:#DF283E" />
<path d="M305.4,198.01A8.2245,8.2245 0 1 1 288.95,198.01A8.2245,8.2245 0 1 1 305.4,198.01Z" style="fill:#67F13F" />
<path d="M794.43,765.6A8.2362,8.2362 0 1 1 777.95,765.6A8.2362,8.2362 0 1 1 794.43,765.6Z" style="fill:#56223F" />
<path d="M83.554,605.11A8.2596,8.2596 0 1 1 67.035,605.11A8.2596,8.2596 0 1 1 83.554,605.11Z" style="fill:#FACB3F" />
<path d="M842.03,481.99A8.2791,8.2791 0 1 1 825.47,481.99A8.2791,8.2791 0 1 1 842.03,481.99Z" style="fill:#6D893F" />
<path d="M313.77,152.74L313.77,152.74A8.2847,8.2847 0 1 1 297.2,152.74A8.2847,8.2847 0 1 1 313.77,152.74Z" style="fill:#6BD93F" />
<path d="M109.89,701.31A8.3691,8.3691 0 1 1 93.152,701.31A8.3691,8.3691 0 1 1 109.89,701.31Z" style="fill:#07FF40" />
<path d="M790.22,744.19L790.22,744.19A8.394,8.394 0 1 1 773.43,744.19A8.394,8.394 0 1 1 790.22,744.19Z" style="fill:#541640" />
<path d="M833.45,377.37L833.45,377.37A8.4798,8.4798 0 1 1 816.49,377.37A8.4798,8.4798 0 1 1 833.45,377.37Z" style="fill:#695241" />
<path d="M759.4,223.98L759.4,223.98A8.516,8.516 0 1 1 742.37,223.98A8.516,8.516 0 1 1 759.4,223.98Z" style="fill:#45FF41" />
<path d="M279.81,733.8L279.81,733.8A8.5407,8.5407 0 1 1 262.73,733.8A8.5407,8.5407 0 1 1 279.81,733.8Z" style="fill:#5A1141" />
<path d="M267.27,198.46A8.6098,8.6098 0 1 1 250.05,198.46A8.6098,8.6098 0 1 1 267.27,198.46Z" style="fill:#54F142" />
<path d="M465.78,820.31A8.6526,8.6526 0 1 1 448.48,820.31A8.6526,8.6526 0 1 1 465.78,820.31Z" style="fill:#B63F42" />
<path d="M664.13,199.15A8.6784,8.6784 0 1 1 646.77,199.15A8.6784,8.6784 0 1 1 664.13,199.15Z" style="fill:#16F242" />
<path d="M174.42,658.7A8.6825,8.6825 0 1 1 157.05,658.7A8.6825,8.6825 0 1 1 174.42,658.7Z" style="fill:#27E842" />
<path d="M812.51,309.64A8.7328,8.7328 0 1 1 795.05,309.64A8.7328,8.7328 0 1 1 812.51,309.64Z" style="fill:#5F2D43" />
<path d="M79.037,439.68L79.037,439.68A8.8623,8.8623 0 1 1 61.312,439.68A8.8623,8.8623 0 1 1 79.037,439.68Z" style="fill:#F87344" />
<path d="M883.9,570.82L883.9,570.82A8.8933,8.8933 0 1 1 866.12,570.82A8.8933,8.8933 0 1 1 883.9,570.82Z" style="fill:#82B944" />
<path d="M148.3,745.29A8.8939,8.8939 0 1 1 130.51,745.29A8.8939,8.8939 0 1 1 148.3,745.29Z" style="fill:#1A1744" />
<path d="M238.82,99.115L238.82,99.115A8.9249,8.9249 0 1 1 220.97,99.115A8.9249,8.9249 0 1 1 238.82,99.115Z" style="fill:#46BC44" />
<path d="M884.98,325.73A8.9535,8.9535 0 1 1 867.07,325.73A8.9535,8.9535 0 1 1 884.98,325.73Z" style="fill:#823644" />
<path d="M753.03,796.93L753.03,796.93A8.9949,8.9949 0 1 1 735.04,796.93A8.9949,8.9949 0 1 1 753.03,796.93Z" style="fill:#413345" />
<path d="M845.14,665.11L845.14,665.11A9.0056,9.0056 0 1 1 827.12,665.11A9.0056,9.0056 0 1 1 845.14,665.11Z" style="fill:#6FEC45" />
<path d="M191.56,349.37L191.56,349.37A9.0595,9.0595 0 1 1 173.44,349.37A9.0595,9.0595 0 1 1 191.56,349.37Z" style="fill:#2F4345" />
<path d="M848.58,578.17L848.58,578.17A9.0823,9.0823 0 1 1 830.41,578.17A9.0823,9.0823 0 1 1 848.58,578.17Z" style="fill:#70BD45" />
<path d="M309.71,690.98A9.2455,9.2455 0 1 1 291.22,690.98A9.2455,9.2455 0 1 1 309.71,690.98Z" style="fill:#69FA46" />
<path d="M847.55,595.47L847.55,595.47A9.297,9.297 0 1 1 828.96,595.47A9.297,9.297 0 1 1 847.55,595.47Z" style="fill:#70C647" />
<path d="M205.31,238.35A9.448,9.448 0 1 1 186.42,238.35A9.448,9.448 0 1 1 205.31,238.35Z" style="fill:#350748" />
<path d="M95.057,814.27L95.057,814.27A9.5135,9.5135 0 1 1 76.03,814.27A9.5135,9.5135 0 1 1 95.057,814.27Z" style="fill:#FF3C48" />
<path d="M277.13,774.44L277.13,774.44A9.5335,9.5335 0 1 1 258.06,774.44A9.5335,9.5335 0 1 1 277.13,774.44Z" style="fill:#592749" />
<path d="M666.33,241.61L666.33,241.61A9.5952,9.5952 0 1 1 647.14,241.61A9.5952,9.5952 0 1 1 666.33,241.61Z" style="fill:#170949" />
<path d="M762.92,219.53L762.92,219.53A9.5959,9.5959 0 1 1 743.73,219.53A9.5959,9.5959 0 1 1 762.92,219.53Z" style="fill:#46FD49" />
<path d="M557.41,146.99L557.41,146.99A9.6666,9.6666 0 1 1 538.08,146.99A9.6666,9.6666 0 1 1 557.41,146.99Z" style="fill:#E1D64A" />
<path d="M307.72,776.78A9.7073,9.7073 0 1 1 288.3,776.78A9.7073,9.7073 0 1 1 307.72,776.78Z" style="fill:#67284A" />
<path d="M174.28,611.84A9.7389,9.7389 0 1 1 154.81,611.84A9.7389,9.7389 0 1 1 174.28,611.84Z" style="fill:#26CF4A" />
<path d="M267.51,688.09L267.51,688.09A9.7505,9.7505 0 1 1 248.01,688.09A9.7505,9.7505 0 1 1 267.51,688.09Z" style="fill:#54F84A" />
<path d="M692.4,245.68A9.828,9.828 0 1 1 672.75,245.68A9.828,9.828 0 1 1 692.4,245.68Z" style="fill:#230B4B" />
<path d="M671.22,686.07A9.8797,9.8797 0 1 1 651.46,686.07A9.8797,9.8797 0 1 1 671.22,686.07Z" style="fill:#19F74B" />
<path d="M458.93,801.8L458.93,801.8A9.8873,9.8873 0 1 1 439.15,801.8A9.8873,9.8873 0 1 1 458.93,801.8Z" style="fill:#B2354B" />
<path d="M183.15,324.33A9.8908,9.8908 0 1 1 163.37,324.33A9.8908,9.8908 0 1 1 183.15,324.33Z" style="fill:#2A354B" />
<path d="M840.9,464.86A9.9232,9.9232 0 1 1 821.06,464.86A9.9232,9.9232 0 1 1 840.9,464.86Z" style="fill:#6C804C" />
<path d="M303.17,204.8A9.9255,9.9255 0 1 1 283.32,204.8A9.9255,9.9255 0 1 1 303.17,204.8Z" style="fill:#65F54C" />
<path d="M291.09,245.21L291.09,245.21A9.9557,9.9557 0 1 1 271.18,245.21A9.9557,9.9557 0 1 1 291.09,245.21Z" style="fill:#5F0A4C" />
<path d="M798.6,479.29L798.6,479.29A10.091,10.091 0 1 1 778.42,479.29A10.091,10.091 0 1 1 798.6,479.29Z" style="fill:#57884D" />
<path d="M194.13,256.78A10.091,10.091 0 1 1 173.95,256.78A10.091,10.091 0 1 1 194.13,256.78Z" style="fill:#30114D" />
<path d="M464.17,101.02A10.139,10.139 0 1 1 443.9,101.02A10.139,10.139 0 1 1 464.17,101.02Z" style="fill:#B4BD4D" />
<path d="M310.39,225.75L310.39,225.75A10.184,10.184 0 1 1 290.02,225.75A10.184,10.184 0 1 1 310.39,225.75Z" style="fill:#69004E" />
<path d="M764.82,707.5L764.82,707.5A10.215,10.215 0 1 1 744.39,707.5A10.215,10.215 0 1 1 764.82,707.5Z" style="fill:#47024E" />
<path d="M165.98,445.63A10.252,10.252 0 1 1 145.48,445.63A10.252,10.252 0 1 1 165.98,445.63Z" style="fill:#22764E" />
<path d="M820.31,554.15A10.28,10.28 0 1 1 799.75,554.15A10.28,10.28 0 1 1 820.31,554.15Z" style="fill:#62B04E" />
<path d="M666.82,208.06A10.297,10.297 0 1 1 646.23,208.06A10.297,10.297 0 1 1 666.82,208.06Z" style="fill:#16F64E" />
<path d="M673.89,240.73A10.351,10.351 0 1 1 653.19,240.73A10.351,10.351 0 1 1 673.89,240.73Z" style="fill:#1A084F" />
<path d="M271.9,151.89A10.353,10.353 0 1 1 251.2,151.89A10.353,10.353 0 1 1 271.9,151.89Z" style="fill:#56D84F" />
<path d="M182.25,567.85L182.25,567.85A10.38,10.38 0 1 1 161.49,567.85A10.38,10.38 0 1 1 182.25,567.85Z" style="fill:#2AB74F" />
<path d="M83.319,329.02L83.319,329.02A10.388,10.388 0 1 1 62.544,329.02A10.388,10.388 0 1 1 83.319,329.02Z" style="fill:#F9384F" />
<path d="M295.87,687.56A10.393,10.393 0 1 1 275.08,687.56A10.393,10.393 0 1 1 295.87,687.56Z" style="fill:#61F84F" />
<path d="M132.08,739.52A10.579,10.579 0 1 1 110.92,739.52A10.579,10.579 0 1 1 132.08,739.52Z" style="fill:#111450" />
<path d="M115.1,705.41L115.1,705.41A10.588,10.588 0 1 1 93.925,705.41A10.588,10.588 0 1 1 115.1,705.41Z" style="fill:#090151" />
<path d="M810.88,185.76A10.69,10.69 0 1 1 789.5,185.76A10.69,10.69 0 1 1 810.88,185.76Z" style="fill:#5DEA51" />
<path d="M640.74,793.7A10.714,10.714 0 1 1 619.31,793.7A10.714,10.714 0 1 1 640.74,793.7Z" style="fill:#093152" />
<path d="M136.43,367.7A10.726,10.726 0 1 1 114.98,367.7A10.726,10.726 0 1 1 136.43,367.7Z" style="fill:#134C52" />
<path d="M132.91,564.97L132.91,564.97A10.802,10.802 0 1 1 111.3,564.97A10.802,10.802 0 1 1 132.91,564.97Z" style="fill:#11B652" />
<path d="M667.26,229.46A10.847,10.847 0 1 1 645.57,229.46A10.847,10.847 0 1 1 667.26,229.46Z" style="fill:#160253" />
<path d="M277.79,206.76A10.908,10.908 0 1 1 255.97,206.76A10.908,10.908 0 1 1 277.79,206.76Z" style="fill:#58F653" />
<path d="M109.05,815.07L109.05,815.07A10.936,10.936 0 1 1 87.181,815.07A10.936,10.936 0 1 1 109.05,815.07Z" style="fill:#053C53" />
<path d="M148.02,557.09L148.02,557.09A10.941,10.941 0 1 1 126.13,557.09A10.941,10.941 0 1 1 148.02,557.09Z" style="fill:#19B153" />
<path d="M300.57,718.18L300.57,718.18A11.061,11.061 0 1 1 278.45,718.18A11.061,11.061 0 1 1 300.57,718.18Z" style="fill:#630854" />
<path d="M789.4,332.11A11.061,11.061 0 1 1 767.28,332.11A11.061,11.061 0 1 1 789.4,332.11Z" style="fill:#523954" />
<path d="M781.58,772.22A11.07,11.07 0 1 1 759.44,772.22A11.07,11.07 0 1 1 781.58,772.22Z" style="fill:#4E2554" />
<path d="M526.46,136.68A11.145,11.145 0 1 1 504.17,136.68A11.145,11.145 0 1 1 526.46,136.68Z" style="fill:#D1D055" />
<path d="M183.52,333.67A11.187,11.187 0 1 1 161.14,333.67A11.187,11.187 0 1 1 183.52,333.67Z" style="fill:#2A3A55" />
<path d="M834.92,464.48L834.92,464.48A11.235,11.235 0 1 1 812.45,464.48A11.235,11.235 0 1 1 834.92,464.48Z" style="fill:#688055" />
<path d="M791.27,573.24L791.27,573.24A11.266,11.266 0 1 1 768.74,573.24A11.266,11.266 0 1 1 791.27,573.24Z" style="fill:#53BA56" />
<path d="M82.113,666.53L82.113,666.53A11.327,11.327 0 1 1 59.458,666.53A11.327,11.327 0 1 1 82.113,666.53Z" style="fill:#F8EC56" />
<path d="M90.048,234.61A11.377,11.377 0 1 1 67.294,234.61A11.377,11.377 0 1 1 90.048,234.61Z" style="fill:#FC0557" />
<path d="M283.7,692.48A11.383,11.383 0 1 1 260.93,692.48A11.383,11.383 0 1 1 283.7,692.48Z" style="fill:#5BFA57" />
<path d="M81.262,563.95A11.507,11.507 0 1 1 58.248,563.95A11.507,11.507 0 1 1 81.262,563.95Z" style="fill:#F7B558" />
<path d="M301.4,225.98A11.511,11.511 0 1 1 278.38,225.98A11.511,11.511 0 1 1 301.4,225.98Z" style="fill:#640058" />
<path d="M301.09,710.56A11.581,11.581 0 1 1 277.93,710.56A11.581,11.581 0 1 1 301.09,710.56Z" style="fill:#630458" />
<path d="M80.872,469.09A11.738,11.738 0 1 1 57.396,469.09A11.738,11.738 0 1 1 80.872,469.09Z" style="fill:#F78259" />
<path d="M199.56,776.97A11.88,11.88 0 1 1 175.8,776.97A11.88,11.88 0 1 1 199.56,776.97Z" style="fill:#31285A" />
<path d="M122.67,777A11.891,11.891 0 1 1 98.889,777A11.891,11.891 0 1 1 122.67,777Z" style="fill:#0C285A" />
<path d="M182.36,588.68A11.911,11.911 0 1 1 158.53,588.68A11.911,11.911 0 1 1 182.36,588.68Z" style="fill:#29C25B" />
<path d="M169.73,663.76A11.925,11.925 0 1 1 145.88,663.76A11.925,11.925 0 1 1 169.73,663.76Z" style="fill:#23EB5B" />
<path d="M826.27,320.87A11.96,11.96 0 1 1 802.35,320.87A11.96,11.96 0 1 1 826.27,320.87Z" style="fill:#64335B" />
<path d="M459.9,115.69L459.9,115.69A11.999,11.999 0 1 1 435.9,115.69A11.999,11.999 0 1 1 459.9,115.69Z" style="fill:#B1C55B" />
<path d="M148.94,367.07A12.021,12.021 0 1 1 124.9,367.07A12.021,12.021 0 1 1 148.94,367.07Z" style="fill:#184C5B" />
<path d="M679.38,705.98L679.38,705.98A12.105,12.105 0 1 1 655.17,705.98A12.105,12.105 0 1 1 679.38,705.98Z" style="fill:#1C025C" />
<path d="M294.82,219.67L294.82,219.67A12.127,12.127 0 1 1 270.57,219.67A12.127,12.127 0 1 1 294.82,219.67Z" style="fill:#60FD5C" />
<path d="M692.91,710.83L692.91,710.83A12.132,12.132 0 1 1 668.65,710.83A12.132,12.132 0 1 1 692.91,710.83Z" style="fill:#22045C" />
<path d="M384.73,116.73A12.217,12.217 0 1 1 360.3,116.73A12.217,12.217 0 1 1 384.73,116.73Z" style="fill:#8CC55D" />
<path d="M156.36,462.03A12.298,12.298 0 1 1 131.76,462.03A12.298,12.298 0 1 1 156.36,462.03Z" style="fill:#1C7F5D" />
<path d="M163.15,188.13A12.369,12.369 0 1 1 138.41,188.13A12.369,12.369 0 1 1 163.15,188.13Z" style="fill:#1FEC5E" />
<path d="M247.73,811.38L247.73,811.38A12.414,12.414 0 1 1 222.9,811.38A12.414,12.414 0 1 1 247.73,811.38Z" style="fill:#493A5E" />
<path d="M522.78,801.15A12.43,12.43 0 1 1 497.92,801.15A12.43,12.43 0 1 1 522.78,801.15Z" style="fill:#CF355E" />
<path d="M247.52,813.97A12.493,12.493 0 1 1 222.53,813.97A12.493,12.493 0 1 1 247.52,813.97Z" style="fill:#493C5F" />
<path d="M193.32,197.92L193.32,197.92A12.5,12.5 0 1 1 168.32,197.92A12.5,12.5 0 1 1 193.32,197.92Z" style="fill:#2EF15F" />
<path d="M141.28,360.2A12.524,12.524 0 1 1 116.23,360.2A12.524,12.524 0 1 1 141.28,360.2Z" style="fill:#14485F" />
<path d="M825.18,323.14A12.585,12.585 0 1 1 800.01,323.14A12.585,12.585 0 1 1 825.18,323.14Z" style="fill:#633460" />
<path d="M171.34,601.2A12.689,12.689 0 1 1 145.97,601.2A12.689,12.689 0 1 1 171.34,601.2Z" style="fill:#23C960" />
<path d="M880.21,805.52A12.711,12.711 0 1 1 854.79,805.52A12.711,12.711 0 1 1 880.21,805.52Z" style="fill:#7E3761" />
<path d="M591.62,824.32A12.747,12.747 0 1 1 566.12,824.32A12.747,12.747 0 1 1 591.62,824.32Z" style="fill:#F04161" />
<path d="M333.81,125.58L333.81,125.58A12.847,12.847 0 1 1 308.12,125.58A12.847,12.847 0 1 1 333.81,125.58Z" style="fill:#73CA62" />
<path d="M688.51,779.96L688.51,779.96A12.914,12.914 0 1 1 662.68,779.96A12.914,12.914 0 1 1 688.51,779.96Z" style="fill:#202962" />
<path d="M862.43,129.15L862.43,129.15A12.974,12.974 0 1 1 836.48,129.15A12.974,12.974 0 1 1 862.43,129.15Z" style="fill:#75CC63" />
<path d="M250.28,807.52L250.28,807.52A13.109,13.109 0 1 1 224.07,807.52A13.109,13.109 0 1 1 250.28,807.52Z" style="fill:#4A3864" />
<path d="M791.48,194.07A13.129,13.129 0 1 1 765.22,194.07A13.129,13.129 0 1 1 791.48,194.07Z" style="fill:#52EF64" />
<path d="M887.67,780.18L887.67,780.18A13.135,13.135 0 1 1 861.4,780.18A13.135,13.135 0 1 1 887.67,780.18Z" style="fill:#812A64" />
<path d="M185.89,672.59L185.89,672.59A13.222,13.222 0 1 1 159.45,672.59A13.222,13.222 0 1 1 185.89,672.59Z" style="fill:#2AF064" />
<path d="M430.75,791.31L430.75,791.31A13.248,13.248 0 1 1 404.25,791.31A13.248,13.248 0 1 1 430.75,791.31Z" style="fill:#A23065" />
<path d="M443.24,795.78L443.24,795.78A13.287,13.287 0 1 1 416.66,795.78A13.287,13.287 0 1 1 443.24,795.78Z" style="fill:#A83265" />
<path d="M279.27,781.51A13.291,13.291 0 1 1 252.69,781.51A13.291,13.291 0 1 1 279.27,781.51Z" style="fill:#582A65" />
<path d="M818.56,567.37A13.306,13.306 0 1 1 791.94,567.37A13.306,13.306 0 1 1 818.56,567.37Z" style="fill:#5FB765" />
<path d="M90.385,229.05A13.31,13.31 0 1 1 63.766,229.05A13.31,13.31 0 1 1 90.385,229.05Z" style="fill:#FB0265" />
<path d="M176.01,260.41L176.01,260.41A13.456,13.456 0 1 1 149.1,260.41A13.456,13.456 0 1 1 176.01,260.41Z" style="fill:#251366" />
<path d="M172.87,334.58A13.47,13.47 0 1 1 145.93,334.58A13.47,13.47 0 1 1 172.87,334.58Z" style="fill:#233B66" />
<path d="M170.99,574.58A13.495,13.495 0 1 1 144,574.58A13.495,13.495 0 1 1 170.99,574.58Z" style="fill:#23BB67" />
<path d="M692.7,781.57A13.718,13.718 0 1 1 665.26,781.57A13.718,13.718 0 1 1 692.7,781.57Z" style="fill:#212A68" />
<path d="M201.93,221.95L201.93,221.95A13.722,13.722 0 1 1 174.48,221.95A13.722,13.722 0 1 1 201.93,221.95Z" style="fill:#32FE68" />
<path d="M167.69,596.07L167.69,596.07A13.899,13.899 0 1 1 139.9,596.07A13.899,13.899 0 1 1 167.69,596.07Z" style="fill:#21C66A" />
<path d="M722.19,130.6L722.19,130.6A13.969,13.969 0 1 1 694.25,130.6A13.969,13.969 0 1 1 722.19,130.6Z" style="fill:#30CD6A" />
<path d="M125.59,718.86A14,14 0 1 1 97.594,718.86A14,14 0 1 1 125.59,718.86Z" style="fill:#0C096A" />
<path d="M819.03,597.41A14.171,14.171 0 1 1 790.69,597.41A14.171,14.171 0 1 1 819.03,597.41Z" style="fill:#5FC76C" />
<path d="M127.42,720.55A14.429,14.429 0 1 1 98.565,720.55A14.429,14.429 0 1 1 127.42,720.55Z" style="fill:#0D096E" />
<path d="M528.79,123.42L528.79,123.42A14.464,14.464 0 1 1 499.86,123.42A14.464,14.464 0 1 1 528.79,123.42Z" style="fill:#D1C96E" />
<path d="M658.72,791.52A14.686,14.686 0 1 1 629.35,791.52A14.686,14.686 0 1 1 658.72,791.52Z" style="fill:#10306F" />
<path d="M211.92,135.26A14.955,14.955 0 1 1 182,135.26A14.955,14.955 0 1 1 211.92,135.26Z" style="fill:#36CF72" />
<path d="M436.43,131.5L436.43,131.5A14.994,14.994 0 1 1 406.44,131.5A14.994,14.994 0 1 1 436.43,131.5Z" style="fill:#A4CD72" />
<path d="M160.2,259.9L160.2,259.9A15.09,15.09 0 1 1 130.02,259.9A15.09,15.09 0 1 1 160.2,259.9Z" style="fill:#1C1273" />
<path d="M689.83,783.9A15.133,15.133 0 1 1 659.56,783.9A15.133,15.133 0 1 1 689.83,783.9Z" style="fill:#1F2C73" />
<path d="M174.24,255.82L174.24,255.82A16.059,16.059 0 1 1 142.12,255.82A16.059,16.059 0 1 1 174.24,255.82Z" style="fill:#23107A" />
<path d="M454.93,105.36A16.074,16.074 0 1 1 422.78,105.36A16.074,16.074 0 1 1 454.93,105.36Z" style="fill:#ADBF7A" />
<path d="M256.28,825.88A16.393,16.393 0 1 1 223.5,825.88A16.393,16.393 0 1 1 256.28,825.88Z" style="fill:#4B427C" />
<path d="M785.63,222.79A16.544,16.544 0 1 1 752.54,222.79A16.544,16.544 0 1 1 785.63,222.79Z" style="fill:#4EFE7E" />
<path d="M829.02,672.71L829.02,672.71A16.632,16.632 0 1 1 795.76,672.71A16.632,16.632 0 1 1 829.02,672.71Z" style="fill:#63F07E" />
<path d="M726.34,96.685L726.34,96.685A16.719,16.719 0 1 1 692.9,96.685A16.719,16.719 0 1 1 726.34,96.685Z" style="fill:#30BA7F" />
<path d="M133.81,210.41A16.821,16.821 0 1 1 100.17,210.41A16.821,16.821 0 1 1 133.81,210.41Z" style="fill:#0FF880" />
<path d="M333.46,835.69A16.881,16.881 0 1 1 299.7,835.69A16.881,16.881 0 1 1 333.46,835.69Z" style="fill:#714780" />
<path d="M574.34,805.37A16.885,16.885 0 1 1 540.57,805.37A16.885,16.885 0 1 1 574.34,805.37Z" style="fill:#E63780" />
<path d="M550.58,803.28A17.285,17.285 0 1 1 516.01,803.28A17.285,17.285 0 1 1 550.58,803.28Z" style="fill:#DA3683" />
<path d="M835.05,197.89L835.05,197.89A17.439,17.439 0 1 1 800.18,197.89A17.439,17.439 0 1 1 835.05,197.89Z" style="fill:#65F184" />
<path d="M539.54,117.79A17.502,17.502 0 1 1 504.54,117.79A17.502,17.502 0 1 1 539.54,117.79Z" style="fill:#D4C685" />
<path d="M189,205.04A17.604,17.604 0 1 1 153.79,205.04A17.604,17.604 0 1 1 189,205.04Z" style="fill:#29F586" />
<path d="M535.7,818.08L535.7,818.08A17.614,17.614 0 1 1 500.47,818.08A17.614,17.614 0 1 1 535.7,818.08Z" style="fill:#D23E86" />
<path d="M209.5,791.83A17.65,17.65 0 1 1 174.2,791.83A17.65,17.65 0 1 1 209.5,791.83Z" style="fill:#333086" />
<path d="M421.79,124.47A17.803,17.803 0 1 1 386.18,124.47A17.803,17.803 0 1 1 421.79,124.47Z" style="fill:#9BC987" />
<path d="M404.31,97.31A17.82,17.82 0 1 1 368.67,97.31A17.82,17.82 0 1 1 404.31,97.31Z" style="fill:#93BB87" />
<path d="M323.58,799.26L323.58,799.26A17.854,17.854 0 1 1 287.88,799.26A17.854,17.854 0 1 1 323.58,799.26Z" style="fill:#6B3487" />
<path d="M217.38,94.542A17.855,17.855 0 1 1 181.67,94.542A17.855,17.855 0 1 1 217.38,94.542Z" style="fill:#37B987" />
<path d="M334.07,825.16L334.07,825.16A17.971,17.971 0 1 1 298.13,825.16A17.971,17.971 0 1 1 334.07,825.16Z" style="fill:#704288" />
<path d="M791.85,217.16A18.103,18.103 0 1 1 755.65,217.16A18.103,18.103 0 1 1 791.85,217.16Z" style="fill:#50FB89" />
<path d="M136.55,780.77A18.105,18.105 0 1 1 100.34,780.77A18.105,18.105 0 1 1 136.55,780.77Z" style="fill:#0F2A89" />
<path d="M427.69,806.09L427.69,806.09A18.438,18.438 0 1 1 390.81,806.09A18.438,18.438 0 1 1 427.69,806.09Z" style="fill:#9E388C" />
<path d="M280.3,135.87A18.481,18.481 0 1 1 243.34,135.87A18.481,18.481 0 1 1 280.3,135.87Z" style="fill:#56D08C" />
<path d="M654.31,102.65L654.31,102.65A18.581,18.581 0 1 1 617.15,102.65A18.581,18.581 0 1 1 654.31,102.65Z" style="fill:#0CBE8D" />
<path d="M888.99,114.88L888.99,114.88A18.727,18.727 0 1 1 851.54,114.88A18.727,18.727 0 1 1 888.99,114.88Z" style="fill:#7FC48E" />
<path d="M724.64,113.71L724.64,113.71A18.942,18.942 0 1 1 686.75,113.71A18.942,18.942 0 1 1 724.64,113.71Z" style="fill:#2FC490" />
<path d="M145.22,685.5A19.151,19.151 0 1 1 106.92,685.5A19.151,19.151 0 1 1 145.22,685.5Z" style="fill:#13F791" />
<path d="M191.99,232.3A19.312,19.312 0 1 1 153.37,232.3A19.312,19.312 0 1 1 191.99,232.3Z" style="fill:#2A0392" />
<path d="M847.82,716.7L847.82,716.7A19.318,19.318 0 1 1 809.18,716.7A19.318,19.318 0 1 1 847.82,716.7Z" style="fill:#6B0792" />
<path d="M543.05,828.18A19.332,19.332 0 1 1 504.39,828.18A19.332,19.332 0 1 1 543.05,828.18Z" style="fill:#D54393" />
<path d="M576.08,830.08A19.74,19.74 0 1 1 536.6,830.08A19.74,19.74 0 1 1 576.08,830.08Z" style="fill:#E54496" />
<path d="M826.23,728L826.23,728A19.801,19.801 0 1 1 786.62,728A19.801,19.801 0 1 1 826.23,728Z" style="fill:#600D96" />
<path d="M287.31,134.9A19.827,19.827 0 1 1 247.66,134.9A19.827,19.827 0 1 1 287.31,134.9Z" style="fill:#59CF96" />
<path d="M557.71,812.83L557.71,812.83A19.925,19.925 0 1 1 517.86,812.83A19.925,19.925 0 1 1 557.71,812.83Z" style="fill:#DC3B97" />
<path d="M308.09,134.04A20.106,20.106 0 1 1 267.87,134.04A20.106,20.106 0 1 1 308.09,134.04Z" style="fill:#63CF98" />
<path d="M206.26,790.13A20.422,20.422 0 1 1 165.41,790.13A20.422,20.422 0 1 1 206.26,790.13Z" style="fill:#302F9B" />
<path d="M330.22,95.778L330.22,95.778A20.56,20.56 0 1 1 289.1,95.778A20.56,20.56 0 1 1 330.22,95.778Z" style="fill:#6DBA9C" />
<path d="M431.33,111.92L431.33,111.92A20.658,20.658 0 1 1 390.01,111.92A20.658,20.658 0 1 1 431.33,111.92Z" style="fill:#9FC39D" />
<path d="M563.3,95.192A20.732,20.732 0 1 1 521.83,95.192A20.732,20.732 0 1 1 563.3,95.192Z" style="fill:#DFBA9D" />
<path d="M555.63,108.08L555.63,108.08A20.821,20.821 0 1 1 513.99,108.08A20.821,20.821 0 1 1 555.63,108.08Z" style="fill:#DBC19E" />
<path d="M661.48,100.81L661.48,100.81A20.878,20.878 0 1 1 619.72,100.81A20.878,20.878 0 1 1 661.48,100.81Z" style="fill:#0FBD9E" />
<path d="M438.06,824.11A20.879,20.879 0 1 1 396.31,824.11A20.879,20.879 0 1 1 438.06,824.11Z" style="fill:#A2419E" />
<path d="M569.65,100.58L569.65,100.58A20.91,20.91 0 1 1 527.83,100.58A20.91,20.91 0 1 1 569.65,100.58Z" style="fill:#E2BD9E" />
<path d="M126.5,813.04L126.5,813.04A21.103,21.103 0 1 1 84.296,813.04A21.103,21.103 0 1 1 126.5,813.04Z" style="fill:#093BA0" />
<path d="M805.33,700.42L805.33,700.42A21.538,21.538 0 1 1 762.25,700.42A21.538,21.538 0 1 1 805.33,700.42Z" style="fill:#55FFA3" />
<path d="M147.03,219.49A21.544,21.544 0 1 1 103.95,219.49A21.544,21.544 0 1 1 147.03,219.49Z" style="fill:#13FDA3" />
<path d="M168.5,778.72L168.5,778.72A22.464,22.464 0 1 1 123.57,778.72A22.464,22.464 0 1 1 168.5,778.72Z" style="fill:#1D29AA" />
<path d="M167.87,721.18L167.87,721.18A22.474,22.474 0 1 1 122.92,721.18A22.474,22.474 0 1 1 167.87,721.18Z" style="fill:#1D0AAA" />
<path d="M818.41,690.31A22.497,22.497 0 1 1 773.42,690.31A22.497,22.497 0 1 1 818.41,690.31Z" style="fill:#5BF9AA" />
<path d="M810.64,698.99A22.54,22.54 0 1 1 765.56,698.99A22.54,22.54 0 1 1 810.64,698.99Z" style="fill:#57FEAB" />
<path d="M217.67,111.15L217.67,111.15A22.596,22.596 0 1 1 172.48,111.15A22.596,22.596 0 1 1 217.67,111.15Z" style="fill:#35C2AB" />
<path d="M865.06,124.16A22.634,22.634 0 1 1 819.79,124.16A22.634,22.634 0 1 1 865.06,124.16Z" style="fill:#72C9AB" />
<path d="M667.51,826.17A22.767,22.767 0 1 1 621.97,826.17A22.767,22.767 0 1 1 667.51,826.17Z" style="fill:#1142AC" />
<path d="M293.37,129.18L293.37,129.18A22.781,22.781 0 1 1 247.81,129.18A22.781,22.781 0 1 1 293.37,129.18Z" style="fill:#5ACCAD" />
<path d="M830.74,239.17A22.939,22.939 0 1 1 784.86,239.17A22.939,22.939 0 1 1 830.74,239.17Z" style="fill:#6107AE" />
<path d="M671.22,105.91L671.22,105.91A23.82,23.82 0 1 1 623.58,105.91A23.82,23.82 0 1 1 671.22,105.91Z" style="fill:#12BFB4" />
<path d="M817.64,227.21A23.907,23.907 0 1 1 769.83,227.21A23.907,23.907 0 1 1 817.64,227.21Z" style="fill:#5A01B5" />
<path d="M832.16,213.46A23.938,23.938 0 1 1 784.29,213.46A23.938,23.938 0 1 1 832.16,213.46Z" style="fill:#61F9B5" />
<path d="M279.84,833.96A24.003,24.003 0 1 1 231.84,833.96A24.003,24.003 0 1 1 279.84,833.96Z" style="fill:#5347B6" />
<path d="M280.65,835.18L280.65,835.18A24.034,24.034 0 1 1 232.58,835.18A24.034,24.034 0 1 1 280.65,835.18Z" style="fill:#5347B6" />
<path d="M828.65,780.3L828.65,780.3A24.05,24.05 0 1 1 780.55,780.3A24.05,24.05 0 1 1 828.65,780.3Z" style="fill:#5F2AB6" />
<path d="M169.46,233.62A24.168,24.168 0 1 1 121.12,233.62A24.168,24.168 0 1 1 169.46,233.62Z" style="fill:#1D04B7" />
<path d="M830,233.34L830,233.34A24.216,24.216 0 1 1 781.56,233.34A24.216,24.216 0 1 1 830,233.34Z" style="fill:#6004B7" />
<path d="M837.43,710.21A24.269,24.269 0 1 1 788.9,710.21A24.269,24.269 0 1 1 837.43,710.21Z" style="fill:#6304B8" />
<path d="M838.41,221.85L838.41,221.85A24.376,24.376 0 1 1 789.66,221.85A24.376,24.376 0 1 1 838.41,221.85Z" style="fill:#64FEB9" />
<path d="M176.8,225.11A24.653,24.653 0 1 1 127.5,225.11A24.653,24.653 0 1 1 176.8,225.11Z" style="fill:#2000BB" />
<path d="M280.09,105.61A24.723,24.723 0 1 1 230.64,105.61A24.723,24.723 0 1 1 280.09,105.61Z" style="fill:#53BFBB" />
<path d="M835.8,704.39L835.8,704.39A24.77,24.77 0 1 1 786.26,704.39A24.77,24.77 0 1 1 835.8,704.39Z" style="fill:#6201BC" />
<path d="M856.25,139.06A24.91,24.91 0 1 1 806.43,139.06A24.91,24.91 0 1 1 856.25,139.06Z" style="fill:#6CD1BD" />
<path d="M323.98,97.281A24.919,24.919 0 1 1 274.14,97.281A24.919,24.919 0 1 1 323.98,97.281Z" style="fill:#68BBBD" />
<path d="M719.27,821.15L719.27,821.15A25.037,25.037 0 1 1 669.2,821.15A25.037,25.037 0 1 1 719.27,821.15Z" style="fill:#2940BE" />
<path d="M815.31,782.83L815.31,782.83A25.058,25.058 0 1 1 765.2,782.83A25.058,25.058 0 1 1 815.31,782.83Z" style="fill:#582BBE" />
<path d="M100.72,804.36A25.364,25.364 0 1 1 49.995,804.36A25.364,25.364 0 1 1 100.72,804.36Z" style="fill:#FA37C0" />
<path d="M900,809.12A25.48,25.48 0 1 1 849.04,809.12A25.48,25.48 0 1 1 900,809.12Z" style="fill:#8139C1" />
<path d="M217.81,104.13A25.626,25.626 0 1 1 166.55,104.13A25.626,25.626 0 1 1 217.81,104.13Z" style="fill:#34BEC2" />
<path d="M681.77,107.59A26.417,26.417 0 1 1 628.94,107.59A26.417,26.417 0 1 1 681.77,107.59Z" style="fill:#16C0C8" />
<path d="M686.62,106.47A27.467,27.467 0 1 1 631.69,106.47A27.467,27.467 0 1 1 686.62,106.47Z" style="fill:#18C0D0" />
<path d="M789.35,115.73A27.529,27.529 0 1 1 734.3,115.73A27.529,27.529 0 1 1 789.35,115.73Z" style="fill:#4AC5D0" />
<path d="M710.98,99.278A28.044,28.044 0 1 1 654.89,99.278A28.044,28.044 0 1 1 710.98,99.278Z" style="fill:#23BCD4" />
<path d="M710.09,829.67A28.197,28.197 0 1 1 653.7,829.67A28.197,28.197 0 1 1 710.09,829.67Z" style="fill:#2344D5" />
<path d="M711.51,104.18A28.265,28.265 0 1 1 654.98,104.18A28.265,28.265 0 1 1 711.51,104.18Z" style="fill:#24BED6" />
<path d="M313.56,826.44L313.56,826.44A28.677,28.677 0 1 1 256.21,826.44A28.677,28.677 0 1 1 313.56,826.44Z" style="fill:#6143D9" />
<path d="M309.4,823.12A29.085,29.085 0 1 1 251.23,823.12A29.085,29.085 0 1 1 309.4,823.12Z" style="fill:#5F41DC" />
<path d="M847.18,787.54A29.134,29.134 0 1 1 788.91,787.54A29.134,29.134 0 1 1 847.18,787.54Z" style="fill:#662EDD" />
<path d="M141.07,818.4A29.511,29.511 0 1 1 82.048,818.4A29.511,29.511 0 1 1 141.07,818.4Z" style="fill:#0C3EDF" />
<path d="M823.99,788.46L823.99,788.46A30.821,30.821 0 1 1 762.35,788.46A30.821,30.821 0 1 1 823.99,788.46Z" style="fill:#592EE9" />
<path d="M212.76,808.4L212.76,808.4A34.42,34.42 0 1 1 143.92,808.4A34.42,34.42 0 1 1 212.76,808.4Z" style="fill:#2D3904" />
<path d="M152.14,113.92A34.995,34.995 0 1 1 82.15,113.92A34.995,34.995 0 1 1 152.14,113.92Z" style="fill:#0FC409" />
<path d="M210.08,805.2L210.08,805.2A35.619,35.619 0 1 1 138.85,805.2A35.619,35.619 0 1 1 210.08,805.2Z" style="fill:#2B370D" />
<path d="M869.31,105.42L869.31,105.42A37.161,37.161 0 1 1 794.99,105.42A37.161,37.161 0 1 1 869.31,105.42Z" style="fill:#6DBF19" />
<path d="M867.83,97.896L867.83,97.896A40.029,40.029 0 1 1 787.77,97.896A40.029,40.029 0 1 1 867.83,97.896Z" style="fill:#6ABB2F" />
<path d="M205.76,121.55A42.591,42.591 0 1 1 120.58,121.55A42.591,42.591 0 1 1 205.76,121.55Z" style="fill:#25C842" />
<path d="M213.3,104.35A43.133,43.133 0 1 1 127.04,104.35A43.133,43.133 0 1 1 213.3,104.35Z" style="fill:#29BF46" />
<path d="M868.08,824.95A43.184,43.184 0 1 1 781.71,824.95A43.184,43.184 0 1 1 868.08,824.95Z" style="fill:#694247" />
<path d="M832.46,808.56L832.46,808.56A43.763,43.763 0 1 1 744.93,808.56A43.763,43.763 0 1 1 832.46,808.56Z" style="fill:#57394B" />
<path d="M867.69,103.81A44.07,44.07 0 1 1 779.55,103.81A44.07,44.07 0 1 1 867.69,103.81Z" style="fill:#68BE4D" />
<path d="M867.15,110.75L867.15,110.75A44.072,44.072 0 1 1 779.01,110.75A44.072,44.072 0 1 1 867.15,110.75Z" style="fill:#68C24D" />
<path d="M865.77,831.5A44.101,44.101 0 1 1 777.57,831.5A44.101,44.101 0 1 1 865.77,831.5Z" style="fill:#67454D" />
<path d="M177.84,113.82L177.84,113.82A45.891,45.891 0 1 1 86.061,113.82A45.891,45.891 0 1 1 177.84,113.82Z" style="fill:#16C45B" />
<path d="M178.11,817.91L178.11,817.91A46.428,46.428 0 1 1 85.25,817.91A46.428,46.428 0 1 1 178.11,817.91Z" style="fill:#163E5F" />
<path d="M842.01,833.14A47.587,47.587 0 1 1 746.84,833.14A47.587,47.587 0 1 1 842.01,833.14Z" style="fill:#5A4668" />
<path d="M208.81,821.3L208.81,821.3A47.74,47.74 0 1 1 113.33,821.3A47.74,47.74 0 1 1 208.81,821.3Z" style="fill:#244069" />
<path d="M863.38,817.56A47.902,47.902 0 1 1 767.58,817.56A47.902,47.902 0 1 1 863.38,817.56Z" style="fill:#643E6A" />
<path d="M848.82,97.272L848.82,97.272A49.171,49.171 0 1 1 750.48,97.272A49.171,49.171 0 1 1 848.82,97.272Z" style="fill:#5DBB74" />
<path d="M205.54,821.44L205.54,821.44A49.429,49.429 0 1 1 106.68,821.44A49.429,49.429 0 1 1 205.54,821.44Z" style="fill:#224076" />
<path d="M860.42,823.77L860.42,823.77A50,50 0 1 1 760.42,823.77A50,50 0 1 1 860.42,823.77Z" style="fill:#62417A" />
<text x="614.7" y="-48.379" transform="scale(1, -1)"
	style="font-family:Times;font-weight:normal;font-style:normal;font-size:12pt">The bigger the circle, the smaller the value</text>
</g>
</svg>
